<mxfile host="Electron" modified="2023-09-13T11:45:54.487Z" agent="Mozilla/5.0 (Windows NT 10.0; Win64; x64) AppleWebKit/537.36 (KHTML, like Gecko) draw.io/21.6.5 Chrome/114.0.5735.243 Electron/25.3.1 Safari/537.36" etag="1Jpf5lq755O13GuzTBhw" version="21.6.5" type="device">
  <diagram name="Page-1" id="b_ZOukNFxecWE0hN92-U">
    <mxGraphModel dx="2795" dy="2299" grid="1" gridSize="10" guides="1" tooltips="1" connect="1" arrows="1" fold="1" page="1" pageScale="1" pageWidth="827" pageHeight="1169" math="0" shadow="0">
      <root>
        <mxCell id="0" />
        <mxCell id="1" parent="0" />
        <mxCell id="B4nwFfJSqXU49VAbo7aI-186" value="&lt;b style=&quot;font-size: 19px;&quot;&gt;On-Premise Infrastructure&lt;br&gt;&lt;/b&gt;&lt;br&gt;&lt;br&gt;&lt;br&gt;&lt;br&gt;&lt;br&gt;&lt;br&gt;&lt;br&gt;&lt;br&gt;&lt;br&gt;&lt;br&gt;&lt;br&gt;&lt;br&gt;&lt;br&gt;&lt;br&gt;&lt;br&gt;&lt;br&gt;&lt;br&gt;&lt;br&gt;&lt;br&gt;&lt;br&gt;&lt;br&gt;&lt;br&gt;&lt;br&gt;&lt;br&gt;&lt;br&gt;&lt;br&gt;&lt;br&gt;&lt;br&gt;&lt;br&gt;&lt;br&gt;&lt;br&gt;&lt;br&gt;&lt;br&gt;&lt;br&gt;&lt;br&gt;&lt;br&gt;&lt;br&gt;&lt;br&gt;&lt;br&gt;&lt;br&gt;&lt;br&gt;&lt;br&gt;&lt;br&gt;&lt;br&gt;&lt;br&gt;&lt;br&gt;&lt;br&gt;&lt;br&gt;&lt;br&gt;&lt;br&gt;&lt;br&gt;&lt;br&gt;&lt;br&gt;&lt;br&gt;&lt;br&gt;&lt;br&gt;&lt;br&gt;&lt;br&gt;&lt;br&gt;&lt;br&gt;&lt;br&gt;&lt;br&gt;&lt;br&gt;&lt;br&gt;&lt;br&gt;&lt;br&gt;&lt;br&gt;&lt;br&gt;&lt;br&gt;&lt;br&gt;&lt;br&gt;&lt;br&gt;&lt;br&gt;&lt;br&gt;&lt;br&gt;&lt;br&gt;&lt;br&gt;&lt;br&gt;&lt;br&gt;&lt;br&gt;&lt;br&gt;&lt;br&gt;&lt;br&gt;&lt;br&gt;&lt;br&gt;&lt;br&gt;&lt;br&gt;&lt;br&gt;&lt;br&gt;" style="rounded=0;whiteSpace=wrap;html=1;fillColor=#eeeeee;strokeColor=#36393d;opacity=60;align=left;" vertex="1" parent="1">
          <mxGeometry x="950" y="-364" width="1500" height="1314" as="geometry" />
        </mxCell>
        <mxCell id="B4nwFfJSqXU49VAbo7aI-79" value="&lt;div style=&quot;font-size: 18px;&quot;&gt;&lt;font style=&quot;font-size: 18px;&quot;&gt;&lt;b&gt;Remote Access&lt;/b&gt;&lt;/font&gt;&lt;/div&gt;&lt;div style=&quot;font-size: 18px;&quot;&gt;&lt;br&gt;&lt;/div&gt;&lt;div style=&quot;&quot;&gt;&lt;br&gt;&lt;/div&gt;&lt;div style=&quot;&quot;&gt;&lt;br&gt;&lt;/div&gt;&lt;br&gt;&lt;br&gt;&lt;br&gt;&lt;br&gt;&lt;br&gt;&lt;br&gt;&lt;br&gt;&lt;br&gt;&lt;br&gt;&lt;br&gt;&lt;br&gt;&lt;br&gt;&lt;br&gt;&lt;br&gt;&lt;br&gt;&lt;br&gt;&lt;br&gt;&lt;br&gt;&lt;br&gt;&lt;br&gt;&lt;br&gt;&lt;br&gt;&lt;br&gt;&lt;br&gt;&lt;br&gt;&lt;br&gt;&lt;br&gt;&lt;br&gt;&lt;br&gt;&lt;br&gt;&lt;br&gt;&lt;br&gt;&lt;br&gt;&lt;br&gt;&lt;br&gt;&lt;br&gt;&lt;br&gt;&lt;br&gt;&lt;br&gt;&lt;br&gt;&lt;br&gt;&lt;br&gt;&lt;br&gt;&lt;br&gt;&lt;br&gt;&lt;br&gt;&lt;br&gt;&lt;br&gt;&lt;br&gt;&lt;br&gt;&lt;br&gt;&lt;br&gt;&lt;br&gt;&lt;br&gt;&lt;br&gt;&lt;br&gt;&lt;br&gt;&lt;br&gt;&lt;br&gt;&lt;br&gt;" style="rounded=0;whiteSpace=wrap;html=1;opacity=70;fillColor=#f5f5f5;fontColor=#333333;strokeColor=#666666;align=left;" vertex="1" parent="1">
          <mxGeometry x="40" width="890" height="950" as="geometry" />
        </mxCell>
        <mxCell id="B4nwFfJSqXU49VAbo7aI-136" value="Control layer &amp;amp; Server" style="rounded=0;whiteSpace=wrap;html=1;fillColor=#fad9d5;strokeColor=#ae4132;" vertex="1" parent="1">
          <mxGeometry x="280" y="490" width="1210" height="440" as="geometry" />
        </mxCell>
        <mxCell id="B4nwFfJSqXU49VAbo7aI-46" value="Access Layer&lt;br&gt;&lt;br&gt;&lt;br&gt;&lt;br&gt;&lt;br&gt;&lt;br&gt;&lt;br&gt;&lt;br&gt;&lt;br&gt;&lt;br&gt;&lt;br&gt;&lt;br&gt;&lt;br&gt;&lt;br&gt;&lt;br&gt;&lt;br&gt;&lt;br&gt;&lt;br&gt;&lt;br&gt;&lt;br&gt;&lt;br&gt;&lt;br&gt;&lt;br&gt;&lt;br&gt;&lt;br&gt;&lt;br&gt;&lt;br&gt;&lt;br&gt;&lt;br&gt;" style="rounded=0;whiteSpace=wrap;html=1;fillColor=#e1d5e7;strokeColor=#9673a6;opacity=40;" vertex="1" parent="1">
          <mxGeometry x="282" y="20" width="164" height="420" as="geometry" />
        </mxCell>
        <mxCell id="B4nwFfJSqXU49VAbo7aI-40" style="edgeStyle=orthogonalEdgeStyle;rounded=0;orthogonalLoop=1;jettySize=auto;html=1;" edge="1" parent="1" source="B4nwFfJSqXU49VAbo7aI-35" target="B4nwFfJSqXU49VAbo7aI-37">
          <mxGeometry relative="1" as="geometry" />
        </mxCell>
        <mxCell id="B4nwFfJSqXU49VAbo7aI-35" value="" style="verticalLabelPosition=bottom;sketch=0;aspect=fixed;html=1;verticalAlign=top;strokeColor=none;align=center;outlineConnect=0;shape=mxgraph.citrix.users;" vertex="1" parent="1">
          <mxGeometry x="50" y="60" width="64.5" height="55" as="geometry" />
        </mxCell>
        <mxCell id="B4nwFfJSqXU49VAbo7aI-45" style="edgeStyle=orthogonalEdgeStyle;rounded=0;orthogonalLoop=1;jettySize=auto;html=1;" edge="1" parent="1" source="B4nwFfJSqXU49VAbo7aI-37" target="B4nwFfJSqXU49VAbo7aI-44">
          <mxGeometry relative="1" as="geometry" />
        </mxCell>
        <mxCell id="B4nwFfJSqXU49VAbo7aI-37" value="NetScaler Gateway" style="verticalLabelPosition=bottom;sketch=0;aspect=fixed;html=1;verticalAlign=top;strokeColor=none;align=center;outlineConnect=0;shape=mxgraph.citrix.netscaler_mpx;" vertex="1" parent="1">
          <mxGeometry x="314" y="68" width="100" height="39" as="geometry" />
        </mxCell>
        <mxCell id="B4nwFfJSqXU49VAbo7aI-42" value="" style="verticalLabelPosition=bottom;sketch=0;aspect=fixed;html=1;verticalAlign=top;strokeColor=none;align=center;outlineConnect=0;shape=mxgraph.citrix.firewall;" vertex="1" parent="1">
          <mxGeometry x="230" y="54.5" width="43.55" height="54" as="geometry" />
        </mxCell>
        <mxCell id="B4nwFfJSqXU49VAbo7aI-44" value="Citrix StoreFront" style="verticalLabelPosition=bottom;sketch=0;aspect=fixed;html=1;verticalAlign=top;strokeColor=none;align=center;outlineConnect=0;shape=mxgraph.citrix.role_appcontroller;fillColor=#CCCCCC;gradientColor=#000000;gradientDirection=south;" vertex="1" parent="1">
          <mxGeometry x="345" y="250" width="38" height="38" as="geometry" />
        </mxCell>
        <mxCell id="B4nwFfJSqXU49VAbo7aI-47" value="Ressource Layer&lt;br&gt;&lt;br&gt;&lt;br&gt;&lt;br&gt;&lt;br&gt;&lt;br&gt;&lt;br&gt;&lt;br&gt;&lt;br&gt;&lt;br&gt;&lt;br&gt;&lt;br&gt;&lt;br&gt;&lt;br&gt;&lt;br&gt;&lt;br&gt;&lt;br&gt;&lt;br&gt;&lt;br&gt;&lt;br&gt;&lt;br&gt;&lt;br&gt;&lt;br&gt;&lt;br&gt;&lt;br&gt;&lt;br&gt;&lt;br&gt;&lt;br&gt;&lt;br&gt;" style="rounded=0;whiteSpace=wrap;html=1;fillColor=#ffe6cc;strokeColor=#d79b00;opacity=70;" vertex="1" parent="1">
          <mxGeometry x="480" y="20" width="240" height="420" as="geometry" />
        </mxCell>
        <mxCell id="B4nwFfJSqXU49VAbo7aI-60" style="edgeStyle=orthogonalEdgeStyle;rounded=0;orthogonalLoop=1;jettySize=auto;html=1;entryX=0;entryY=0.5;entryDx=0;entryDy=0;" edge="1" parent="1" source="B4nwFfJSqXU49VAbo7aI-48" target="B4nwFfJSqXU49VAbo7aI-56">
          <mxGeometry relative="1" as="geometry" />
        </mxCell>
        <mxCell id="B4nwFfJSqXU49VAbo7aI-48" value="Desktop Catalogue&lt;br&gt;(Server)" style="verticalLabelPosition=bottom;sketch=0;aspect=fixed;html=1;verticalAlign=top;strokeColor=none;align=center;outlineConnect=0;shape=mxgraph.citrix.xendesktop_server;" vertex="1" parent="1">
          <mxGeometry x="579.4" y="68" width="41.21" height="50" as="geometry" />
        </mxCell>
        <mxCell id="B4nwFfJSqXU49VAbo7aI-62" style="edgeStyle=orthogonalEdgeStyle;rounded=0;orthogonalLoop=1;jettySize=auto;html=1;entryX=0;entryY=0.5;entryDx=0;entryDy=0;" edge="1" parent="1" source="B4nwFfJSqXU49VAbo7aI-49" target="B4nwFfJSqXU49VAbo7aI-56">
          <mxGeometry relative="1" as="geometry" />
        </mxCell>
        <mxCell id="B4nwFfJSqXU49VAbo7aI-49" value="Personal Desktop Catalogue&lt;br&gt;(Server)" style="verticalLabelPosition=bottom;sketch=0;aspect=fixed;html=1;verticalAlign=top;strokeColor=none;align=center;outlineConnect=0;shape=mxgraph.citrix.xendesktop_server;" vertex="1" parent="1">
          <mxGeometry x="579.39" y="205" width="41.21" height="50" as="geometry" />
        </mxCell>
        <mxCell id="B4nwFfJSqXU49VAbo7aI-61" style="edgeStyle=orthogonalEdgeStyle;rounded=0;orthogonalLoop=1;jettySize=auto;html=1;entryX=0;entryY=0.5;entryDx=0;entryDy=0;" edge="1" parent="1" source="B4nwFfJSqXU49VAbo7aI-50" target="B4nwFfJSqXU49VAbo7aI-56">
          <mxGeometry relative="1" as="geometry" />
        </mxCell>
        <mxCell id="B4nwFfJSqXU49VAbo7aI-50" value="Remote PC Access&lt;br&gt;" style="verticalLabelPosition=bottom;sketch=0;aspect=fixed;html=1;verticalAlign=top;strokeColor=none;align=center;outlineConnect=0;shape=mxgraph.citrix.xendesktop_server;" vertex="1" parent="1">
          <mxGeometry x="579.39" y="330" width="41.21" height="50" as="geometry" />
        </mxCell>
        <mxCell id="B4nwFfJSqXU49VAbo7aI-52" value="" style="endArrow=classic;html=1;rounded=0;" edge="1" parent="1" source="B4nwFfJSqXU49VAbo7aI-44" target="B4nwFfJSqXU49VAbo7aI-48">
          <mxGeometry width="50" height="50" relative="1" as="geometry">
            <mxPoint x="490" y="290" as="sourcePoint" />
            <mxPoint x="540" y="240" as="targetPoint" />
          </mxGeometry>
        </mxCell>
        <mxCell id="B4nwFfJSqXU49VAbo7aI-53" value="" style="endArrow=classic;html=1;rounded=0;" edge="1" parent="1" source="B4nwFfJSqXU49VAbo7aI-44" target="B4nwFfJSqXU49VAbo7aI-49">
          <mxGeometry width="50" height="50" relative="1" as="geometry">
            <mxPoint x="490" y="290" as="sourcePoint" />
            <mxPoint x="540" y="240" as="targetPoint" />
          </mxGeometry>
        </mxCell>
        <mxCell id="B4nwFfJSqXU49VAbo7aI-54" value="" style="endArrow=classic;html=1;rounded=0;" edge="1" parent="1" source="B4nwFfJSqXU49VAbo7aI-44" target="B4nwFfJSqXU49VAbo7aI-50">
          <mxGeometry width="50" height="50" relative="1" as="geometry">
            <mxPoint x="460" y="330" as="sourcePoint" />
            <mxPoint x="540" y="240" as="targetPoint" />
          </mxGeometry>
        </mxCell>
        <mxCell id="B4nwFfJSqXU49VAbo7aI-56" value="&lt;br&gt;&lt;br&gt;&lt;br&gt;&lt;br&gt;&lt;br&gt;&lt;br&gt;&lt;br&gt;&lt;br&gt;&lt;br&gt;&lt;br&gt;&lt;br&gt;&lt;br&gt;&lt;br&gt;&lt;br&gt;&lt;br&gt;&lt;br&gt;&lt;br&gt;&lt;br&gt;&lt;br&gt;&lt;br&gt;&lt;br&gt;&lt;br&gt;&lt;br&gt;&lt;br&gt;&lt;br&gt;&lt;br&gt;&lt;br&gt;" style="rounded=0;whiteSpace=wrap;html=1;fillColor=#dae8fc;strokeColor=#6c8ebf;opacity=70;" vertex="1" parent="1">
          <mxGeometry x="810" y="20" width="110" height="420" as="geometry" />
        </mxCell>
        <mxCell id="B4nwFfJSqXU49VAbo7aI-57" value="PCs" style="verticalLabelPosition=bottom;sketch=0;aspect=fixed;html=1;verticalAlign=top;strokeColor=none;align=center;outlineConnect=0;shape=mxgraph.citrix.thin_client;" vertex="1" parent="1">
          <mxGeometry x="842" y="330" width="46" height="46" as="geometry" />
        </mxCell>
        <mxCell id="B4nwFfJSqXU49VAbo7aI-58" value="Server&lt;br&gt;Hardware" style="verticalLabelPosition=bottom;sketch=0;aspect=fixed;html=1;verticalAlign=top;strokeColor=none;align=center;outlineConnect=0;shape=mxgraph.citrix.chassis;" vertex="1" parent="1">
          <mxGeometry x="829.94" y="42.25" width="70.11" height="90.5" as="geometry" />
        </mxCell>
        <mxCell id="B4nwFfJSqXU49VAbo7aI-64" value="Delivery&lt;br&gt;Controller" style="verticalLabelPosition=bottom;sketch=0;aspect=fixed;html=1;verticalAlign=top;strokeColor=none;align=center;outlineConnect=0;shape=mxgraph.citrix.process;" vertex="1" parent="1">
          <mxGeometry x="348.49" y="523" width="31.03" height="37" as="geometry" />
        </mxCell>
        <mxCell id="B4nwFfJSqXU49VAbo7aI-67" value="" style="endArrow=none;dashed=1;html=1;dashPattern=1 3;strokeWidth=2;rounded=0;" edge="1" parent="1" source="B4nwFfJSqXU49VAbo7aI-64" target="B4nwFfJSqXU49VAbo7aI-44">
          <mxGeometry width="50" height="50" relative="1" as="geometry">
            <mxPoint x="490" y="600" as="sourcePoint" />
            <mxPoint x="540" y="550" as="targetPoint" />
          </mxGeometry>
        </mxCell>
        <mxCell id="B4nwFfJSqXU49VAbo7aI-70" value="" style="verticalLabelPosition=bottom;sketch=0;aspect=fixed;html=1;verticalAlign=top;strokeColor=none;align=center;outlineConnect=0;shape=mxgraph.citrix.role_secure_access;fillColor=#CCCCCC;gradientColor=#000000;gradientDirection=south;" vertex="1" parent="1">
          <mxGeometry x="163" y="68" width="38" height="38" as="geometry" />
        </mxCell>
        <mxCell id="B4nwFfJSqXU49VAbo7aI-72" value="" style="endArrow=none;dashed=1;html=1;dashPattern=1 3;strokeWidth=2;rounded=0;" edge="1" parent="1" source="B4nwFfJSqXU49VAbo7aI-64" target="B4nwFfJSqXU49VAbo7aI-142">
          <mxGeometry width="50" height="50" relative="1" as="geometry">
            <mxPoint x="390" y="540" as="sourcePoint" />
            <mxPoint x="490.0404000000003" y="760" as="targetPoint" />
          </mxGeometry>
        </mxCell>
        <mxCell id="B4nwFfJSqXU49VAbo7aI-73" value="" style="endArrow=none;dashed=1;html=1;dashPattern=1 3;strokeWidth=2;rounded=0;" edge="1" parent="1" source="B4nwFfJSqXU49VAbo7aI-141">
          <mxGeometry width="50" height="50" relative="1" as="geometry">
            <mxPoint x="385" y="570" as="sourcePoint" />
            <mxPoint x="579" y="667.5420643823154" as="targetPoint" />
          </mxGeometry>
        </mxCell>
        <mxCell id="B4nwFfJSqXU49VAbo7aI-74" value="" style="endArrow=none;dashed=1;html=1;dashPattern=1 3;strokeWidth=2;rounded=0;" edge="1" parent="1" source="B4nwFfJSqXU49VAbo7aI-64">
          <mxGeometry width="50" height="50" relative="1" as="geometry">
            <mxPoint x="395" y="580" as="sourcePoint" />
            <mxPoint x="620.6100000000001" y="555.3685414714996" as="targetPoint" />
          </mxGeometry>
        </mxCell>
        <mxCell id="B4nwFfJSqXU49VAbo7aI-90" style="edgeStyle=orthogonalEdgeStyle;rounded=0;orthogonalLoop=1;jettySize=auto;html=1;" edge="1" parent="1" source="B4nwFfJSqXU49VAbo7aI-81" target="B4nwFfJSqXU49VAbo7aI-89">
          <mxGeometry relative="1" as="geometry" />
        </mxCell>
        <mxCell id="B4nwFfJSqXU49VAbo7aI-96" style="edgeStyle=orthogonalEdgeStyle;rounded=0;orthogonalLoop=1;jettySize=auto;html=1;" edge="1" parent="1" source="B4nwFfJSqXU49VAbo7aI-81" target="B4nwFfJSqXU49VAbo7aI-95">
          <mxGeometry relative="1" as="geometry" />
        </mxCell>
        <mxCell id="B4nwFfJSqXU49VAbo7aI-81" value="Router" style="verticalLabelPosition=bottom;sketch=0;aspect=fixed;html=1;verticalAlign=top;strokeColor=none;align=center;outlineConnect=0;shape=mxgraph.citrix.router;" vertex="1" parent="1">
          <mxGeometry x="1102" y="-122.5" width="55" height="36.5" as="geometry" />
        </mxCell>
        <mxCell id="B4nwFfJSqXU49VAbo7aI-188" style="edgeStyle=orthogonalEdgeStyle;rounded=0;orthogonalLoop=1;jettySize=auto;html=1;" edge="1" parent="1" source="B4nwFfJSqXU49VAbo7aI-83" target="B4nwFfJSqXU49VAbo7aI-81">
          <mxGeometry relative="1" as="geometry" />
        </mxCell>
        <mxCell id="B4nwFfJSqXU49VAbo7aI-83" value="Internet" style="verticalLabelPosition=bottom;sketch=0;aspect=fixed;html=1;verticalAlign=top;strokeColor=none;align=center;outlineConnect=0;shape=mxgraph.citrix.globe;" vertex="1" parent="1">
          <mxGeometry x="60" y="-268" width="78.5" height="75" as="geometry" />
        </mxCell>
        <mxCell id="B4nwFfJSqXU49VAbo7aI-86" value="Switch" style="verticalLabelPosition=bottom;sketch=0;aspect=fixed;html=1;verticalAlign=top;strokeColor=none;align=center;outlineConnect=0;shape=mxgraph.citrix.switch;" vertex="1" parent="1">
          <mxGeometry x="1084.25" y="370" width="92" height="41.5" as="geometry" />
        </mxCell>
        <mxCell id="B4nwFfJSqXU49VAbo7aI-150" style="edgeStyle=orthogonalEdgeStyle;rounded=0;orthogonalLoop=1;jettySize=auto;html=1;" edge="1" parent="1" source="B4nwFfJSqXU49VAbo7aI-89" target="B4nwFfJSqXU49VAbo7aI-149">
          <mxGeometry relative="1" as="geometry" />
        </mxCell>
        <mxCell id="B4nwFfJSqXU49VAbo7aI-89" value="" style="verticalLabelPosition=bottom;sketch=0;aspect=fixed;html=1;verticalAlign=top;strokeColor=none;align=center;outlineConnect=0;shape=mxgraph.citrix.firewall;" vertex="1" parent="1">
          <mxGeometry x="1108.13" y="16" width="42.74" height="53" as="geometry" />
        </mxCell>
        <mxCell id="B4nwFfJSqXU49VAbo7aI-92" value="OrgInv WebApp Server" style="verticalLabelPosition=bottom;sketch=0;aspect=fixed;html=1;verticalAlign=top;strokeColor=none;align=center;outlineConnect=0;shape=mxgraph.citrix.web_server;" vertex="1" parent="1">
          <mxGeometry x="1692" y="-304" width="76.5" height="90" as="geometry" />
        </mxCell>
        <mxCell id="B4nwFfJSqXU49VAbo7aI-93" value="OrgInv WebApp Server" style="verticalLabelPosition=bottom;sketch=0;aspect=fixed;html=1;verticalAlign=top;strokeColor=none;align=center;outlineConnect=0;shape=mxgraph.citrix.web_server;" vertex="1" parent="1">
          <mxGeometry x="1682" y="-149.25" width="76.5" height="90" as="geometry" />
        </mxCell>
        <mxCell id="B4nwFfJSqXU49VAbo7aI-94" value="OrgInv WebApp Server" style="verticalLabelPosition=bottom;sketch=0;aspect=fixed;html=1;verticalAlign=top;strokeColor=none;align=center;outlineConnect=0;shape=mxgraph.citrix.web_server;" vertex="1" parent="1">
          <mxGeometry x="1682" y="16" width="76.5" height="90" as="geometry" />
        </mxCell>
        <mxCell id="B4nwFfJSqXU49VAbo7aI-97" style="edgeStyle=orthogonalEdgeStyle;rounded=0;orthogonalLoop=1;jettySize=auto;html=1;" edge="1" parent="1" source="B4nwFfJSqXU49VAbo7aI-95" target="B4nwFfJSqXU49VAbo7aI-92">
          <mxGeometry relative="1" as="geometry">
            <mxPoint x="1482" y="-204" as="targetPoint" />
            <Array as="points">
              <mxPoint x="1582" y="-104" />
              <mxPoint x="1582" y="-259" />
            </Array>
          </mxGeometry>
        </mxCell>
        <mxCell id="B4nwFfJSqXU49VAbo7aI-98" style="edgeStyle=orthogonalEdgeStyle;rounded=0;orthogonalLoop=1;jettySize=auto;html=1;" edge="1" parent="1" source="B4nwFfJSqXU49VAbo7aI-95" target="B4nwFfJSqXU49VAbo7aI-93">
          <mxGeometry relative="1" as="geometry" />
        </mxCell>
        <mxCell id="B4nwFfJSqXU49VAbo7aI-99" style="edgeStyle=orthogonalEdgeStyle;rounded=0;orthogonalLoop=1;jettySize=auto;html=1;" edge="1" parent="1" source="B4nwFfJSqXU49VAbo7aI-95" target="B4nwFfJSqXU49VAbo7aI-94">
          <mxGeometry relative="1" as="geometry">
            <mxPoint x="1482" y="66" as="targetPoint" />
            <Array as="points">
              <mxPoint x="1582" y="-104" />
              <mxPoint x="1582" y="66" />
            </Array>
          </mxGeometry>
        </mxCell>
        <mxCell id="B4nwFfJSqXU49VAbo7aI-95" value="Switch" style="verticalLabelPosition=bottom;sketch=0;aspect=fixed;html=1;verticalAlign=top;strokeColor=none;align=center;outlineConnect=0;shape=mxgraph.citrix.switch;" vertex="1" parent="1">
          <mxGeometry x="1312" y="-125" width="92" height="41.5" as="geometry" />
        </mxCell>
        <mxCell id="B4nwFfJSqXU49VAbo7aI-100" value="Protection" style="verticalLabelPosition=bottom;sketch=0;aspect=fixed;html=1;verticalAlign=top;strokeColor=none;align=center;outlineConnect=0;shape=mxgraph.citrix.security;" vertex="1" parent="1">
          <mxGeometry x="1492" y="-149.5" width="40.5" height="71" as="geometry" />
        </mxCell>
        <mxCell id="B4nwFfJSqXU49VAbo7aI-101" value="&lt;br&gt;Servers&lt;br&gt;&lt;br&gt;&lt;br&gt;&lt;br&gt;&lt;br&gt;&lt;br&gt;&lt;br&gt;&lt;br&gt;&lt;br&gt;&lt;br&gt;&lt;br&gt;&lt;br&gt;&lt;br&gt;&lt;br&gt;&lt;br&gt;&lt;br&gt;&lt;br&gt;&lt;br&gt;&lt;br&gt;&lt;br&gt;&lt;br&gt;&lt;br&gt;&lt;br&gt;&lt;br&gt;&lt;br&gt;&lt;br&gt;&lt;br&gt;&lt;br&gt;&lt;br&gt;&lt;br&gt;&lt;br&gt;&lt;br&gt;&lt;br&gt;&lt;br&gt;&lt;br&gt;" style="rounded=0;whiteSpace=wrap;html=1;fillColor=#76608a;fontColor=#ffffff;strokeColor=#432D57;opacity=40;" vertex="1" parent="1">
          <mxGeometry x="1570" y="-340" width="270" height="500" as="geometry" />
        </mxCell>
        <mxCell id="B4nwFfJSqXU49VAbo7aI-135" value="" style="group" vertex="1" connectable="0" parent="1">
          <mxGeometry x="1850" y="-340" width="540" height="500" as="geometry" />
        </mxCell>
        <mxCell id="B4nwFfJSqXU49VAbo7aI-102" value="" style="rounded=0;whiteSpace=wrap;html=1;fillColor=#647687;fontColor=#ffffff;strokeColor=#314354;opacity=60;" vertex="1" parent="B4nwFfJSqXU49VAbo7aI-135">
          <mxGeometry width="540" height="500" as="geometry" />
        </mxCell>
        <mxCell id="B4nwFfJSqXU49VAbo7aI-104" value="PC" style="verticalLabelPosition=bottom;sketch=0;aspect=fixed;html=1;verticalAlign=top;strokeColor=none;align=center;outlineConnect=0;shape=mxgraph.citrix.thin_client;" vertex="1" parent="B4nwFfJSqXU49VAbo7aI-135">
          <mxGeometry x="31" y="20.408163265306122" width="71" height="71" as="geometry" />
        </mxCell>
        <mxCell id="B4nwFfJSqXU49VAbo7aI-120" value="PC" style="verticalLabelPosition=bottom;sketch=0;aspect=fixed;html=1;verticalAlign=top;strokeColor=none;align=center;outlineConnect=0;shape=mxgraph.citrix.thin_client;" vertex="1" parent="B4nwFfJSqXU49VAbo7aI-135">
          <mxGeometry x="150" y="20.408163265306122" width="71" height="71" as="geometry" />
        </mxCell>
        <mxCell id="B4nwFfJSqXU49VAbo7aI-121" value="PC" style="verticalLabelPosition=bottom;sketch=0;aspect=fixed;html=1;verticalAlign=top;strokeColor=none;align=center;outlineConnect=0;shape=mxgraph.citrix.thin_client;" vertex="1" parent="B4nwFfJSqXU49VAbo7aI-135">
          <mxGeometry x="270" y="19.89795918367347" width="71" height="71" as="geometry" />
        </mxCell>
        <mxCell id="B4nwFfJSqXU49VAbo7aI-122" value="PC" style="verticalLabelPosition=bottom;sketch=0;aspect=fixed;html=1;verticalAlign=top;strokeColor=none;align=center;outlineConnect=0;shape=mxgraph.citrix.thin_client;" vertex="1" parent="B4nwFfJSqXU49VAbo7aI-135">
          <mxGeometry x="390" y="19.89795918367347" width="71" height="71" as="geometry" />
        </mxCell>
        <mxCell id="B4nwFfJSqXU49VAbo7aI-123" value="PC" style="verticalLabelPosition=bottom;sketch=0;aspect=fixed;html=1;verticalAlign=top;strokeColor=none;align=center;outlineConnect=0;shape=mxgraph.citrix.thin_client;" vertex="1" parent="B4nwFfJSqXU49VAbo7aI-135">
          <mxGeometry x="31" y="126.02040816326532" width="71" height="71" as="geometry" />
        </mxCell>
        <mxCell id="B4nwFfJSqXU49VAbo7aI-124" value="PC" style="verticalLabelPosition=bottom;sketch=0;aspect=fixed;html=1;verticalAlign=top;strokeColor=none;align=center;outlineConnect=0;shape=mxgraph.citrix.thin_client;" vertex="1" parent="B4nwFfJSqXU49VAbo7aI-135">
          <mxGeometry x="150" y="126.02040816326532" width="71" height="71" as="geometry" />
        </mxCell>
        <mxCell id="B4nwFfJSqXU49VAbo7aI-125" value="PC" style="verticalLabelPosition=bottom;sketch=0;aspect=fixed;html=1;verticalAlign=top;strokeColor=none;align=center;outlineConnect=0;shape=mxgraph.citrix.thin_client;" vertex="1" parent="B4nwFfJSqXU49VAbo7aI-135">
          <mxGeometry x="270" y="125.51020408163265" width="71" height="71" as="geometry" />
        </mxCell>
        <mxCell id="B4nwFfJSqXU49VAbo7aI-126" value="PC" style="verticalLabelPosition=bottom;sketch=0;aspect=fixed;html=1;verticalAlign=top;strokeColor=none;align=center;outlineConnect=0;shape=mxgraph.citrix.thin_client;" vertex="1" parent="B4nwFfJSqXU49VAbo7aI-135">
          <mxGeometry x="390" y="125.51020408163265" width="71" height="71" as="geometry" />
        </mxCell>
        <mxCell id="B4nwFfJSqXU49VAbo7aI-127" value="PC" style="verticalLabelPosition=bottom;sketch=0;aspect=fixed;html=1;verticalAlign=top;strokeColor=none;align=center;outlineConnect=0;shape=mxgraph.citrix.thin_client;" vertex="1" parent="B4nwFfJSqXU49VAbo7aI-135">
          <mxGeometry x="35" y="238.77551020408163" width="71" height="71" as="geometry" />
        </mxCell>
        <mxCell id="B4nwFfJSqXU49VAbo7aI-128" value="PC" style="verticalLabelPosition=bottom;sketch=0;aspect=fixed;html=1;verticalAlign=top;strokeColor=none;align=center;outlineConnect=0;shape=mxgraph.citrix.thin_client;" vertex="1" parent="B4nwFfJSqXU49VAbo7aI-135">
          <mxGeometry x="154" y="238.77551020408163" width="71" height="71" as="geometry" />
        </mxCell>
        <mxCell id="B4nwFfJSqXU49VAbo7aI-129" value="PC" style="verticalLabelPosition=bottom;sketch=0;aspect=fixed;html=1;verticalAlign=top;strokeColor=none;align=center;outlineConnect=0;shape=mxgraph.citrix.thin_client;" vertex="1" parent="B4nwFfJSqXU49VAbo7aI-135">
          <mxGeometry x="274" y="238.26530612244898" width="71" height="71" as="geometry" />
        </mxCell>
        <mxCell id="B4nwFfJSqXU49VAbo7aI-130" value="PC" style="verticalLabelPosition=bottom;sketch=0;aspect=fixed;html=1;verticalAlign=top;strokeColor=none;align=center;outlineConnect=0;shape=mxgraph.citrix.thin_client;" vertex="1" parent="B4nwFfJSqXU49VAbo7aI-135">
          <mxGeometry x="394" y="238.26530612244898" width="71" height="71" as="geometry" />
        </mxCell>
        <mxCell id="B4nwFfJSqXU49VAbo7aI-131" value="PC" style="verticalLabelPosition=bottom;sketch=0;aspect=fixed;html=1;verticalAlign=top;strokeColor=none;align=center;outlineConnect=0;shape=mxgraph.citrix.thin_client;" vertex="1" parent="B4nwFfJSqXU49VAbo7aI-135">
          <mxGeometry x="40" y="350.765306122449" width="71" height="71" as="geometry" />
        </mxCell>
        <mxCell id="B4nwFfJSqXU49VAbo7aI-132" value="PC" style="verticalLabelPosition=bottom;sketch=0;aspect=fixed;html=1;verticalAlign=top;strokeColor=none;align=center;outlineConnect=0;shape=mxgraph.citrix.thin_client;" vertex="1" parent="B4nwFfJSqXU49VAbo7aI-135">
          <mxGeometry x="159" y="350.765306122449" width="71" height="71" as="geometry" />
        </mxCell>
        <mxCell id="B4nwFfJSqXU49VAbo7aI-133" value="PC" style="verticalLabelPosition=bottom;sketch=0;aspect=fixed;html=1;verticalAlign=top;strokeColor=none;align=center;outlineConnect=0;shape=mxgraph.citrix.thin_client;" vertex="1" parent="B4nwFfJSqXU49VAbo7aI-135">
          <mxGeometry x="279" y="350.2551020408163" width="71" height="71" as="geometry" />
        </mxCell>
        <mxCell id="B4nwFfJSqXU49VAbo7aI-134" value="PC" style="verticalLabelPosition=bottom;sketch=0;aspect=fixed;html=1;verticalAlign=top;strokeColor=none;align=center;outlineConnect=0;shape=mxgraph.citrix.thin_client;" vertex="1" parent="B4nwFfJSqXU49VAbo7aI-135">
          <mxGeometry x="399" y="350.2551020408163" width="71" height="71" as="geometry" />
        </mxCell>
        <mxCell id="B4nwFfJSqXU49VAbo7aI-137" value="DNS Server" style="verticalLabelPosition=bottom;sketch=0;aspect=fixed;html=1;verticalAlign=top;strokeColor=none;align=center;outlineConnect=0;shape=mxgraph.citrix.dns_server;" vertex="1" parent="1">
          <mxGeometry x="1091" y="508" width="76.5" height="92.5" as="geometry" />
        </mxCell>
        <mxCell id="B4nwFfJSqXU49VAbo7aI-138" value="Active Directory" style="verticalLabelPosition=bottom;sketch=0;aspect=fixed;html=1;verticalAlign=top;strokeColor=none;align=center;outlineConnect=0;shape=mxgraph.citrix.directory_server;" vertex="1" parent="1">
          <mxGeometry x="620.61" y="510" width="65" height="88.5" as="geometry" />
        </mxCell>
        <mxCell id="B4nwFfJSqXU49VAbo7aI-139" value="DHCP Server" style="verticalLabelPosition=bottom;sketch=0;aspect=fixed;html=1;verticalAlign=top;strokeColor=none;align=center;outlineConnect=0;shape=mxgraph.citrix.dhcp_server;" vertex="1" parent="1">
          <mxGeometry x="1210" y="780" width="76" height="90" as="geometry" />
        </mxCell>
        <mxCell id="B4nwFfJSqXU49VAbo7aI-140" value="" style="endArrow=none;dashed=1;html=1;dashPattern=1 3;strokeWidth=2;rounded=0;" edge="1" parent="1" source="B4nwFfJSqXU49VAbo7aI-64" target="B4nwFfJSqXU49VAbo7aI-141">
          <mxGeometry width="50" height="50" relative="1" as="geometry">
            <mxPoint x="380" y="551" as="sourcePoint" />
            <mxPoint x="579" y="667.5420643823154" as="targetPoint" />
          </mxGeometry>
        </mxCell>
        <mxCell id="B4nwFfJSqXU49VAbo7aI-141" value="DB" style="verticalLabelPosition=bottom;sketch=0;aspect=fixed;html=1;verticalAlign=top;strokeColor=none;align=center;outlineConnect=0;shape=mxgraph.citrix.database;" vertex="1" parent="1">
          <mxGeometry x="568.75" y="645" width="42.5" height="50" as="geometry" />
        </mxCell>
        <mxCell id="B4nwFfJSqXU49VAbo7aI-142" value="Liscence Server" style="verticalLabelPosition=bottom;sketch=0;aspect=fixed;html=1;verticalAlign=top;strokeColor=none;align=center;outlineConnect=0;shape=mxgraph.citrix.role_security;fillColor=#CCCCCC;gradientColor=#000000;gradientDirection=south;" vertex="1" parent="1">
          <mxGeometry x="471.0404000000003" y="740.9999999999995" width="38" height="38" as="geometry" />
        </mxCell>
        <mxCell id="B4nwFfJSqXU49VAbo7aI-143" value="" style="endArrow=none;dashed=1;html=1;dashPattern=1 3;strokeWidth=2;rounded=0;" edge="1" parent="1" source="B4nwFfJSqXU49VAbo7aI-138" target="B4nwFfJSqXU49VAbo7aI-86">
          <mxGeometry width="50" height="50" relative="1" as="geometry">
            <mxPoint x="800" y="660" as="sourcePoint" />
            <mxPoint x="850" y="610" as="targetPoint" />
          </mxGeometry>
        </mxCell>
        <mxCell id="B4nwFfJSqXU49VAbo7aI-144" value="" style="endArrow=none;dashed=1;html=1;dashPattern=1 3;strokeWidth=2;rounded=0;" edge="1" parent="1" source="B4nwFfJSqXU49VAbo7aI-137" target="B4nwFfJSqXU49VAbo7aI-86">
          <mxGeometry width="50" height="50" relative="1" as="geometry">
            <mxPoint x="696" y="553" as="sourcePoint" />
            <mxPoint x="1092" y="417" as="targetPoint" />
          </mxGeometry>
        </mxCell>
        <mxCell id="B4nwFfJSqXU49VAbo7aI-145" value="" style="endArrow=none;dashed=1;html=1;dashPattern=1 3;strokeWidth=2;rounded=0;" edge="1" parent="1" source="B4nwFfJSqXU49VAbo7aI-139" target="B4nwFfJSqXU49VAbo7aI-86">
          <mxGeometry width="50" height="50" relative="1" as="geometry">
            <mxPoint x="706" y="563" as="sourcePoint" />
            <mxPoint x="1102" y="427" as="targetPoint" />
          </mxGeometry>
        </mxCell>
        <mxCell id="B4nwFfJSqXU49VAbo7aI-151" style="edgeStyle=orthogonalEdgeStyle;rounded=0;orthogonalLoop=1;jettySize=auto;html=1;" edge="1" parent="1" source="B4nwFfJSqXU49VAbo7aI-149" target="B4nwFfJSqXU49VAbo7aI-86">
          <mxGeometry relative="1" as="geometry" />
        </mxCell>
        <mxCell id="B4nwFfJSqXU49VAbo7aI-154" style="edgeStyle=orthogonalEdgeStyle;rounded=0;orthogonalLoop=1;jettySize=auto;html=1;" edge="1" parent="1" source="B4nwFfJSqXU49VAbo7aI-149" target="B4nwFfJSqXU49VAbo7aI-153">
          <mxGeometry relative="1" as="geometry" />
        </mxCell>
        <mxCell id="B4nwFfJSqXU49VAbo7aI-158" style="edgeStyle=orthogonalEdgeStyle;rounded=0;orthogonalLoop=1;jettySize=auto;html=1;" edge="1" parent="1" source="B4nwFfJSqXU49VAbo7aI-149" target="B4nwFfJSqXU49VAbo7aI-157">
          <mxGeometry relative="1" as="geometry">
            <Array as="points">
              <mxPoint x="1560" y="208" />
              <mxPoint x="1560" y="370" />
            </Array>
          </mxGeometry>
        </mxCell>
        <mxCell id="B4nwFfJSqXU49VAbo7aI-149" value="Router" style="verticalLabelPosition=bottom;sketch=0;aspect=fixed;html=1;verticalAlign=top;strokeColor=none;align=center;outlineConnect=0;shape=mxgraph.citrix.router;" vertex="1" parent="1">
          <mxGeometry x="1102" y="190" width="55" height="36.5" as="geometry" />
        </mxCell>
        <mxCell id="B4nwFfJSqXU49VAbo7aI-155" style="edgeStyle=orthogonalEdgeStyle;rounded=0;orthogonalLoop=1;jettySize=auto;html=1;" edge="1" parent="1" source="B4nwFfJSqXU49VAbo7aI-153" target="B4nwFfJSqXU49VAbo7aI-102">
          <mxGeometry relative="1" as="geometry">
            <mxPoint x="2079.9999999999995" y="170" as="targetPoint" />
          </mxGeometry>
        </mxCell>
        <mxCell id="B4nwFfJSqXU49VAbo7aI-153" value="Switch" style="verticalLabelPosition=bottom;sketch=0;aspect=fixed;html=1;verticalAlign=top;strokeColor=none;align=center;outlineConnect=0;shape=mxgraph.citrix.switch;" vertex="1" parent="1">
          <mxGeometry x="1740" y="187.5" width="92" height="41.5" as="geometry" />
        </mxCell>
        <mxCell id="B4nwFfJSqXU49VAbo7aI-160" style="edgeStyle=orthogonalEdgeStyle;rounded=0;orthogonalLoop=1;jettySize=auto;html=1;entryX=0.001;entryY=0.294;entryDx=0;entryDy=0;entryPerimeter=0;" edge="1" parent="1" source="B4nwFfJSqXU49VAbo7aI-157" target="B4nwFfJSqXU49VAbo7aI-159">
          <mxGeometry relative="1" as="geometry" />
        </mxCell>
        <mxCell id="B4nwFfJSqXU49VAbo7aI-157" value="Switch" style="verticalLabelPosition=bottom;sketch=0;aspect=fixed;html=1;verticalAlign=top;strokeColor=none;align=center;outlineConnect=0;shape=mxgraph.citrix.switch;" vertex="1" parent="1">
          <mxGeometry x="1620" y="350" width="92" height="41.5" as="geometry" />
        </mxCell>
        <mxCell id="B4nwFfJSqXU49VAbo7aI-159" value="" style="rounded=0;whiteSpace=wrap;html=1;fillColor=#ffff88;strokeColor=#36393d;opacity=60;" vertex="1" parent="1">
          <mxGeometry x="1850" y="250" width="540" height="410" as="geometry" />
        </mxCell>
        <mxCell id="B4nwFfJSqXU49VAbo7aI-161" value="PC" style="verticalLabelPosition=bottom;sketch=0;aspect=fixed;html=1;verticalAlign=top;strokeColor=none;align=center;outlineConnect=0;shape=mxgraph.citrix.thin_client;" vertex="1" parent="1">
          <mxGeometry x="1880" y="287.995306122449" width="71" height="71" as="geometry" />
        </mxCell>
        <mxCell id="B4nwFfJSqXU49VAbo7aI-162" value="PC" style="verticalLabelPosition=bottom;sketch=0;aspect=fixed;html=1;verticalAlign=top;strokeColor=none;align=center;outlineConnect=0;shape=mxgraph.citrix.thin_client;" vertex="1" parent="1">
          <mxGeometry x="2010" y="287.995306122449" width="71" height="71" as="geometry" />
        </mxCell>
        <mxCell id="B4nwFfJSqXU49VAbo7aI-163" value="PC" style="verticalLabelPosition=bottom;sketch=0;aspect=fixed;html=1;verticalAlign=top;strokeColor=none;align=center;outlineConnect=0;shape=mxgraph.citrix.thin_client;" vertex="1" parent="1">
          <mxGeometry x="2130" y="287.995306122449" width="71" height="71" as="geometry" />
        </mxCell>
        <mxCell id="B4nwFfJSqXU49VAbo7aI-164" value="PC" style="verticalLabelPosition=bottom;sketch=0;aspect=fixed;html=1;verticalAlign=top;strokeColor=none;align=center;outlineConnect=0;shape=mxgraph.citrix.thin_client;" vertex="1" parent="1">
          <mxGeometry x="2260" y="287.995306122449" width="71" height="71" as="geometry" />
        </mxCell>
        <mxCell id="B4nwFfJSqXU49VAbo7aI-165" value="PC" style="verticalLabelPosition=bottom;sketch=0;aspect=fixed;html=1;verticalAlign=top;strokeColor=none;align=center;outlineConnect=0;shape=mxgraph.citrix.thin_client;" vertex="1" parent="1">
          <mxGeometry x="1880" y="399.995306122449" width="71" height="71" as="geometry" />
        </mxCell>
        <mxCell id="B4nwFfJSqXU49VAbo7aI-166" value="PC" style="verticalLabelPosition=bottom;sketch=0;aspect=fixed;html=1;verticalAlign=top;strokeColor=none;align=center;outlineConnect=0;shape=mxgraph.citrix.thin_client;" vertex="1" parent="1">
          <mxGeometry x="2010" y="399.995306122449" width="71" height="71" as="geometry" />
        </mxCell>
        <mxCell id="B4nwFfJSqXU49VAbo7aI-167" value="PC" style="verticalLabelPosition=bottom;sketch=0;aspect=fixed;html=1;verticalAlign=top;strokeColor=none;align=center;outlineConnect=0;shape=mxgraph.citrix.thin_client;" vertex="1" parent="1">
          <mxGeometry x="2130" y="399.995306122449" width="71" height="71" as="geometry" />
        </mxCell>
        <mxCell id="B4nwFfJSqXU49VAbo7aI-168" value="PC" style="verticalLabelPosition=bottom;sketch=0;aspect=fixed;html=1;verticalAlign=top;strokeColor=none;align=center;outlineConnect=0;shape=mxgraph.citrix.thin_client;" vertex="1" parent="1">
          <mxGeometry x="2260" y="399.995306122449" width="71" height="71" as="geometry" />
        </mxCell>
        <mxCell id="B4nwFfJSqXU49VAbo7aI-169" value="PC" style="verticalLabelPosition=bottom;sketch=0;aspect=fixed;html=1;verticalAlign=top;strokeColor=none;align=center;outlineConnect=0;shape=mxgraph.citrix.thin_client;" vertex="1" parent="1">
          <mxGeometry x="1894.5" y="522.9953061224489" width="71" height="71" as="geometry" />
        </mxCell>
        <mxCell id="B4nwFfJSqXU49VAbo7aI-170" value="PC" style="verticalLabelPosition=bottom;sketch=0;aspect=fixed;html=1;verticalAlign=top;strokeColor=none;align=center;outlineConnect=0;shape=mxgraph.citrix.thin_client;" vertex="1" parent="1">
          <mxGeometry x="2024.5" y="522.9953061224489" width="71" height="71" as="geometry" />
        </mxCell>
        <mxCell id="B4nwFfJSqXU49VAbo7aI-171" value="PC" style="verticalLabelPosition=bottom;sketch=0;aspect=fixed;html=1;verticalAlign=top;strokeColor=none;align=center;outlineConnect=0;shape=mxgraph.citrix.thin_client;" vertex="1" parent="1">
          <mxGeometry x="2144.5" y="522.9953061224489" width="71" height="71" as="geometry" />
        </mxCell>
        <mxCell id="B4nwFfJSqXU49VAbo7aI-172" value="PC" style="verticalLabelPosition=bottom;sketch=0;aspect=fixed;html=1;verticalAlign=top;strokeColor=none;align=center;outlineConnect=0;shape=mxgraph.citrix.thin_client;" vertex="1" parent="1">
          <mxGeometry x="2274.5" y="522.9953061224489" width="71" height="71" as="geometry" />
        </mxCell>
        <mxCell id="B4nwFfJSqXU49VAbo7aI-180" value="" style="group" vertex="1" connectable="0" parent="1">
          <mxGeometry x="730" y="700" width="65" height="85" as="geometry" />
        </mxCell>
        <mxCell id="B4nwFfJSqXU49VAbo7aI-173" value="File Storage&lt;br&gt;Server" style="verticalLabelPosition=bottom;sketch=0;aspect=fixed;html=1;verticalAlign=top;strokeColor=none;align=center;outlineConnect=0;shape=mxgraph.citrix.tower_server;" vertex="1" parent="B4nwFfJSqXU49VAbo7aI-180">
          <mxGeometry width="65" height="85" as="geometry" />
        </mxCell>
        <mxCell id="B4nwFfJSqXU49VAbo7aI-174" value="" style="verticalLabelPosition=bottom;sketch=0;aspect=fixed;html=1;verticalAlign=top;strokeColor=none;align=center;outlineConnect=0;shape=mxgraph.citrix.database;" vertex="1" parent="B4nwFfJSqXU49VAbo7aI-180">
          <mxGeometry x="39.5" y="55" width="25.5" height="30" as="geometry" />
        </mxCell>
        <mxCell id="B4nwFfJSqXU49VAbo7aI-182" value="" style="endArrow=none;dashed=1;html=1;dashPattern=1 3;strokeWidth=2;rounded=0;" edge="1" parent="1" source="B4nwFfJSqXU49VAbo7aI-173" target="B4nwFfJSqXU49VAbo7aI-86">
          <mxGeometry width="50" height="50" relative="1" as="geometry">
            <mxPoint x="940" y="720" as="sourcePoint" />
            <mxPoint x="990" y="670" as="targetPoint" />
          </mxGeometry>
        </mxCell>
        <mxCell id="B4nwFfJSqXU49VAbo7aI-183" value="" style="endArrow=none;dashed=1;html=1;dashPattern=1 3;strokeWidth=2;rounded=0;" edge="1" parent="1" source="B4nwFfJSqXU49VAbo7aI-141" target="B4nwFfJSqXU49VAbo7aI-173">
          <mxGeometry width="50" height="50" relative="1" as="geometry">
            <mxPoint x="940" y="720" as="sourcePoint" />
            <mxPoint x="990" y="670" as="targetPoint" />
          </mxGeometry>
        </mxCell>
        <mxCell id="B4nwFfJSqXU49VAbo7aI-184" value="Backup Server" style="verticalLabelPosition=bottom;sketch=0;aspect=fixed;html=1;verticalAlign=top;strokeColor=none;align=center;outlineConnect=0;shape=mxgraph.citrix.database_server;" vertex="1" parent="1">
          <mxGeometry x="1004.25" y="700" width="80" height="90" as="geometry" />
        </mxCell>
        <mxCell id="B4nwFfJSqXU49VAbo7aI-185" value="" style="endArrow=none;dashed=1;html=1;dashPattern=1 3;strokeWidth=2;rounded=0;" edge="1" parent="1" source="B4nwFfJSqXU49VAbo7aI-184" target="B4nwFfJSqXU49VAbo7aI-173">
          <mxGeometry width="50" height="50" relative="1" as="geometry">
            <mxPoint x="1000" y="730" as="sourcePoint" />
            <mxPoint x="1050" y="680" as="targetPoint" />
          </mxGeometry>
        </mxCell>
        <mxCell id="B4nwFfJSqXU49VAbo7aI-190" value="&lt;font style=&quot;font-size: 24px;&quot;&gt;&lt;b&gt;Simplified Infrastructure OrgInv Corporation&lt;/b&gt;&lt;/font&gt;" style="text;html=1;strokeColor=none;fillColor=none;align=center;verticalAlign=middle;whiteSpace=wrap;rounded=0;" vertex="1" parent="1">
          <mxGeometry x="1050" y="-430" width="592" height="30" as="geometry" />
        </mxCell>
        <mxCell id="B4nwFfJSqXU49VAbo7aI-191" value="" style="shape=image;verticalLabelPosition=bottom;labelBackgroundColor=default;verticalAlign=top;aspect=fixed;imageAspect=0;image=data:image/png,iVBORw0KGgoAAAANSUhEUgAAAfQAAAH0CAYAAADL1t+KAAAAAXNSR0IArs4c6QAAAARzQklUCAgICHwIZIgAAAAJcEhZcwAADsQAAA7EAZUrDhsAAASYaVRYdFhNTDpjb20uYWRvYmUueG1wAAAAAAA8P3hwYWNrZXQgYmVnaW49J++7vycgaWQ9J1c1TTBNcENlaGlIenJlU3pOVGN6a2M5ZCc/Pgo8eDp4bXBtZXRhIHhtbG5zOng9J2Fkb2JlOm5zOm1ldGEvJz4KPHJkZjpSREYgeG1sbnM6cmRmPSdodHRwOi8vd3d3LnczLm9yZy8xOTk5LzAyLzIyLXJkZi1zeW50YXgtbnMjJz4KCiA8cmRmOkRlc2NyaXB0aW9uIHJkZjphYm91dD0nJwogIHhtbG5zOkF0dHJpYj0naHR0cDovL25zLmF0dHJpYnV0aW9uLmNvbS9hZHMvMS4wLyc+CiAgPEF0dHJpYjpBZHM+CiAgIDxyZGY6U2VxPgogICAgPHJkZjpsaSByZGY6cGFyc2VUeXBlPSdSZXNvdXJjZSc+CiAgICAgPEF0dHJpYjpDcmVhdGVkPjIwMjMtMDktMTI8L0F0dHJpYjpDcmVhdGVkPgogICAgIDxBdHRyaWI6RXh0SWQ+NjE4MzBiYTAtZGQyMS00ODcyLTgyZjQtNWJhNjNhZGFhMjNiPC9BdHRyaWI6RXh0SWQ+CiAgICAgPEF0dHJpYjpGYklkPjUyNTI2NTkxNDE3OTU4MDwvQXR0cmliOkZiSWQ+CiAgICAgPEF0dHJpYjpUb3VjaFR5cGU+MjwvQXR0cmliOlRvdWNoVHlwZT4KICAgIDwvcmRmOmxpPgogICA8L3JkZjpTZXE+CiAgPC9BdHRyaWI6QWRzPgogPC9yZGY6RGVzY3JpcHRpb24+CgogPHJkZjpEZXNjcmlwdGlvbiByZGY6YWJvdXQ9JycKICB4bWxuczpkYz0naHR0cDovL3B1cmwub3JnL2RjL2VsZW1lbnRzLzEuMS8nPgogIDxkYzp0aXRsZT4KICAgPHJkZjpBbHQ+CiAgICA8cmRmOmxpIHhtbDpsYW5nPSd4LWRlZmF1bHQnPkJsYWNrIENsZWFuIE1pbmltYWxpc3QgTGV0dGVyIEluaXRpYWxzIE1vbm9ncmFtIExvZ28gLSAxPC9yZGY6bGk+CiAgIDwvcmRmOkFsdD4KICA8L2RjOnRpdGxlPgogPC9yZGY6RGVzY3JpcHRpb24+CgogPHJkZjpEZXNjcmlwdGlvbiByZGY6YWJvdXQ9JycKICB4bWxuczpwZGY9J2h0dHA6Ly9ucy5hZG9iZS5jb20vcGRmLzEuMy8nPgogIDxwZGY6QXV0aG9yPkxlZSBDYXN0b3VsbzwvcGRmOkF1dGhvcj4KIDwvcmRmOkRlc2NyaXB0aW9uPgoKIDxyZGY6RGVzY3JpcHRpb24gcmRmOmFib3V0PScnCiAgeG1sbnM6eG1wPSdodHRwOi8vbnMuYWRvYmUuY29tL3hhcC8xLjAvJz4KICA8eG1wOkNyZWF0b3JUb29sPkNhbnZhPC94bXA6Q3JlYXRvclRvb2w+CiA8L3JkZjpEZXNjcmlwdGlvbj4KPC9yZGY6UkRGPgo8L3g6eG1wbWV0YT4KPD94cGFja2V0IGVuZD0ncic/PmJYyDsAACAASURBVHic7J13fBR1+sc/Ib2SQhohgUCooSO9CyIKKiKIDXu582c7+5293VlPvbOeFQULAiIIAkrvvYZACOmVFNJ7+f3x2XFmd2dbSCjL8369loQtM7Ozm3m+T/s8Ls3Nzc0QBEEQBOGCpt25PgBBEARBEM4cMeiCIAiC4ASIQRcEQRAEJ0AMuiAIgiA4AWLQBUEQBMEJEIMuCIIgCE6AGHRBEARBcALEoAuCIAiCEyAGXRAEQRCcADHogiAIguAEiEEXBEEQBCdADLogCIIgOAFi0AVBEATBCRCDLgiCIAhOgBh0QRAEQXACxKALgiAIghMgBl0QBEEQnAAx6IIgCILgBIhBFwRBEAQnQAy6IAiCIDgBYtAFQRAEwQkQgy4IgiAIToAYdEEQBEFwAsSgC4IgCIITIAZdEARBEJwAMeiCIAiC4ASIQRcEQRAEJ0AMuiAIgiA4AWLQBUEQBMEJEIMuCIIgCE6AGHRBEARBcALEoAuCIAiCEyAGXRAEQRCcADHogiAIguAEiEEXBEEQBCdADLogCIIgOAFi0AVBEATBCRCDLgiCIAhOgBh0QRAEQXACxKALgiAIghMgBl0QBEEQnAAx6IIgCILgBIhBFwRBEAQnQAy6IAiCIDgBYtAFQRAEwQkQgy4IgiAIToAYdEEQBEFwAsSgC4IgCIITIAZdEARBEJwAMeiCIAiC4ASIQRcEQRAEJ0AMuiAIgiA4AWLQBUEQBMEJEIMuCIIgCE6AGHRBEARBcALEoAuCIAiCEyAGXRAEQRCcADHogiAIguAEiEEXBEEQBCdADLogCIIgOAFi0AVBEATBCRCDLgiCIAhOgBh0QRAEQXACxKALgiAIghMgBl0QBEEQnAAx6IIgCILgBIhBFwRBEAQnQAy6IAiCIDgBYtAFQRAEwQlwO9cHIAgCsGMRkHkECIkGBkzhz7NFbRWQtA2oKAb8Q4AeowAP77O3f0EQWgeX5ubm5nN9EIJwMfPzv4CUPcb3TX0AiJ/Y9vuuKgV+ehEozFDvax8O3Pw64B3Q9vsXBKH1kJC7IJxDdi81N+YAsOoDoDC97fe/6GVjYw4ApfnA6o/aft+CILQuYtAF4RxyYqflxxI2tO2+U/cDBWn6j53czRC8IAgXDmLQBeEccjrH8mMZh9t233knrD9u6rkLgnB+IwZdEM4hHj6WH6uvbdt911W37fYFQTi7iEEXhHNIcEfLj7V1UZp/iPXHg6Padv+CILQuYtAF4RzSZ7zlx/pNatt9dxtq+bGY/kBAaNvuXxCE1kUMuiCcQ3qPA+KGmd/fZSDQ99K23Xf7cGDQleb3e/sDl9/ftvsWBKH1kT50QTgPWPMxcPgP/t73UuDy/zt7+96+ENj2I3/v1Ae44iHxzgXhQkQ8dEE4D+g+XP1dz2tuS0Zer+bLR14vxlwQLlTEoAvCeYC2AK6hjavb9agu509bhXKCIJy/iEEXhPMA3yD1d8W4nk2qy/jTv8PZ37cgCK2DGHRBOA/QesblRWd33+WF/OnlB7h5nN19C4LQeohBF4TzBCXsXlV6dvdbedp4/4IgXJiIQReE8wTFSz/bIffKEv70aX929ysIQusiBl0QzhMUg6rks88WiofuG3h29ysIQusiBl0QzhOUwrizbtANHrpf8NndryAIrYsYdEE4T1AM+lnPoYtBFwSnQAy6IJwnKCHvqnMVcg+y/jxBEM5v3M71AQiCQHyUKvcS/cery/lYdTnQ3GT/dl3aUZ/dO0C/8E1pk7NVFFdWAGz4CqipoP784On2H4NCTQVQkgd0iAbcPB1/vSAIlhGDLgjnkLIC3pqbgNT96v0/PAu0a8eZ5ZWlQEUr9qZ7B3Dx4B0AuLgARZm8//g2/nR1AzrEGLexZR0Flv4LqK3i/zMTgIJ0+zXn66qBDV+revVuHsAlVwOjb2yVtyQIAmQ4iyC0OaX5QFEWPdOyU8DpXN5Xkg801p/ro7NOpz5AWCyQsF415lpufA3o2Mv2dn7+F5Cyx/z+qx4Heow88+MUBEE8dEFoNcoKDIY6j0Y7PwXIPwnUVjq+rZBOQHRfc7EXLz8Wr3n727edxgYuIipLAL2le14ykLrP8uuzjvJmiRM7bRv04mx9Yw5woSAGXRBaBzHogtAC6muA7GNAzjHDz+NAQ53117h5cJJZ+3CgfZjh9zDmriO68/EP5tITHn4dZ6W3NdVlwEd3UNTmioeAskIgoANwKg2oKQdO7mZo3RL2VOTnnrD82Olchw9ZEAQLiEEXBDuoLAGyEmi8sxOBU6mWn+vuRQ87JJq5aOV3e8aS+ncAajPOXi96URZ/BkYwIqCg/D76RiB5J/DLm/qv7xBjex/tXC0/5uFl33EKgmAbMeiCYIGsowwVn9zDsLElIroDEXFApOGnMlvcHnKTWGDWsSfz1UqIva3lX+trgD/+BxzdyP8XpPNYInuYPzduOA185hHj+738gL6X2t5X5/6WH+s+wv5jFgTBOmLQBcFATQUrzVP28lanUwQG0IB3uwToMoC/t5SlrzOkrdBzNODpox6LltwkNaTf1MQQP+wsZ3XzYJhfm3ffvIDbVKipAJa+Adz5X/UYtFz5EPDLW0CeIXweGAFMfdC+gS4+7YGR1wPbFxrfHxYLDLrCvvcgCIJtpMpduKipLAGObqAXnp2o/xx3LxrvLoOA7sNVI5aXzHByWKzj+92xCNj6vfn9fsFARTG94pGzge0/AWn7befnW4ueo4HwbkBIFOAfCgRFGPeLl+bzWPKSgYQNAJqBmP7AJVfZ7iv/7u9cRIREA/ETgYGX89wKgtA6iEEXLjrqa1idfXQDkH5I/zm+gUC3YUDcUCB2sPnjK98HEjfxd+8A4LL7LIePizJZZFaYAZxKAQozLfeVu7rrt7K5eQDhXbmACO7k+GS0gnSg1uD15yYDDbX2v9bDh0VzgRFMK5QXAQdXGz+nxyjgqsesb+fTe/m+7/nEvnoCQRAcQwy6cNGQfpA546Qd+gYtOIoKaHHD9HPJCtsXAtt+NL//hteA5kYWzJ1KAwrSrBfP2SKkE0PVPUe3fBt65CUDC57Sfyx+Iqvcs48DGRYWO5aY/RIQ09f8/twk4NgWYN8Khv7v/sjxYxYEwTZi0AWnprwQ2L8SOLJev3I8LBboOYpGs324fdv85C51oIkLAEWF1cXC813d2Z7WPozh5vBuQNoB9mBb46EFbReS/vphtcJdIbQLcOs7xvcVpDPCUJzFVEBhhuU2tOZm5unDugLdhnBhdGwL8/Vabn6DxYOCILQuYtAFpyTzCD3C5F3mjwVHAb3GAL3HAoGR9m+zupzbXfEuBVtcdCy4hzcr1pVbUEf98HJ9DfD1IxSjMaIZf64MHlts/7E5SnE2sO4LRi0AIKoXVdtsDWjJOQZ8/4x9+2g2/GN6njr2osKcIAitixh0wak4shbYuwIoNBFDCQilF95rjGNFbOmHGHpOO6AfPlf+elxcmHOfYSGUrUdtJbDlO4ak81JoxyfdA6z9jI//9UvHc+WO8tEdLHJ7aIHt5wJ87uf3qxPatEx7hBGRQ38Apaf0B8go65XxtwG9RgN+IWdy9IIgaJG2NeGCp7KEYfVDv5uH1buPAAZPY4+3PeSnABmH6blmJ5pXl0f2YCX6iR0GR1rjfY6Y6dhxe/rSgP/4HDczdAYwcKpq0Gsr296gV5c5tsBx8wCufpza7NrWusn3Ab3G8veh1/LnTy8AGUeMFz3K6drwNbB5PhA7EBh4JdBl4Jm+E0EQxKALFywlucDOJcCRdcb3u3kC/SZxmpc91dTlhZwClrDBPATuHwJ0HkjD03mg2qOdug9Y8Z6q0z7+tpb1pGccpoCNlx8w4jreFxDK4zDtRW9tFNlWRyvOO/YCbniV09lc3ShRq7eNHqNp0I1C7gYX3cUFaGoETu7lzdWNi6XB09kaKAiC44hBF845BWk0bP4hQNdL6AVaozAd2L4ISNpmfL9vEDDoSnq5euIoWupraJCObqBSm5awWLZhxQ1lEZsesYOBB74Blr1Fb92/haHjfSv4c9QctocB3FZZQdvLv1YU86dPoOOvDYnmMVtjwBRg36/GKnte/sCclxmd2LscSD/Mz7OxQR0E4+rGnP7QGez9FwTBPsSgC+eUPcuAjfPU/weEAjOeZsW1KTnHKchiOh2sQwy98fiJtveXeYQevWnrWkR3oMcI5tkd8Vg796dBzz7meHtZbRWV4ty9uBBRUPLKbS3/quTB7Z3c1hKuegyY9yh/7zkaGDdXPb8T7uDP+hpWw+//jYu7xgZ69hlHeG76jAfG3sxFgCAIlhGDLpwzTqUaG3OAnumil4Fb3lK93rQDwM7F5mM8w2KBEbNth2jrqlkst38Vw/QK/h2A+AlAv8ktFzqJMeiUn0px/LXpB/jTNL/va/CYlda4tqLcIG7jF9x2+ygr5M8+4znNTQ93L34G/SZzkZO4kTURxTk09gdX8xbRDRh1IxArXrsg6CIGXThnaLXEtVSVMlQbP5EFYqaGPLwbZVG7DbW+/eJsGoaEDTQMCr3GAn0nAp0HnNHhAwCCIunhZh9jAZ2tdIGWwgz+jI43vl+Rlq1qY4OueOh+Jq1q9TWc494SRTpTFCU+e0Pnnj7AwCt4qywBtswHErdQPS/vJLDkVbYGxk8Ehl7DRZkgCEQM+kVOXRVwdBPDnFE9z2zYiKMoBWV6HP6D4XgtEd2BUdfrS7FqSdoOHFhlPB0sLJYeYO9xtvPrjtJ5IHBsMxXY7K2mB9jaBZiLrHh482dBBueFVxQxylBbxZ91Vfy87MHVjdtz9+JPTx/ApZ1h//n8qTXaJ3cDqz5QC/Ji+rE/3cvP/velJctQn9DtEsdf6xsIXP4Ab0fWAtsWsoCxrpoLtf0rKYc7bq4aKRGEixkx6BcxZQXAt48bV1NHxAHXPNW2Ydg/92Vl8VBTpbY4hXejIe9qxSjUVrLA7MBq1bP19AF6jwcGXAZ06Nxqh21GF4NBzznumEFXqsxT9/O4q0vplSpFZBmHgC8faP3jNWXt5zxX3gFcDGnJOMwBMRPvcHy7tVVMq0T2UBcpLaXvJN4yjwC7lgBpBkGc/BTgpxeBwI7ApXfaXuwJgjMjBv0ipanB3JgD9DK/+ztwwytAQFjbHkNMP3rOeoItLuAwkDE3WS82q6kAdi9lQZUSVg+OAoZMB/pPaZPDNiPSsDDJOgoMu9b88epyjh3NPcE0Q0kebwq7l6q/e/nR68w35OQHXqEWrfkFUXnOERobKN+qnJvGBn7GzY3cR121bb35ltQHAKoWfGvmvKP78laazwXcwTUMx5fkAkteow79xLsoOysIFxti0C9SirIs9zmXFwKrPgSuf6ntj2PELODXdzjjW0u/ScCU+y2/rvI0Q/IHVqniLzH9gSHTrHvybUFwFFvOco4x91ycTf3zgnQOaTGdrObpw7x5cTY98pGzabiV0HdZAfDZX/i8SXfb3n95EYsLq0oYYRkxS22BAyyLtnzzKMP+D87n/xM2AKv+a/48e2ae65FznD/bwmtuHw5MvBMYfQNweC2wYwlQU8YivKVvcPEzbi6L8VqT3CR1EdFztCwchPMLMegXKbZESzKP0BC1lTRnQx2Hduz71XBHM9DOMMTkdA5QWar/utJ8tq5pxWTihgOj57RtWN0S1WVAyl7Ay5eGeP6Txo+Hd2UVvpcf4BMARPVWW/KUlj03T+M8tlJxX1tle/9VpdynkmbITGBXwK3/tu+1wVHq/+MnMFpQlGn8PL2ogz1kHOZioC0HsXj4AEOu4u3oRmDjNzwXlaeB394H1n8FTLjNvpZGa9TXUKZX0Q0A2Go3bi775QXhfEAM+kWKPXKfhZltY9DTDgC/f2Ksytb/cmDMjZxM9vn9QMoeYNO3NH6d+zFsvf0n4PhW9TXdhlLcxBHpUkvUVTMknneCXmtFMY8loANFVDr1ofGrKuViJ/sYpWFNw9UdYlhF37EHf7fm3cYOokE/ucfcaHoHcLFQV2XsbZtycI15NXxBOqVrbVXxV5YAkT2N75v1HLD4VbUCf/qjLTPItZU8N63tIVujz3jejm0GNsyjUa8pZ5Hflu/4XqJ6t2zbaz/Xn4636VsK6Fj7jAThbCEG/SLF05c65yd2WH6OIy1Y9lBdBqz7khdcBf8Q9idHa+ZoR/UGknequWVPX8qEKnngzv2BMTe3judXVsAiq4NrbD+3nSuPQzsRLbQzjz2yB6ewhXYGhtup6R4SzdBxzjFGHrTjWwNCeb6qy60bC0tqcvU68971XudrohLnFwLc9q7tY7eFo+1qrUmvsbwd30rN+Ipi3n54lgvEKx9yLJrTUGd91G1RFj9/QTjXiEG/iJlwO42JJQGTgDPo8S1IB9zc1SKuhA3A+i+NW9UGTmXIUjvzu6KYxlyL8pqOvah33lo52cRNwMr31f+Hd6NBDowEfNuzGCztAHDaUMDW1Mifrh402pdcbXzsm74Fso87dgwDpvB1e5ZxUIuCfwjz8TUV1ue0dx/O9i0tXn6UTrWGknIxNeithWLQuw5pm+3bQ8/RvB1aA2z8ltGOgjTg60epzT/pbvvG59oqCmysb5XDFYQzRgz6RUxAKHD9y8AvbxjrbSus/hiY/YJj26woBpa/w4UCQOGPgFCGp7X7vfIRfaNjqquupffY1jPmW76j+hxAD3vcXCCkEyVhj22mIVfw78Dwfkg0kLafvdrbfqSh1YaUY/py4VJZYr+hHHQFIxGH1wIDLmeYHlDnktuSf43uC0y+l++npoLRjJnP2C5kUxZxLdWgt0XGYdYPtHbPf0voP4X6A7uWALuWcmGWdgD4/P+AwVfys3fztPx67aLNFC+/tq0REARHEIN+kRMcBdzxH+as807y4uUTwLxjxiF6j+Pm2r+9pf9SW64AVsyXF6r/H6RcQHXC+fU15pPTTB9vDXYtUY35pLuZH9//G5C4Wd2HTyDQcxQXEdpw6sDLuTj5+Z/Ab//h8wdczsei+9Gg5xy3f2KYmyertVe+z23e/AYL5HwMBtmeiWsDLmduf9uPnIKmLAqsoQxm8Q2y/ryWUFbANrJhDo6TbahjmDwniSmI0ny29/kEAL7BjKDEXcK5847i7gWMvonfv7Wfs9/exQXY9xuQsBG44gEWV+oR2oWLOu33WGHYTOuLgbagrIDnRpumEgRADLpgoOsl5u1eqz6g9xjZwz4DVZJrbMy1tHPllK2OFkLB2ceAle+Zjy/VojewxVHSD7K6HmB7V8IGXuABerf9JgG9xlhXHovqTcO58EXgj//xYt91iCrhmn3UsRGgvccxQrJjETD/CWDms+oENEf13Nu52vc8xTi1ZNKaLf7MnzsgrbtzMb9repX9VWW8FaRRMQ7tgOg+XIxZmoZnCZ9AKt8VpAEr3geKMhiK/+VN6glc/aS5qFJ1GVg3YbKdCbdzwXe2SNnLRVv+Sf6/Q2dgxlPWUzLCxYXriy+++OK5Pgjh/CMs1lD5ncQQc9ww27reJfmUbNWjuZkzw00989oqYMNXwNr/8fe4YVQEyzoKNGt60739gcv+cmbvqb6GhVENdYCbG6d5VRTTGI+/DZj6AEPr9lwgfQKZnz22BUjdy3oA7wCG6ytLHBe1ielHw5J2kFEKTx/WIdRW0dBYM7xKR0BjPT+vLgOtTyY7ncOOgcrTlMNtbVXA3UvpQVrTEVAozAC+f4Yec2M9OwuUz93Th++ly0CgQzRQV2OIWDQDZac4bCf/JEPejk6M8w3kZxbSiQuQxnp+F/atABob+XnkpwCns1lYdyqVHvzke9mmNm4u6y3OFofWACveU/X3AUZlDq4B+k+2nhYQLh5cmpubm20/TbhY+eEZes8BocDct61reu9dxnYhSzzwjbGhOb6VhXKVJTT0E+9QDWFJLrB3hRpeLMoErnvOskiKLZK2A5u+YUtaczNV6PpeSoN2JoVhSduB5W+r/cirP6RBfvg7x0OxuUnA5vn6dQQT7wQGTzO/vygT+PoR4/uCIoE7P9DfR+JmRkIUPH2Bez5u3dGk/72FUZ1Zz1t/Xuo+zpNvqGPqR6nj6D6cbXx60sD1NcChP4AdP9G4NzcD7p4c03omgkIbv+H3t7kZf2oiNGn08t08gPu/OjeGM+c48P0/LD9+ydVckAqCGHTBKtVlwDePU2Qmqhdww2v6z1v2JnBip/5jAC/ON7/O30tygd//p0qDDrqSFyVLI0xzkyhHGxgB3PWhY8d/cA1z5tpQ/tibgGHXObYda3zxAFBfDfzlC4aEV38ETHuErVP2YjoXXtMZ9ye9x9FD00YuinOMvTaFiDga6Yg4DmhR2P2LeS3CqBuoVtcaZCcyCjL2FuuCNCd20Ji7eVBMqCiLn/+0vwEde1p+nZZf3wGOb8OfJ+vSu4znyjtKaT6w5J9AcZb+43d+wMXS2WbRy0wVWSJuGOcvCIKE3AWruHsyF3p0IwuUaiqMK82Lc4CvHjLOnQeEGudCfYPoQfkGsp936esMZfoGAdf+naFPax6ifwhQmE5PxdOXoi3WqK1i2Hf520DSNv6/x0gaDZ9AYMbTLTsXlqgpA1L2MYd+KpXpghM7eLzdLrHez19XzYrr1SYLFReYG/TCdEYYygrUm6VCwYpiGqjsRHr8yq1JZ0pb5hFWpRdlMozb2EDlu3aGhcCB34Afnwe2fs/ndB1svEjQkrCe+xl/q+WCu9J81h80N3FEa1EmCxPnvOqYwewxiuegIA1AM4fcxPRr+Wx7Lz8uLrQ6CVr8Q2y3A7YFv/3H+uPdhrbOKGDhwkeK4gSbdIihytbP/1RHVsZPZO526Ruqx9jOFZj+GEOmpfm8wLp78oLj6sYcoHKxjJ/I6Vj2KmyNm8sIwLYfKFHq4gIc+h3ISgTCujAc7dIO2PMLsG8lDZ2rOxcLw2YyvJu0HehlZdBLSwnuxJ/L36FBdDFY4vSDwLovKJwDMKRckstjzjnOXHaVBYlbwLgOq/c4Fux5+por4y1/W52S5ubB8Hz/y9THG2rZwdDcxHN2bIv5vrITjVsLAS7AvANU1TiA+3F1B6582Pi5BelMaeSf5GQ1a+p9az9nzjpuGJC8iwb4mqda1uI2+V4Om1Hkale+T2GclrbLnc61/FhBumPbOrGTizAvP6Z3WhKuV+YUWMORAkzBuZGQu2A32rBw7BAWgyl4+wN3faR/IS3MYBVxSS4v9lP+an2CmiV2L2Xx19AZrPjVao57+NBg1dfQqPWbDAy/Ts2P//E/4OBqYOqDXBC0Fg11DLkbDWDRxMvdPIGQKMvV/xFxzDcnbTOuaHd1pwGoKQfG3QoMvcb6cfz+KQunbnvXdtvaxnn8LD18gHG3sO2trIARmOJsGqHCDLUoz8U0VACgU2+26cUN43F++7hxtOCy+/QLAyuKgE/vpUeZc5yvueVNtqS1lLxkYMFTjCg0NahFay0hZS8Xrpboeylw+f9Z30Z1ORdZmUfU+9qHU9PB0Yr0umqerzoLuv59xqsLRkEQD12wm0uu5sXz+FZjYx4RB8x5RT+0vHMxRU+U5131eMtDokNnsCBq73JVtU2hropGcMzNhhC+ycJCUZsLimjZvi2RftB8mpo2Vt5QS2Pu4c3ccMeeNOCB4cYqZWNuBHYs5vS4jj2AkXOY+0/ZyzCyNcqLgHJDjcCRdWynssaQq2jQh1+r9tAHhPJmuq/N84FdP5tvIyuRt20LATSbG/2dS/QN+tGN/OkfYujhn3Jmxhzg96rbUHZjeHix06KlBt2Wst2RdUxPzH6RNR16/Pa+sTEHGLFa8R5w07/sP5aGWubPLRnz2EFizAVjxKALdlNfA2SZVGAPuJxhT1MqS+ilKGHcUXOAkdef+TFMvIMeVLOOEQnpZFlHva6aP13anfkxKKQdAI5u0n+sGUw3jLmJRtJWi5OHD42QYohK8tTxo/OfYLHXpXeZv64kl/lopa9873LWOUx9QH8/RzeyDQsADv7Onntrc+/H3sK6AEU5zzeQn2VJHpB+mJ68UV7eEJ0oK6C0bucBbHfc9iOwfaH6tJN7+HPI1Zb37Qi9x9Kg+wYzlZG6r2WqgsoxKufEw4v1F0OuYnvl4bV8b18+wELP3CQ+L34i++JrKphq0iM3id9DD2/7juXn1/kaNw9DauEkFwYde/I7ZW/xoHDxIAZdsIuCdIY1TXWr9fKK6Yc4qKS6jDnYqx8HOsW3znF0HcKQsjavq2BtkpYihWrPSFJLNNTSEJ3cQy9Nr7oc4IW2KItKXkOmO7aP6jIWGq7+0Fglbv9KFtvVVTPvbk01L2G9+TAR3yB64IoBAtjL/dt/aaAj4izneK97jvsuK9CfnrZ/BYfumC6yVr5H++4XAlQWm7zPUgAuXJC0RuW40s6oeLPJuxw36EWZXHi4eQI3/dO8qG/K/UB4HLD2M6Z3co/jz2hMwnp+XtraBT3sFf5Z/rbaBXLNU3x/ZzoCVnB+xKALNkneCSx7WyP44Qvc9m/gu39Qs33BU/RGw7vx5/af+LywWOqKt7a86PRHzXuvvf2ZM7eEEh4tyQXgYC/7iR30NlP2qQsaN096br3HARHd6PnuWc7jmPU8jy95J43a2FuoJqfldC6PpTCDHmVxNhcB1qRePbyYs1ZoH8YFyvovTZ7nTY/SFNPoCkBDvdCg1+/hw4LHsFj2hYd0ohKblx+r0C0xaBo/4+XvcKhNaCy99lPprAEwNeYA/jSEaz8H7v7I8rbtxdOXYfzyIhZgluQ7vo3VhuOYeLvl7+yAKRzWcnCNunhxARcuJ3cDA6wYdDdP5tdt6ecvfd2QPvAGrn5CKtgF+xGDLlhFmwMHeKG7+yOGAcfcBKz6L/PqgLEgiqUQcWsQEs2q9n0rGGoNjKRaljWBmNhBbLvKTAAGXmF7H/kpBk93g+r1efmxoC5umLn3N2wmDfLRjSwQU/reEzdTmzxuGMPUJbl8HsBFxbxTvgAAIABJREFURmAEw7vdhgKDp1O3vFO8WuSmZdK9+qH7wgxjhb7J9+lLkmYfo1CQlh4jeSvNB2qr+VkeWGUcifEOoHEP7kSD32WgcR1E1lFVg3/ao8Ya4zUV1PfPPmZyMIbQfGk+W+xaQ63OwwdAEcPulqInlti9lNGLuGG2Vf7KC40jEdqqYg8ffkZ6kauGWp6LGX+3bNR//TeNubsXByeFd3XsfQgXN2LQLxDqa3ixdWln3VtqTX55AzixS63xCowE7tIokKVZyBUGR7WdMVcYdQON5alUTm6zRXg3Hn/SdhpVvbGZDbV8v4fW0EgpdB9OkZgeI42fv+ZjGlLvAFY/KwVfpq1PpflcHIR2BjoPBCbexZnu1rjsPnqa+1cyxTD+Nst5+Cl/Zeve2s9ZnGjp+xHVi4///gkjAmNu4sLIUqi9NJ/vJTuR50O7wAiO4jmtr2F4WyEzwdige/mxs2D+k8ajc//8UjVzkTH6RkY7zgTFyHp5A5VW2gFNyUtm94RvIHDFg7afrz1fincOMOXgGwjMeoEpkxRD4aii8Z+ZwO/rgidprIOjjLe79jMWnLp5UCtBjLngKGLQLwByjlHvWsHLjwVmelKgrcWil5gLV667obHArW8bP6cw0+xlAGgsaitbV07UFE9Dy9Xqj1io1G+S7dfET6CX/sUDvJgOmEKvOO0AvaLj2wyDOMDBF/0m0dPVG0X6x/9Ur7i6DNj9M8yVYDTtaze86vggkWEzaNCjetmWvFUkeQNttEV16sMqe1c36ykKgC1W7cON952dyBx/YTpHzZpW+G9fyGiIdkJdYIQ6lzy4o0Hi1YVefmUJxXJWvs9z2nciMOJ6x7XZAbXtr7HRsTTPGkOo/YqH7dNFGDhV7fv/0zs31A8seoUpoWt1pFoVNcXKEqY5rnlSPU8bvmZkxN2LaaqztWgXnAsx6Oc5laeNjTnAMOb6L3lxverx1t/n9/9QK6wBzvme/ZL589pZqRhv1FEka236TmIuc8t3FIyxJdxRkKb+XpwNrP+KLVmKIVD03XuOtu0dmVUy6/RqK/dN+avjxhxgMRngmLfp6m77OeVF6rYdJaq3Wnw48nrgQx0N8e/+zkVAzzFcKCUbJIH9OwBlhYBfB+C+/6nPP7qRqZ3ibIoC7VvBfYy71f5K7oZaLqzcPPh52jtadPtPDI/3nWQ7aqIQ3ZftYuu/5N9il4HsFti5hPUQC55i7rv7COPXXf2kKq5UeZrn6arH+V06spbPmf6oGHOh5YhBP8/ZscjyY0nb2aakVwDVUhY8DeSdUP/fczQvMqbs/oXhQz3cPGxPZmstJt3DC+imb/m7NTIOm99XWUIRGkf7oYMiWSWuxS9YnTMeGMmF0KHfzyyU7O1vqAi3E3sMenWZdSU3e/HyozbBnmXqfZE9WD+RsB5YbTIgprwQQDNQ244efgdDCqHPeN6KsxlxyTnGnPt3fwf8goDRNwD9bFSPKyNbI7sztB3U0fbx56dQedA3iIVwjqAcs5buw4Ff31WHzuhpy097hIWDe3/l/5drol5XPGS7D14QrNGKXblCW1BuKlpigra390z54VljYz7wCn1jvv4rynwCnFFuOlWsoU69YFli/ZfAZ39hP+/OxS0/5og4XlgPrLIuzVlXrV9BPukeetCOiptMe4RtRB4+NGzTHwXu+wwYezMfHzcX6DOBvytFgy3BN4izwG1RZ2hjMxXc0aOiqPVGpo6/jR6qfwg1AmY9xzTFrOctD6epr+F0M1OCo4AbX+NUs36TmRaoLAHWfAJ8cCuV/iyxbyV/ehsWkj1H2T52RSP9SjtD7bbw8GG4XGlVXPeF+neiZcId5mpzegsEQXAUGc5ynlOUaVygZUpjPcPEZ5qvXviicVvTwCsolGHKsjfVHudhM9lj3n8yW6gGXs6LedoBQx/wIP1q3rWfAft/Y8tVTQU959O5QI8R5s+1h4huXEAUpjO0rd1nVSkV2Fa8a95D36EzMNWCjGf6QYZBdyzm+z22hX3BeclAUxML1OKGUchm2LWq3GpUb3qsvu3pme9cTG/e3jBqTQXz5hmHAFdXtYivOJtiInpqfAdWMf8MMK/fZSAN4Y/P06hkJzJaUFcFrPuc1dy+gfYZPXtY9wVDzqPmGEcIaisZcjfCkIYoyQNgGGNrquqn6P8PvYZtb/mpQGMd+/8P/c50SPswnqujG5k2SdnLkH5JLtA+lEV21tg4j8d2ydWMzrQmXQZxIZayl6mr8kLjdkOAE91O7FD/X5DO92VaKCcIjiBa7uc5lSXA53+1PqTh3k/N+5wd4ZfXgWTNhXfoNcxfmqIdAjL5XlU21JTMIyz68Q0EbnvPvMDpv3P15SwfnG+/ipYp2hGTvkEMX+afBPb9asipxrMyPjCcxW8bvmbB19QHuCBw8+Q53reCaQxlaEpUbxpvLz9enPNTaKh8g1jAdck15jPiF7/Cfd76DvDjczRQM5+1733M+5sqmuPSDmhuxJ9GMKo3i+u01FbSe9XSYxQXN8p8cYAFaKZRiv6X0RMO6aRff1BTwWMJ7Wx5wajMY5/5LBdwpvz2H7X6X1skGNpFrWmI6U/v3pIGfXUZP5d9K1TFv8AIGvsaTeW8TyBQVWJZR16hIB345lGmHea+bfl5Z0rmEeDnfzEi0fUSGuzsY5xkp/wd9RzNhYXy9z3jaS5mBKElSA79PMc3kOG5Fe9afo618Zy2WPFvE2NuYbDFr/9WL0KX/x+jApaI7stQ7MZ59OjnvGL8uCVt6obalhn0vGTjedGVp1mlD/Aib3qBH3IVRWIyDtHgAryIZibw2ALCqIceP9HcWANMS+xbwSKopB3Ajf80XrTE9GeotaaCi4bjWykbOvJ6c8OYc8wgMpNHA6BVwGtuAppd1Hq7/JPmx6KnGFdfYz7FTTsPXuHQ77wBLJIL6USjGtoZKC0Atv/IxwJCqRan5z2mGc57Jwsqfa5uDEW3D6Uh7T6CC8bIHgz9H1nPHvZ5f2OIfsg0Sqpq8Q6gxz36RhZA7lpi8PBNqDoNwMV2tOr3T/jz6iesP+9Mie7LgSyLXuFkwpQ9xo8Pv46tgxmHgSWvMYK09HXqxNvS7xcEPSTkfgHQIYYeZtIO/XnWKfsY8nTUsK/6L3u5FUbdwCEh1p53xUP2SVB27EnDemIn+5mVEY/vWGiV8g8BRsx27PgVjm9Ttca1DJzKnKa2hQqgwVv/lfG5PJ1DYzPxDhYzdexp+Xz6hfC5kd1pjFL28Jwosp7unmzRSjvIXv2mRoa5k3exaO7IWobl13zM1xdlsuUpKMq4hgEwLp7vdon5lDoPH75WEfUJCAMm300PWBvunnA7vfDiLPW+Sffw/HQZyLB3VSnTLgkbjNMvtVXA8S2MAvkF87w01DEVcXC1ocVvsv65Wvk+z1XaAUYOrn5cTYl4+DAV0Xcit3lyF89LU5NlgxbTj+2EKXvMayKawXNReZpV63rsXc7zP2KWeRV6W+AfAhxcpUYWtITFUqCofTi/b0nb+F1J2s6Z862tsCg4P+KhXyBE9wXu+pDhy/oa5hAVVa+iTHqa0x+jl2UPaz/jhVth9I28yJmi9M4C+q041rjsL6p6WlRvelqevgwTK+FRgIbGHnEYS7jpVHb7h1iues84rO/ZXn6/Y4ui2MHA9S+xyn7hC+okrX0r+LPA0AWgaJwXZ/NchnflAmf0DSzG00YBYgdRtcw7gEVSp1KpLz5qDvO9eoy8nkbht/8A93zM+yK60/ieSqHRjOrNyMRPLzEyMekeLngAdQqcQl018PFdjJgoVJczStTczCiKl586EMajkMWbpvUSybu4LaW9URvVaahjDvnYVnPPdecipkoGTOECJiLO+HG/EGD4LC40tSiLH+0YWi2nUplqCYu1nWNvLfKSLRe2aqMxMf1YSLjoZZ73n14Ebn7D8kQ3QdBDDPoFhG+g8Vzs+In0xH7/hBeH+U9SrMKWCMn+lVwIKIy4ztyYN9RRKS7tAPPLM/9hf2+vlml/A75+WA1z+gTyQhXSidturOfFzMeKbKsl6mto7LRtUwphOn3keScYYj681vyxnqNblrqIiGMeftUHvHn6mg9GcQGAZkq6mqYfTIkdbCwr6xvI9xgSbb3PXu/YYweZ57W7DuZ3RTHmenh4s/L7j0/ptYd2YdTCxYWfWcIGGnOl+KauiuIs0/5mvDg58BuNb+oBepvKsWz9nrr3DbWMLM15hQsSZUGw7C0uBvYs4y1+IgsPtSF/7ftSjkNRiqssZXpC27nQUAv88ibP4TVPWX7vrY01bX7T1s6o3kxt/PgcX/fTi8DNr7fsb0O4OBGDfoHT/zLqf//yJi9ai1+hp2kp5Ji6l1XJCsNmAKNvMn5OQx1HlGYcpqGY9TzVylqCtz+9RWVy1KV3qh7XmYQ8k3cCf3zG8GpUb2D8rUA7NxqX/b/R+/vpJS4WAjrQ61Uqia/9O/W+tyyg11ZVCgyyQ99dj/wU3gAacqW3WouXP89pSwyJcjE3zYmbYu9ipKIY8LejZa37cN5K8oy9xKjeLIb89B7jdEDaAYrM+IUA3r5ATRWNfvtwplyUfmylSK5zf2DinfqCO1c/wZGxTY1A95H01hPWc0HZPlwVYQGYispMoPGuLuM+66uBb5+kMmBkd2omKJoBUx8w1qF3FCVicnI3FyDTHwU6WvnbsPa5lJ4yH6faqQ8FaJa9ybqHhS+wRqMtVRcF50Fy6E5AcCd65ck7aThO7mbBkWm17Ols4Ptn8adL0/dS4FKT1rS6ahpCZY75zGda5pkDDDUueZXbio7nBSovmfvVC5PbQ10VR35u/YEe+pibeJH2D6EISfswGpdTqTQkGYcZ5m4fDkx7GBhzM0VH/IIY0m4fypxlc7N5a5Elco6zTW7Nx8CeX+hFh3ZmemHOK0BoDN9nfS2FQsbdSoN0yVW21exM8fSl1kCHGOtTt8oLaShHzbG+vSPrGHHpNca+/esVBXp4M8KiFEnG9GNthUs7LprKCtTCR0W/vayAKZaDa7ggmP6YdfGhsK4UVRoyXe3ZPrnbWMFQ2S4A/OVzPnfgFTz3ZadYRZ+6z1hDPrK79TG71sg5zvTK6Rz+v66a9Ru9xuifp1OpwOJXzdslAX6upXmsVeg91nisakgnbi9tPxcpGYf5XbV39Kq91Fbye7zpGy7yj6zje4vqdWaFtsK5Qwy6k+DfgQYpZQ+LmE6l8oLWZSD/OKvLgC8fVgvBOg9kgZIpv7zJamt3L+CGV1o+x/xUKrDwOV4ghs1kCDe4Iy8apafMB53YgzLqMzeJleTXv2i+aKkuo7ymKbe+o19fEBLNBUDKXoahLRncuiqGmld/xN7ypgYuTK54mH34QZEshOs5Sq3kTtjAgry+l7IivmNP+2sctBxczUWDUlioR1kB92fLoO9ZxtD1mSqStQ/je5p0N/PxAaH8LAIjWNxlRDMXNznHGTma8hfb2/cLpiRqeRG/K9F9uVjQ5p21dIg2pCU8GaIP78YFblOT8fNqK21PU7PErp/NRYKaGnisphGswnTgh+f4vek9jkJEfsH8jl3+V7axHd3Iv4W8ZHNRmcgefG1uEqMq+SdbV3imMIM6BScMevxNjTw3ecmMeFgqchTOb0QpzokIjgJueVMNASbv4ijPwgzgq0fUIqcOnanoZcq6L+jRePiw2Mu0OtxeUvdRda62ihcyRT2t11i26hzfyhC4I2ycp+YWJ93DdqCAMPPnHd1kfp9vkPVhH2MMKQc9JbJjWxhl+O9cVsbH9OP42FveYoufMrJV8dC0LXlxw2jE3L14LpWoh6O4e/GCXmWh2AtQx5ea5u+1FKQxhG4q5NISFKlV06r7rkOYc1doBoxGkiWsZ+W7XlGiKdHxxpX6urUhhu2ajmftdomFbgw9zX07sZT2qK81/n91GVvV6qq4GLnyYUZYRszi/5W58zOfoRBP+kFg4fPm251wBxBnWMSlHTCWiT0T6qr4nTaVLlbITbIs6yyc30gO3cnwDqB85uYF7NctK2CPr4JvEHDbv81ft38lb67uwIynzCuL7eXQ7yyA8/Cm2Iiphz/mJlblb/qWHpUtT7EgHfj1HVaIh8UyVBukM/q0rIBqaan7GH7XVhbbigbE9OP73bWU0YmI7gzL71jEi17XIQwpdx9u2YNXprRpQ5VdhzD/W1fF3GjmEevHodBQR8+tupQqaaX5vP/Lh9jiVZTFMG5BunnR1aoPDFO7NHK87l70oJVCyINr+B7tTTHokX6QC0PTSXRuHqy6X/Ymz+HpbMDNi4vJPuPZc39sM5C4iefk0ruMFwBagqN4LipLVGW7Pz41FllS+vRT99H71Wq4x/Tje9WSdxLY+p153Yg9xA5S0wxatOe6qpRRpMrT/N5ZG54U3ZdGfclr9IpX/ZejZrVMe4Sa9gVp3PfmBeoCuaUcXmtbUrryNIBW0PsXzi5i0J2UsTczT6wtgHNpR+/SlPSD6vOuebLlOfMdi1jB7B/CmdCWZCyn/Y0V+b/+W6141+PwWrbXNdaz5WrC7frP27OMgiMBoYwsRPdleD7nOC/0iZsYitbLcyq4tKPRyUzgzcsPGDmb4VK98amm5Br6x7VRjc79uUDKOmoozlrKaImiiKbMuC8rZFj1lKHATjHgptRWMqwe1ZvbUxZL+35lNETBw1vNE9dW0Rj8qdYGLgJ+eYO/+3fgLTiKYeuwWNZk+NqorE47CMRZUDRL3glE9QGyjzIqM2oO8OWDNOidB7AFbst8isp88xgjLRNvA+JMiiSVqIqSg967nMa8U7zaJx8SxXORfoj7mPogn1OUyQiVbxALRwF6ublJ/J6mH2Ju/sROVsfHT7A9ga7vJGpBpO4zvn/Tt/zOR/dlGPt0Dt/rFQ9Z3x7ARce1f2e7WsIGLpK07YluHsB1zzLSVlnCRXpEtzMrKM09Yfs5IkF7YSIG3YlxMQkvNjfR+Glb1MqLgGWGUN7VTxi3TDnC+q9oWHwDOWpVz4tWcPOgZ/Lt4wz9zX3b3Niu/ojVzF5+nC2tN9qyKItV04UZzFlre4s79eGtc38uHnYssrwgyDnGC72WzgM4K91eEjfRmJt68NHxwP5VqqDLvL9RYKWiSC3wcvcCwrrQu+w/mZPagiLpuWolbQF6qZPvM95HUEdgpaFuILQLK69NFyELnjLO/w6dwRB2YQaPrTiHRVjKtDhPXxb6hXbhxT0ijrfKEiD3ODXT9aReG+poJHuOokHvN5leOaBWy3v7A5f9lSHlPctZWPjLWzzmkbOAQdP4PEXWtZ0rF1t7f+V3p9RQeX/Xh+p+ayoYGTLtTe8yUK0rGDWHefDNC2jUvtZoH+xYZF+aaeYz/Nwa67lYKMrkd3WFQeK4upy1BPYYc4XOA1jxv/5LppaCOzLHruAbxGjXtwZvf+X7wNzolhtdVxtXfaWbQLjwEIPupOSdANZqvHPfYKCymB50SR4rwwGu+OuqGK5s6ar/j/8ZCreCWOVtzZgrBIQyt7jkNRrc4I4sZAoIA/avYDg5Io6LDD2d+m0/cJZ11yF8jqVWpPBuNF67lwKDrzTOu5cVsAVJL+9srQDNlJxjvMjPfIaGeucSXuhjBwG5yUCtSVg8aRtFU0bMYtrBWhvVjKfpuVWepmHb+j0XAOM1c8h7jwXcPYDfPmDxn5ZTqTR0p3Opv19ZwoiIkvs2VWRTvNusRBr4xE3GYX13LzX/XVZofrwpe/n46Wy+r5h+vA8AGk1UDt29GAUZORtI3ABs/g5Y9yWw5Qdg7E1MOwAsJtu+kGmNbsOoKKeI+Ch4+dGImobE0w7wc1bO8bBrGVn45nHj6vOGOn5uM542f0+maEV4gqN4fN/9ncbcP8S+bZgyeBojNAkbgOXvADe8xjy7QlgscNVjfKyhjn83c992vB6ioU5fBlghMIIRNOHCRKrcnZQvHlBHaXYbBtzyBr1xpfo95zgvEqsNXs60R9gv7Si/f8Lq7sAIDg4JdGBlHxTJvG5FMRcZWUdZBFVVygvclY+YF7MVZjBHmbSd+deJd9ru0Q3vxilk2YkcRdrUyEXDqg8BDy9g8j30qqrL2Irk6aMueGxRX0P97Yg4Q2j5IebKywroWeu1LPUYBVzxIN+/rWNv58oQa3RfRhzCu3IC3J5l7LcOCKUxqyzhORl2LY8paTvTEBu/5oJo1vP0BKP7Wh6CouzPLxjo2INh42HXUmo1rCuHoZTkqs89uZspAi9fdRG3aT5TPVmJwICpamRl/28UtbG02AvtwrRKTD9OVTu+lQsld2+ex+NbWUxWUcgFjJ4wTjtX1oGYDjLq3M84t+4dwKiEUjGvKPm5eVgeOGSNTd+q26qr5veoJV0EccP5XktPMcrRY6Rx5CokmlG2rKNMvxSkMSVkL6dzgJ9e0J8JALBz5LpnrbcTCuc3YtCdkC8eUCty24ep3kzcUPZ/Zxxmnlap6o7uy4upo6z+kHnuwEgW4iXv5sUtJwkIj7U9Y1qZhmbK2FtYPGfad7tnGXO/7p7A9S/bX9Tl5gEc3UDjk3GIXlA7Vxry0TfSyHSIYVW0uyeNYXQ8z5016qoYEq+vYVqguoyhWyM0aQ+f9qyIvvl122FPSwRHMb3g5ceL/8Zv+BlkJrCAL+MQIyZZR2n8x9/Gc2mtfsAWnj40uKFd1GEuALfZ1MjF0q6fgR0LmQZpaqJhm3A7Fwfe/oaRsoH6qRMtAaGGHHIz30NTAxdHTY001A119CAt1TXotbad3MPPVxuiri5TIwdKaio0Rp1hby8b5/GcRHRn/UnmEVUB0dZ71SNuKDsrKks4o6HvBOORtDH9WNFfms9FsIsLv6u2OL4VWPJPNaUSOxi47F4uPDoPACbcxmuAtsBPuPAQg+5krPoAyDzM313dgfu/Nn48qjdnY6fsVdvYYgc57lH88T9eyAMjgZv+CWyez/7sslM01Imb2DpkraCsJFc/3D3pbuPXNdQxb7h3Ob2Wmc/aNrZajm81b0kbf6v+giC0M6MGNeXW54UXZVI0pLaKkQmfQHrbincOsBgrpj9QXkAPcc5LfA/9Jp+ZgQVorPuMZ9i+2xAa0cwjDMuOuYmDduKGtm4u1C+Ixj3tAA3CVY+xor3LIHrGSs+3MoiktlI9h7WVrIkYdKVtgZTSfGDDPH4/mzV95Mr0VZ8AfSOWfYxT7QZP4zF1H8Z5AjUVFE+pKlW/5+HdGFUqO0Xj6e7FTgp7DSTAupG9y/k3Nft5nuteY9jbnbKHf3+WptBZwt2Tef+EDWxTzD1h3n4XN4zDkuqquJDr2NOy5nt9DXPzm+dzceThw4Xs+Nt4vB1ieC6stXUKFw5i0J2I41uYY1W44VX9/HNAGEPMRzfSk8g/6ZhHsXk+PevgKGDOy0B1BVXTtNTXciiHXuGUQlMTDYEpo+aonkJJLrD0DV64xs3lNDRHVOaKMnlOyk3yveNv1Q93t3PlRfDgGhpMU8ObdZSV9+u/4oX1qseNQ5R9L+V57H+ZIeQ8gFXnKXv4vo5v5fnXtmoVpHEB0dJQp5c/c+xpB5gnd1SNzhFyk2gYb3hVXXR5+XDBZBrqLsrioq+pgaHh/SttG8wTOxn18PJhakJbyOcChsdry3lutdRWAT8+y9TH9EcZdYrswc+421CmLbZ8z88hbhi/X6FdWMswag4/r/RD9I5L8mzXk2z9nnUZYbEUOFLOubsXF7IJGyiz7BvoeAuoT3se+9ENXHDUVXGBouDmzu+YskhN2cPvqmlELOMwVR+VBX7cMOpPRPVx7HiECwcx6E5CRTHFXBShjVE3AH2s5Ne8A4DEjWr/dLZhLncPGxeyfb/yYhYWy8Id7wCgKMN4cpuCX4i58IhCURZ7lavL2KoTO5gXwoJ0w8LkB7Yd7VzMcOsNrzjWN91Qx+Nc8R69JFd3Q28tDC1p11v2FDvEsPK6uUn16BI3c9qYIohz1eP0BPUkMgNCjSePefkyFN//MuYxFU+xvoaf2dbvGRVoH85q95ZwKpXtVMNntuz19rJzCY2ltrWxnZtGIc5FzUkHhAEDL2e4ffdSGvIj6/je/Uz05FP30ZPcuYhtaDOeZtTj6Ab2sTfWA+1c+PWuKuPiILyr6pmu+ww4lc4hQnrRj6COLHQ8tAbYtxKI6mm82HX35N9LThJrAzIOMaet9/lunMcUQ6c+wHXPG2uxA9y/otqYuJkFn3oa/9ZoH67K6+YmqbPqFXwCmSo6sZPnJitBVcBrqGWdxeoPVa34y/7CVFZbLvaEc49UuTsJ3zyuhifDurJy2F7iJzL0fWyzYYjIk/rPS9lLz9TNgwIvSoVtZA9exExFTkItXMSOb2VqoKGORUiT71UfSz+ktpApP+/60L5ecIW0AyzWa2xQi8EUyk4BXz3MUOlwC7PZfdrznBxYpYqxePoyfDz1Acc9rvbhvGUc5rn607Paazz/PHET+6FbQnNT62t9m9JQx7z98Gv19+8dwGPo2IOh9Q4xvG/QlVTwO7oRQDNb6MK6qBGSkjwWbEbE0fAofeMr3+d3zcsbCO/C9IVvICv6134B/PQy4B9Eo56VyCp3a+NGQzqxMvyXN4Dvn6GBG6Z5L+5ebF3741NGaOY/yelnQZEGwaE4LjT3LmfkaeazlvcVHMVtffcPLio9fR1vCe05mudl4zz+vYR1NS4q7D2Oxa0HVrE+ZN0XLGBc8pqaK4+OZzeJrR57wTkQg+4ErHyfqmIAB2/Mfcu+1ylV7cNn0liteJeiIPP+RqMeqLl4FKRTCMbDB7j2aeMLi5sHLxrrv1R7jgFexPtOoidaVUJBEEV8BmAeTyuiUVli3g8OOGbMf/+ERUrdh1M4xDSsHhDGxc72nxge9w0y30ZNhbmq28Q7LEiJ2knsIFbZD55Gg1FfQwPh014tYFQMWUtobqI4TluSc9xgsHWmiyVuZi45eScHpGg9eHcvhrYHTGEkYev3XHSFd+P3zr/4SUOcAAAgAElEQVQDIz5aY5y0nekNpU3txn8atxz2GAV8dCdQcZo3QL+jwBQvP7ZWbviKqaPCdHZTaJl8H9/jb/8BFjwJePoZy6TG9ONENFu0D6dE8ffPcEbCnJcdl1O+5GouBFP3cSFyyxv8G1cYfxvPU2GGqvYIMCI15ibjvy/B+REt9wuc3OOqfnkzgOtfsP+1Sm/uqVR6D7e8Sc+iMIPjJ7OO8vGyAk0199P6A1tiBwN3fkCN8xteoydbkssxmF89RAWtT+9RjfnEO80vNnqzo+0VzyjJ5ULk+FZ6alc/abklbPB0PrZ5gflju5cC8x4179Vt6fhYhZj+XCSERHOBkpXIC/5t73Kh0D68ZQNrFJqazIWEWpusBP06i5oKVXPdL8S8t11LWCw7Au78LxcgO5ewYE5rzBtqgXWfswUyK4Eevqluv5uneS2F3udpiQl38HuSuJkeram2fJ/xHHdbW2WueR7T3/5pZB1iWDzYWM/RxsXZ9h+jwpUP82+1KJOhdC1uHuosAgXfQHZSiDG/+BCDfoHz0ytqZ9TAKUBkT6tPN0IRrji5hz8DI3kh6DyAhTg/PscV/+JX6GFP+avt6WvhXWn84ifyoqgdaFFRTI/0tnfpqWrJT6FqnGkRX3WZdSEMgOI4XzxAQ3n7e7anUrl5sMAuYT3zvhXFvLB/+QB/TrwDmHK/WmQ0YIpxtKIlRMczelFRxH7sHMMwEZ/2DK1aknu1l7MRck/dry8LfGInIzbKKFB7aB/OVsfL7qMC3JcPGsSCFjJEXVkChMQwrWNJu9y0M6O6DPj4TrVWwhZ9xlN6OC+ZoXHT18UN05/XfirFvu0rdBnIEbq1VcCil/QXrtbw8mOhH8Bwv1L3AqjDbrT4BFrWxxecGwm5X8CseJfiIgA9I1NJUFt0Hw5s+Np4opWHD/PO678E9q1QNd4HT3d8pKLehTUk2lzYJP0gK9lDOzNEWZTFULinD8OVi1/hhde0+KisgIV1RVlsdRt4hf3HFjeUXt5yg7Kamwc9Ka3kZr9JFI05uRc402mSXn4Mt2YcYZXx8S3qY6GG83EqlR5sS2lLg15bRcN35cPmjyVuAkJjuThytAag+wjedi+lhoGCuye/l1Mf0C/kqigCUg8wguNraBkMN8xQ//Q+YMyNjDC5ugOj51guSouIYwh+4fPUlb/uOePPIKQTPWMt9uSjT+cCaz7iMUT3pd5Bz9GMIP38Ly5mHCGyByMfGYc5gz1+AtNLiZv5uIc3/36yj7Fr4vAfMgL1YkQ89AuU/GS22AAAXBy/QAAMY0bEsRLWVDJz4p3GF7biLMc9C70LX3BH4//npwDL3mJb0aznefGOiGOVuIc3q5bLCpm/15J+CPjmURriO953zJgDzKErffgAe3m1xlxhxHU0HtbGktqLckGO6sX3reAXQoNUkN7ybbu6t20OPXUvveogk8+vqoSphPoaeoV6Hq09mI5GVUaSmo4mVVjzMY3+LW9SZOiap4ARszl8yMefi4PUvczpL3yRHr8lQjoxTeTmSRXC7Qt527FIjV5p6WDjPVaWsPBPSVllHmFY/1LD31TOMXOv2h6UjpGDq1mwpxjzAVOAe/8HXPO0mrrY8DW/t8LFhRj0C5SfXlF/Hz3Huh64NZQBJBvnGd9/ZB09RqUgLe0A8+i1lfZv21/HoJ/cwzam7QtZmPT9P3gxn/OKuQcOMAR/xYMsClrxLl+3/kuGLuMn8kKsNxfdElUlDOnuWWZ8f0cLqYqI7swbOzq/XY/ovjyPSl3A6RzNfrqx/a+luHuy77+tyExgP7cpx7ZyAZZx2DEZUlNCu+gXjO1cbBxiBrj4TN1PuWJT790vRFPkZshFVZfxvFsjKBK4+V/c3rYfeVPqPW5/n8Vnw66l0d84T532pkfyLvO/k7oqTqib+QwjComb9DUYrKG0NBZmGHLxLjTglSXslvD2ZyEowEX6qg8c275w4SMG/QJk3efqwI+AMHomLaX3WHooZQXqBaYgne1pXn5UgZv1PPNy+ScZArc1SxlgXnXHInrQI2axr3j2i8xXb5zHC+beX7lvazOjARaLRXRnRGLbj0wF9JvEKIIj7F8JfPEgB4dMuZ+FfIGRvIhb07Efdi3D+trUREuI6sU0REkujXvGYfWxyB5cQLUUl3Zt46GfzmHa4dDv5tEVgJ9JYDiLvmzVLtjCN4g1Bc2a+2qrmF8//Af/X3ma3vmway1XjEfEGVoqNRtytSMd4RMINJqI4zTWc7F0ydVsc5vzMvvsf3zefIzqn6+p07+/qYHvURnesu4L47ZFa5TkUeZXodnwT0keFxCLXub3s1MfeuwAo1iJm+zbvuAciEG/wCg7xXGcCnNePvNtKqv6zQsoqPHb+/QoJt9Lg9d5AHDbv9nKU5TJVp58K4VBqfuZ2wbokYy+kd6d3mCOqjLz+0ypqza/8Glbd2xRlMUQ6MZv2KJ3y1tcEMx8BrjrAx7f9h85LUuPmP40Hrt+tn+ferh58IKbmUBluA3z1LxxeLczM+hobpsc+pbv1IWMNscNUH0vN4mLwbhhtmeoWyPnGMPjHXsCnt7ArBf4nbv7Q9635mPgneuAT+5mdfvYWyxvy8ObbZfhBr0AVw8uHrUz4y2hV72ufV1EHOeXAwyjp+43f35lqfl97l4UqgG4OJ36IH9f9rbtqNeB39jBoYTwAaMRAX+y7Uf+HH+bqjq47gvL32vB+RCDfoHx08v40/MYfl3LQ+1aInuw2Km+hlKRBek0eFqVN5/2zNMPmc4Q3/wnOBTElIJ0YPnbhpnnzxpXRetdUN1ttP+U5uvnMe1VVNuzDPj6YXqvd/7HWEhEYch0phZ2mg5W0TByNvuws4/Zt19LxA6iaElmAnP4u5fSKHaI5oW3SscYaMk/yXqCdV8Yh6KbFaHzViZKo0WuDEhROL6NcwFyklouiKOw/isWrqUdoCxv5/78v08g29y0WgSVJbbbv2L6M7/+2GLgfkNh54KnrEeXyouABp1edmWWvUKneC6k3TzZmbHyPRbVrXyPC9ldS4y10d29DNMMNQp28ROo7FZeyBSQHnVV/KzXfs7zrry+uVn/+Uo/vrsXcPn9/L2mgnMXhIsDqXK/gDiyTh1f6RfM/tO6KnrL7dzOrFe69ziGT5UJVJba0ybcAQR3YoXtmo/oWWUl8riCo9QWs2ueMi900noYCi7tVHlKLVUlwC9vqe1dABcJDXX0BPcs54LDkpRldRnw67uMOIy6wbZy3vjbmKMfOkNfbCZ2MAu+di8Folow71ohpj+9RYXoeDV07OZB46F4V9mJNKLNTfyM805STlQxqk2Nxip7bcHgaVR+SzvI6ILWgz2+lZ+5h7fqfbaEpO2soO92Cb1vRcJUS3AUkK1ZwKz9DLj6CdvjZwF2bsx5md7w/Cf5u6m+QW0l6zKam9i2eHIPFzOnc5mLDgg1DvF3imdtx/K31eI0Bf8QqsR5eDMkHharH1G67D62wKXuYxpJ28qZfYwLBOXvKXYwI0nzn7C8btMqGHa9RK2qT9oGpIzXL/oUnAvRcr+A+P4fhgs8gJteY3HM/KeYXzyyjp5fQAfr864tkXeCIVUPH+YNk3dyapRvEPPcWsK7sYgr/SC9VqX6vbqcx3flw+a661lHefEbcDm90Y49qIyWspe3XmOMR4pu+c648t7TF3hoAQdpdBkI7P4FOJXG15mSncjK5rpqzne2p1grOIo57fyTljXjfQJYFxA/oeXT0vyC2Ut842s8rpHX86JdXkjp3fRDrGJO2s50RHUZDUNQJC/YpQWMWrh7AaNvUKepFWawUEtvTviZ4hdCY66NBpUXcthJUz3V3Lo6KGuqZclrTOek7GVURy90n7qPqROAhWDlRcDhdVwQ6S3ATGnnxvPdUEeN8+h4VfOgoghY8DQjSNe/xM8/fgKjSz1G8Lu7eynTRj6aSEFINA2xqULd4Gms+3D34j7aWXGbYgezgyJ5J7/L3gH8O1zzEY/HUzMdLecYjbN/B3WinZZeo40jYtHxwKE/eHyZCdTVt3YswoWPfLwXCMveVD2z7sN4cf3uH8YKV1UlDNEFRtDo2ktdNb1ZALjmCV7AN3yl5sIDIznMIiDMWI0sqCNQfdx8e6bez6lUXrQje5h7lJ36MFy58EXjqVWmbUbacakdOrOSedmbrEQefaP62J5lLLrrPpx5Sr3KeUtM+QsFagZO1ddr7zEKCPoe2LWU3lVLKM3nZ/bNYzQIijceEcfz6eHNXmhLRPflhb1DjMl0LQth2Lbi2BagywB6stMfa/l29v7KBY2HDxd7evr/KXu5wJn1Agvz/DuwOG7Fu8C3jxvrv9ti5GwWp/30Ij3W+hrWpdRXs2NCT5lwxtPsHf/xOU6Z0z7HJ8A8B64d+WoL/xBu/4dnWdgW3JGLOoBpr7Fz1fC9Uqk/bCY9eyXl1T6c36u9v3IKnbIg8g5grcEfn/J87VrKBbHgvIhBvwA4ncOqcYAr7GueYqGSqVylws7F9mlNK6x4jxeESXczJAzQU8o4zP2kH9SfpmYJ7SSt0zm8UHXqQ6lNU4KjeKH+/hka/XZuvCD6h6ghdg9v8yKo7sN5vGs/5wImIJShz8N/mA/dsJfASIZ7130B3PQv/ecMn8kQ7Og5zO/aS3khz+XuX1TvqrqcynYKCeuZSrCFnpZ6M9pe+lUh6yi948BwGuCW9p7XVFAdLqoXcDpPXxGurore6sjZxrKzvkHsPz+wip9XZgLz1PYw+kYav6Rt6n1TH7QsM+zmwYXuj8/zNvBy3h8Qquattei191kjqjc9+qTt/J54BwBT/888RK7oTvSdCLhNZaeGwo/P8XNZ/6WqKgew4v3AKmrW7/oZ6D9ZBrU4M2LQLwCWvKr+PvF2/nS1MhO8wI5+5uxj9FRS9vAW089cnCWmn6rLXVHMPGdJHi+mfkEszvnjU+OBLAAvTNmJfE1RFr3Jmc9YPpYOMcCE23nh1vJ/8xhKDowwH7cJ8HiTthv320594MyGqIy5Cfjifl7se4wyfzx+IrsBDq5huNwaeSfowRak8/hjBwFjbwJWfURPbNytxs+P6nUGvcNtVBRnypbvuGAE2P53JpK4OxezhiIvhREPvXz4H58xMjTqBv1tDJzKKvjFrzLqce3fzeWD9TBdDNvSAPDwASbdw7SXUk0OMPUyZBYLA0vzeStIt38IS0MdQ+za9NLQGebG/MAqHnPfSfr5+En3sOjv+FZGK7R6+pffz8ca65kmmfqAfccmXHiIQT/PSdwElBh0vv07qEa3U2/jSV1aygvZXmbJc1rymqGH1mAEXF3NJ06Z4hesn1ue/RJwZC2Ne1MDcGC1eVWtPSpuyrhHLc1N9OytYdr2pidm4wje/jTqG79RDXpDHT2foxuZvx8+k0NFhs4wb3MqzWeUIDeZBrrnaOOUAAD0spDTV4zjqg+BgBB+ftVlQGEWUFsO1NVw+411QHWFuu+mJh5jQx3wwVwALmxha+cKtA8F3A1pB79gzhoPjqKQS0vqAEzDyyW5jOBoR9TaQ1kB0yNdBjEcrFclf3I3Dd3t71rfVlgsK9oXv0zDNfsl87oPU7wDjLsEirJZeKjMN9BDr62wxyj1862poHrh759wwWZr7kHZKYbyCw2LidjB/Lvcs4xeuFLZX12mLiL0RtcCXBSPmA1sWcAWv7s1i+OIOHVEcsJ69tS3pM5GOP+RorjznB+e4VzvZgCzn1fDZe3c6CUroXgtzU1c0bu4sDBGS/IuFnYBUD26Zi4WHB3tCLBoJzqeud2Y/swpmgqwuLrZFh2pLjMOgbp5MGxuLRKRl6x6iwDz72Nutlz5bi+Bkbwwbl9IA1qYzhBtUyPbpaY+yItuO1curAAWJW79gc/vMZJGP7qvmiO3Reo+RihKC4CCFIZPk7YzV+rlRw8xOIopgQFTDaNnr+Ft6AzmUcuLODt+2LW8r9doLohCO7NY0sUFyD3BAqyjG1nQte9XgypgCpXmPL0ZcbFUaNapt6H1q5m52ph+nIbmaA/8H//j8eQco7yvaQSmrgpY9ApzvqZDWPTw9KHRyjnOMH5MP8uh5RXvAaV5/HxKcvl9KcqgeE7Ceob29T633CTzvvOQTkz/APzOduzJ3PaJHUDPkZYFi45t5vyCsgJ+dlc/QQEml3aMmBWkq38zC5/ncQ6ebn34Tafe/CzLCvh3o3w3AS4uD6zmors4+8yiWML5i3jo5zE7Fqr51vBYClJo6T2OnnFWAkPhru7sTS8rAHb8xFV90nYObVFa2vJPGm9DqaVK228+Aa0l6OWV7alC7jGSIeysBHomaQdZKHfdc8Y9vQqH1gC/f0qPOfsY93HNk/YbUGscXK3+fnQjMPQa9f89R3MfHTrT6O9fAXgFMDd51WPWx2rmJVPXu6GOXnZpIVBZBOSl0pB6eBvWWIaFln8H9s7bK6JjahT9QuzLl+YcoyHc8LXa3+0dAAy9miFebQ+4h4/+gBZHyD/JfHBUb4bM9Qo4//iMhZBDptu/XXcv9qxv+4G5btNhOwDnkmcc5hAgpfBx5fuqolpZAVvi5rxi/LrK01wAmWL6eUf24GJr4zxg5X9YNa99TlUJsPojtT2091gWiioFjiNn83uSsoc1Icm7+P+Yfmyns8Xke+j1b1kA9Bmnph+8Axh5Wv8lv4Mpe+1bKAkXFuKhn8csfAlAM43uja/ph0hDu7AIRxlXGhDK+/pNpseVtJ2r9tJ8ioBUlfIioRhyxUmP7M6pV2dKQZr5oJeacoYTtYZBj+i+fB89R9Hr2beC4iU9R1N+U2H7Ql4wB0xhAVDaAaDvpexjbg1O56pRhu7DWXwU049RhOIsetOZBtnW+hpg3C2s0LbkpSaspwErzua2c46zmCr7KEPnXQdTXnfA5VzAKX35Vzxkf466KBMoL2hZP7h/BxbaxY9nbUBjPUVvinNo6Pb8wnBz+zD7Fme2+PXfbF0szGTO29XErUjdx8Xo7BdblhaI7stI0Yr3uB8l9bRxHr9Ps541jkalHzJe6NbXMMKhUJLLorPKEtZ6+LRntKRjD6ZXOvVW2wcBeulFmUxF7F3OTgxl0f3bfxhi9/bne7/kGvMoVJcBwJH1QOJGbsfbnwsDeyJPQR1Zu1GSx0hKT00dSGQPLlBrKzncadCVdp9S4QJBDPp5ypqP1YtMTD/HPBWAxiW6L3OTxdkMzSesZ3g89QCAJuMaqsn3MSx7JpTmU/e75yh6Gr3H8WKavIv7Do6yndtU8A5ge97htTz2PuOYZtj1My+Qo+bQEwKAzfNp0PWkZRUa6mik85Jtq8yFd+UiotcY9cIeEMrwdEE6L/B+ITS8g6fxs9Ez5jUVrPAvPQWcOsmwcJ/xXAA0NQIeXqymz0lkTr73OKZRjm7gZ+4baH+u83QuDfqZiIe4utPLP5XC933Nk8CgK2hgTqWyQv/Q7zRIoZ0NeukOkrzTEPpt5GcYqYk61Vaqk8gm32eeLnKE8G405svf4QIw/yQ7Na571jy3HRzFRW9TA/8f1YufbUE6e9QXv8qFxZxXuTCNG86IUreh/M5v+5H1JdroUNfBwL6V6kS/sgKmURrrmZq6/kX9ka4NdVzQnNyj9rfPfdsxRcjI7pxbUJRFL1wbufEJYDqgpoJ/72FWagaECw8JuZ+H1New0Exhup3tOHq0D2fY+uhGhlTXfMz7XdrRs3B1Z9jzTFTmAB7zz//kxVHRqQZ40QuOomey7C2G1V3a8cLdczQNsSUCI4GbX2f49OO7mVcF6JUrsrSnUhl10EqU6jH/CVWYpL7GtgCLduHRUMfq7rxk9b6rHtVvHwPoyR1Zx1qFiDj2E2sLCiuKuTC51TCLfcIdFDs5vJaLg4pifm6FGcbyuwql+UDybhpaxft0c28d0ZCKYn4mw69T7wuJVvUD8lNoLL59kkau7wR6era8xxM7+PkDXHi5exl/9lUl1ABQUkxdHCyy08NXY8hS9nKxo63+VgiMAOa+xclx7VwZkl77ufp4ZA/+DektYC77C7+Dv7zJbSjnwd1Lv600Ig4Ydb1xaqq6nH8Pqfu46FD0Jrz8aHjLCiy31OkRGMl8+75fqSdxg2a0cq+xHB1cnA1sW8iUiuA8iEE/D1n+jqrX3H2EY/3OlugznsU+n9zN/zc3MSc/ao71vK+9rPqQhuz6l8wf6zGSF81f3qC3pJB2gN6DqUSsFh9D4dUBzUCaxgb198NruWiwJiCTl6wacwAOibBkHKL33H0EcM/H9Jw2zTcRdTGQeYSGuryInvaYm/QjKwnracy0xzxkOrDmE/4MjqKBzk2j5306h0ajuYmh+kNr1Nc9tIDGw6Vd6wxnyUqw3o4X3lVte0o7wKLEA2uA2IHAuLmWpVi1s96Lc8y7F5RUg8LJPdYXe/Zg+p3ITrT83KCOjCpVlzH/rCV+guVohJsHIxnzHmNNR79JXLD4hXCxbKoil5dMERlrdB3CBZVvIPDVw1zs3fG+/nfOEiNmMZqSfYyL6djB7ETw9ufntPR1dsMc+t1+UR7h/EcM+nlGdRmQsk8tjjrTAiQtyvhFTx9eHHYvZd/q1AeMJSMdJWE9K9RnvWB58REWSy/nKxNxmaIs6wYdMJ9lrRTJlRdxEtWN/7T++vbhaoufd4B537we5UW8sAeEMperMOhKto/tXAxM+xvvS9nLPLNfCFuHQjvzQjzrBf1tVxSbFzj6BrH+YO1nPM7dPwNV5SzGiupNEZcgw/jSwnTm4bsPN/aMW2Me+qlU+7sdugzkra6a0+rmP8nPefK95vUSw2bwuJN28rttalwDI9lrvu0HLgo62Yi42ENoZ7Zo7VnG/9dWckFpbcGityjSLiD1CIwEBk1lSiJxE/++OvY0N+YKXv4scm1qNNzhwnbL0C78TLX5+FHXU/dg47eOqRO2c+U2T+cwOnd0I+8fN5fplIg4Li52LBKD7kyIQT/PWPWhmtuOH9c63jNA71mp5J39InOMx7dyytXCF9gONXKW4ypSp3PZgjRilrGSlx56PeJ6FexaVn9o3C/s055Fd7GDKcLSbSgvntbw9gf++iV/LysAvn6EKQY94RiAF7mMwwyn6uXlh0znwuTAbyx26xQPXPWE+l5S9ujPDv/zeAIYNj+VyhD2yd288Hp48/OOn8AwbMZh/cWKxQXMGQrL5Ke0rHXRwxsYfzsw+iZGKL7+f/beOzyu8nj/HrVV773LkiXZktx7tzG4gcFgDKGElkZCSQECJCGUJBDyTSiB0DvYBhds44J7t2VbrrIly6pWb1bv/ffH55ycs6tVc8N5372vS5fs1e7Zs885+8zMPffM/EbEO1hk/m+0a25rT/fC6hIYjyAz7zNpSd9DdAaKGfdzj1pZU9u99u9cp556Ixz+1vj/Bqf+iS31U/haGilv8w5FB5K4mrGWKjHUXEffh/5UZIy/DXFo8laif3Mtic1h75fcU+Yej59FV76VLxKln9qCINOC/31YDPo1hPZWrZzFylpknplWqReLNUoeLXyEViYUOwU6e/dnbBipu2mnmjCbphc1ZUSo+ojBFGqvd9PmKeZg50C++Nh6oqXODpwBBxfzJTRJazGYd7zI5thQxQb79Z+IBmvLjFun9gduvjAS3/+bY+qb75RkoIyOGms+daAi8zBR29HvRO55tXs02t7Wc3SWngg1X5BKznTIVFqW2jmQ27R3ZI73TqWlbXUJv/tCR5sm6rpYFKT03cinN9gaSOFMvhMGY9kzIkHR3Mcqk+ARoI32vFpwcEEMFjWO997yDvfeaF06pKUBZ7owlZyzZwDskWeQ+S6FpjDXAnb2T2GsDq02zvLYGgZWXjn9Pu7XPZ93L6frCZlm+lOoKMuBWQmJ4z48tNpi0P+/AotBv4aw5W357ze/r0YsA0HGYaIvKysaWOjh6EZ51NhbRDb8i80ucaU2tlGEtpLmRGT7lyHc+vE/+38uY27S8srZR9lE17zMRqsX6OQcp1HLome0qFHNiUaPh96MGHlx+oKYSVC+a18Vuf81Ntj0g+TGb/ptdzpcRUU+Doi7v8i9rzIcp7qku0H3CSNia6xh4z5/EnakrgIl++I/8dmK0/nMqrELjacMKnIsm65XMJ9zzE0iNcUi2ScYIlJZqNSyd2iOQ1szj2Ue0c7D2lrE2o7zCYoWCY5H7NcT65OfAtNyOTBhMT9J62AzEq7ruX3rlYaLl9aJMGE2ztj2D0TaWmFDWhqV9spWVB2opYL9vbdaGs07U/6RSoQ/zrjZ0kC76sXNwNnOTeZe6itF1dpovoOkCrX0cPytGPR6JXXVn46OFlzbsOrq6hqARMiCK4nXliB8srYW+e3Ky3fct+4lzzlqvsh1P+39uZvfJiduClV8paIsh0lX4xaRl7tYNNWyuaYncqyocTS5SVpHkwy9kS9Ohw5va+Gz7PiIKEM/jGIg+PhRnBxHN0rIbvyt+brn5nry6TVlMAyqAv70DjbqRWbmo3/zHC1Znd0xqCPmdq/hTj/IMBbvUEqNnNzpje/gTCtSFbYGBFIuXjzHOxSWRS/UKslgnKw+H9qs1Bs3VEO/1lUy7tTWns/p4gUbERhDzXTiSvrnX260NIqsfQUx3A2/6Hk87ZVCxiGctZ/o+uSveB6mRITr7xHAdRxoY6L0RFq9NtdDh7c0alT3vf+ntZJN3koUf3oHz73/tf4xLyoq8kll+ISJ3N9DK9z2VnLlB7+BzTIH/0jOS8Unj3G+zh4iD3/c//Ox4NqEJUK/RrD1XW3sYmwPud2LQaLSbc7Grm9jLkLnKnMGvbLQuKPX1nfYXC7FmIuwmS58Uht7mrRW+5utPblItbNYQxW5v+Fz+LubLyVt6/9FV7CBoKqYenIRNrRHPjdvzI9tgL6cuKS7RmDYbMRw+Wc0UWH+GQxjVTGVCnfpSobamkXSDxGtW1kxrGX+Y0SPqXtE8s7g4Di4iNgYcOwMDiIPvChJJQUAACAASURBVNm/BivNDd3FjWpbUj1qSjm/4nQarexfrhmATx/X2q1eagtdFfZOUMXnj4tseAMa++Yn+zdE5XIgbBjXujhdY3v0+eWmWsoj+zLm+WfIsVvbII48t58yMyd3kTm/pJmTik8fF/n+Ta6diHbP+kaQptr4Bu/ZX3iH4qwlbzOf8z61lf4Mqt4kYiQGviBVe05Xl8gok26Q6vRAtdTyUisLLPhhYYnQrxG8fgd5PSsR+d3qPp/eb7xxJxTjtHsQ2PSF+gqR93/e/fGIkWzEJzZpgy3uerlvQdpA8PnvUELr4erDJhgxArra1LCVZtH4IzQex6C/OLSKDVDFo19oJVfF6UT/TbXQxr2pgA9+g9Pk4IJQz8qK8wyJI88//V4mcZVmsX6DxxMN5Z0mFVJdgkGYdg9/T94mEhCFEKroHNdu9AIagOScoPzL2krE3kWZ492CI9jZASNgq3Qds7Im0u/o4LeHv4hnMOfo4tm9A93Sp1E9h49AKFVfSWOWEfO6q+kvBW3NOK9ZR6F8xy7sf2vbS8HGN2i3q44V/vBh47TS4uf6prLf+wmGT4+4GSKzHjJzX2bT+2DSHd1nkKvDkRb8mnulv2iqFflAmUr30/+wbmf3UWGgVm5ET+B8VGepKI17KOcklRP+UQyy0eOdBzm2V7DIg//u//lYcO3BEqFfAziwXCthCTXT+OJicfAbvswGx/4ZcxFU7pPvRK2sNrgYMYcIQC0fU6OAgVCGfaG9xZgmNDixafXVLtY/SuRHfxVZ+ozI+n/2z6jv/ZIc+m1/JFptrIH2V8vQVr4Iq2Fl1XdJj5obba5n3dQ1yT7K783/QbcwbhF50N2f0eo0ZhLiPDdf1jVxpRKtV4js2KnkfBXV+pmdIhFV5PZjJilCRT/jtck8Qlta/XVua0Yt31TLxL6yHK5jZQGGycZW6fjmTMnc2Ju17nsisA/HNiDQ84sQGbmA978U2CmpjYJUaO+ja1HHX+k2pDPuI2rOO01Kp7keB0qN1JPW9m7QWxq6G3N3f/NOpgjU9pS7+G4PmWrcGOa6h0Q+Pg4jFT2h/w6NoxuppqR1Iutfw/lVnZIxN6GDMRXwqc2PAgaLJG/BsSxIMe6WN+4WvhOVhcZskwX/e7C0fr0GsP6fmvG848Wem3MMFN++jKMw/7GBjUsMjUccFTFSZOJiopDzJzE2eoQl9N5udSDY+QnRavBQjjnvkb6PXZCKcXN0owwtcQUivZ6MTnuLyHeKgO+mJ8iFB0SzgaXuoVtZ4grUzVZW0JFhPZTiNdVRUtdYw6beWIPjVFvGYJHODkqwTmwgr3rwG851xn0Y9+AhXOf8M3QFLD9PWsHJDaHb3MfI/fqEMXBk1AJe4x3Kpm1nYgRSdnfvKW5jy3u4eBFthw8XiZmIgzb2ZoxAWwuvba6HESjLpolPSabIuFtpbTtqARHgsfUM/WlrwcBfSkmlmy90f90FolW/QQPrhjZQGByhyr9/k89y7z+06Dl+Jkrvzs6e698ba+i8pkdLA+mT6AmwLqYIiaM0tCDFeLqZgyv3RF4y98lARHJ5pxFcVhVxjHGLSDfFTO69uZKNLWxN/hntnlXhG85n6+wgbTNkav/Px4JrCxaD/gOj4AxRkwi9nSf0M5LuC0fXsVG6eInMffTijuHqo0UfWUe717V2dmIkLrVWPvMI0cotvydXPXR676VC7a0iq15UpskdRJ3r5gudrY4wNe1p3lhDRBg1lry/aQORwGimVLW1QMtOWtJznfrxDRjz2Mk4S11dqIRzT2GMFz5BVLz3SzZZdz9YhPDh0OP7vqT+f/9yjMuIOVDiEaMY/3pqq8jM+zHy9s4Yut7YEHUGe28NU3qCfyRpk/I8yqwMDgi3SrPQUljZYGyjxoqMWYiRSt5K//wLBSJ+4T2PCO0LmUdwsmwNtF1taxi4Ary/KM9F92Fr0BgSVaTo4IJzt/Ud1sJ0rTMPM8rVyor7sqVRqEZRGBQr654nl3kGkt7xCjZ2qoNjSa/kJZO37s2Jb66n4c6mN42bLI2/lXu5N0Ouh284TER1MU66+t22scNBLU7nO67/mwX/W7AY9B8Y6/+p1bDe/PtLH5CiYtVfKaVZ8OvLE/nY2RNBqoiZhDFN2c1meLGRem0ZA0zG39r/vtLJWxnwIYLhHH8rBtrJHUO+9wuiJzW6rqsQWf4HotJRZkpz8pIZdekTAtU9aYmIm1/356Unkq+3tmVdI0YSze/7SqM+E2azgTu6IUKMm4GzEhjDhnxoFcr3SXeQ37znVajftH3Qoh4BRMq+4Tgoe79EwT50uvnZ8EnriPDnP37xjtX5kxibuJlQtKe2EplPuYtrfmIjz3Fwgb0ZNpvnph+ki1nOST6fUx/pET1S96DKv/81oszwYSK7PmeK3eUs2RQhqv32Lzgjd7yIc7fjQxq8+EWSBvAMIkLd8wViRWdPyr+2vkt5pk8oDZmm3EWEXFOmHT80oWdHxCMAJunsXko/1X77NnZ8p3JOiDTV9Dzp8NRWkXV/5zOIFffm7J+JpO7FSRnILHpbAyxbWQ5OaORo7W+eAehjVAwa3f31Flz7sBj0HxDtLdoQCHtnyrQuB5K3Qtc6eaC+vRw4uRk6e/KdItf9hKg4egIswPENbFrtrYpxK8Mg9cfArPoLxuSGh/t/LqXZWgMeeyeiehVqA5GdH+PQuPtTQjb1LmPaU8WprdDs4xchJupoI++pVxG3NDDyM/sYOfqRc7leez5nSMr8x+mIVpJFF7JbnsbwGRxYl9Q9IlnHeN3NT+EMufuTs7Q1iNgZOIep97A511cQlTm4wLQ0VJP3bayGvlV/UnYRUV5KP/5zBzBY4SOIxGtKuXdueZpoNHYyOgJbA3X75w5iEMOHEVmOWUgzlr1fiZTnQFn3JaBrqKJRyu3PaakDV2+o7xObEQTGTrk8Qryze5khMGo+mgVbA8bKzVe59is5Hxcv1PCHV/P9KTxLVFx0TqG1n9Q6AYbGcz2a6vj/8Bt6n+AXGIMmRbqMUziB0YjaClK0oTDVxTjIZdloOVJ2cR+MWQgbFDmGe9zaGv2Gs4fxxLq+4BGgfZdHL9CcRAdX7tXaMnLzo28070BacG3DonL/AbHjAy3SHH0jBuVy4D/3YxAGqqI1RW0Zm3j5ef4/5S7zjUeObxDZt0wbFSlCCU9fzsT+ZdCOD701cIovdQ/0eFYSUfqtzxo3AqkppVNZR7vI3Ee6R0DtrUTMFflE0vqStG3vi3QpncQ62mFRhk7TuuHlHMfoJFwHfbtvKYYvbrrI189pjMGJ74nUQ+PNt3E9f5JURnkOano1KirJxBDNeggaf+fHqI8ba2ACHF177943EOz4kA3eyZ32uEnrcGCm3m38PLXD3ch5CPtqSlmzcbdqoz23vS+SnYTjNPWent9z9V+ILHuiqTe8xnrd8eLAtB+mOLOT1Mi8R807cyIwI8c2woKYwtae2nRzLY1bm0hLnNhEfX9fJWj7l+Es/Ow941Go2UdJ9eihTmqzNXAvjbulu3CuvRV1ur2TyC8+7P29TfHNcxjvmQ/gKKhIT+ReF6HfwkBHNlvww8MSof+A2Pi6Nvjhjpcuz7SstH0YA0fXSx/ssuolIgUVXsHmN+HAGLQANaXaY1ai1d6aQ3G6yOa36Jp2MSkB3wjKu4ZOR0y3/QMMolpL3NVJOqCtlXXVNzNpbxVZ+Tzzw295pnuEY21N9H1qC1H5LU/zPk21dNNrqBaZvISoq7qE7nJR48g9Zx6Bgraxw8kYOU+L/GJNhEtlOSIHlolMutNYyOfiRb3zhTwo7+oSPk9LAzl3v0GXHr021WLEDE4wAjc9Ac28fykbuamGYd9SjItPGJT4sOtFStJ5vLWJdEH0BFiIk5t53Ce0ez769A7WX29ITBEzifPa/JaSzumlL35PSFoLW3Trs70r833CRYZfz+dx9TbOUYcP77m3vI0d2oiQeCJ5Zw+uS08IG0bkX1lo3GdC1V/o0dnO/br4OYSQZ/dTIXFmJ/dk6l4qFZzcRIozmBtgbrZ6TzA4ki6pyDe+Dt6hOCjtrYgVLZ3j/vdgKVv7gVCQoo2L9B10+Yaw7FNGP06799KOU5RmPP9bhA2gJ5iWl5VmQ2ea2xBbGpiNPeWuS+sdrmL6j6m/Xv4H/p2ZhDEcvwgjv+xZIrW5j0CTrv4rtdx3v8rGZQp9+9QbHkY4lrKLrm6zf0p0892/mCqmnv/xTeS7RXBm5j1q3MltxFzo1fiZGLXU3SLBcSLhI0lP6FGaTSQ+7R6iqG+ew2BaWUHrL30GdqC9TSm7U8qpbOwwhPbqjzM16PbKj8ER8d0WRRzmG8F7OXviONjY8b76BkIiOBFNtcbRsq1BZOq9iOku5CJSjJ+FYVz0LI7QhtdxluY8TDlkaZbIse+MO5X1hBFz6Gu/8Q163ZuKHHvDrk9FMhJF7n65/4bO1Rvj1tKojfitLFJEe72UlTl70Gt931eKI9KLQG3CYtiWfUsRxUWONXaCjc7Hhw50amrJFHnJ2r+3vifi6N73cCQVMZNw2OoqlDnxOid95Dx0HhUFfP/7OwzGgmsDFsr9B8JXv2eDE4HWixp36ccsPkd/cYOTyGNfXtqxck8Roesxcj4GzRwu5NKxTS2J8QrGwPlGYGSDh2jP3fAaoqKBdMrqD/Z9JXJ4Df+2EpFffQZTUVMqsvyPRD35Z4hEbviFyLp/kCsdfxvGUwRnY9VfyAW3NpEScHTTKPUt74jETtUclZJMaErPAJFBYzDWXsFQ/EOnaedWdI5+4Z5B5IeH38Dmn3kYcZOqUK8uxoh5BPC+pVm8VgQHKGAw53ViU/8HdTTVYrhP7+A6BcZA2QdEkfKZuJjzWvcqRv32Pxu/fufHOC6mkW5ptsiez2CXRER2f8pjo28kWnX3h9HIOkrU5+DCSFm1HWp/cO4A7Mv8x3um6FW0NHAPtrXwneprkl9PaKzGUdn4GpUO15tptGSKz36DmE5fx2+KkgycMRVufqS1TKET0EvsFCoMfMNZTzsH1jLnOA5i5mGifBGM8ex+6nDUhkiDJ1BdoqK2nKY7Ir1/3y24NmGJ0H8gqMbcxnB5jLkI9c8iRDeXCnUqm3qeAdEiU3oZruET3r3LVPxMopGv/0ikHDaMnHdBqvlZ4e2t0JJVJRjMgfbVTt2rbYRO7tqG7u5PxLz6L0rb0adoNavO5FbniNdViOz6mBp471DNoWmqhfrd8THUtBqprv8nTtTcRzWVc/BQqOKj6zCYbS3QpB4BROQj5xoriAdPgMkIiiVaSt5GHbCTB2K5G35Bc5qgWGP9Qtq+/q+LoxuK/PREmum4+/OZ1DKoshwMRnUJz9dHbe0tGOTrftL9uAeWGxuwmQ9yvNWKo7HkedYrcSW0dHO98Sjc/iB2CgZr81uIwgb1YNRrShGRRYzsnwHuDU4eIuEezAhY+SIphr46Is64jw5wI+Z078KnIjPJ+P+1ZXyvIkdTbmllZWzMb3/efNRta8BhjJ6Ig/b570SkS+kfkEUaqy9NyvAbMOiZh7kmKsPm5ssaqgOFLAb9fwuWHPoPgIPfQLmLiAyd0nPJykDQVItYycqK8Y+XA0OmotQeNpsNfaBpARtbjFf0RJHT2zBCanlX9MTuufNNb2JoSzKh0MMG0DWvpQHhkQh0pY0tivXgoRiq7/5PxDcMRbOtPfnHghQ2sJZG/r/vK7qYufow2Sr9AIa9tYmSpjtexFEoyxH58ikM9pIXjPPELl60eq0uoQlLTSmbYoRCrR/8GkdHBBr/+AaOZ2OHEruyEJo9NF4k4whrHxQjUnuBx1QUppHD3fER6xo1rm8NxqmtWtmenT3nnXsKB8Xdl5IxsSa/WpIFXV+cCSVvaljKckhrmE7hc3InJ9zRznS4EqXtrXpNco5DzdsOQEHtE4aR3f4BjI9pXr48l7TEmJu6i/kuBe7+3FdJa2EdeoNnIExKfqrIkCnd/95Yw72tbzcrwjVTuxWKaMbc1sB9Y91HyOXkwbWoKoL5KM2iSiFuRu/fV4Mj51tTqjVmUmFlzTE62lhvdRiRBdc+LBH6D4AzO7V/T73EXLeK7R/w+3I25jA4kve7VPiGY9grdRPEyrKNhWp1F6BXVZjm7/vC7k+JyBNmU8bV2iSy4s/UlWccRqC1+Dko7W+eF5n1AJS8CFPjNr4h8vP3+cwpuzE88x4X2f4eefR9S2EXis6JnN4pctsfzOcXG6pFpEvLzV//M41p8Aljk9yhMCmhCSLzHiMSam0msvMI4BxDE9io0xOhug+Z9Pd38WQiW85xnIFDq8wb9JZGDHNbC+emz4ueP0lOffGf+FwtjTg0Hz+KUUpSBs9EjGDj1yvrE1eYr8pQ57ff+Fuux/s/p4f60OmMJj38LS1Yb/tj7yIyU8TPFLGx5joteV577ZkdIrs+E5n7y54bAV0Kpt2DpiJxRd+Ne+b8Err6zA60Ea7eGOqktUTPVtYYaP2o1dpyUmSjbxQ5s4vadxGROb/qf0vY4ddzb0aMQldRkU/qYYkZFkyPYbNx6E5upjRPRfQE7qmONpxOcwN+LLg2YTHoVxn1Vdpm7+zBl/5yQBVyDaSe+2rCtBNWotJCdMpdRBKuPlpO0dWbCHT1X3oeaarHqS1MMXvsK+0xWwOU5SdKJze1x7tHIBPQVjzP411dROHWttCeTbVEwmMXimx6XWThU1qHrTWvYJR/9Yn58zj5PTnk8bexIba3MUHNIxARU8puxGodbWzYKqInYqhGzFFqk/dyPUsyiMDNOWnOnqQK9J+5N9SWYVwu5Cllam7k4RNmEznmHMfoqrnu2Cmsw/dvMdRl6bMioUNwckqzqVvWl1+p2PQGhk1lX3zDYUWKzmHsJ9wmMnicyOq/icy8b2BGeMh0Iv+Vz6MfyDhMaeCP/kIkeSVga8+1WvsKwsbe0kBuvty7W97hOg+egJNqZU3Fx8TblZI8RdDW1QWjNvN+xITjbxNZ8zfWdyA6g8ix7CUpu3CavnhCud929VyuJ8I13vYeTkVBqibwtDXg0KXsxlFQeyJYcO3DQrlfZez9UstLD78er/pScWw9Hac8/C+u/efVwKGVbMZR42iNquYNT28X8R+EMY+bDoU48wEl6jhKZOQV3HPpUnUJYq67XzGuQz9/EpW1owuK8APLEbbZGnAuYiYiimtvIVcaOYpmJx4BGNADX+ME2Dsz9vP4BujQweO6ax4qC4mI/CNhB5zcybkeXkUJW6bS5GfynWywR9YQHaloaeC+yD/DGuWfQdxkcFQGvvhDgepFaQ3VOB/l5zGWfamRizM4r/hZMCPhIzDoN/+e9assxNns7GANQoZqDV5GzqUWuvAsxir9IAyHi4kzemiViLMX+dnidI7vE6oI1NxIqbj5KN3mruP6tDYOrNLBb5CIjQ0plOY60iD61E1ZDs6QV9Dla4zi4c8aF6VhpHtC2n6Nfeto49oMHs852thwfxWnK09WjLl0iUy8g1SNwQFHKf0gZYp9iQD1aG7AKQtN4CfzMNd87M29v66+CsfR2sb4vjY40utBhHNTx85acG3DYtCvMra+Q9OIri7j2vPSLPJg7mZajvaFTW9gFKbfNzDP/mqgIIXosyCVfPOoBWzunoEYtcpCcv8NVaiEQxOIbhxcoVlVoVpFAcNgTIeSfPKYyPxHREJ0E6IK06Dbm2oR8o1bRHS6+zNyhae3i1zIF5EuravdvqVoBlJ3EiHd/QoG7KvfYyAWPUPkeXyjMu1MoZ+T1uJMzf6psWGysub92pqhrNUucCJs9jWlCJqOrGFtAqMxsuMXkRMfOZeNNOc4a1VZiOFSS+HamnksPZGNt7WJ881P4acwjQ29KA0jknkIA+zoSrTV2gizMfF2kYBIPvOUu0hdNFTjKBWlGY/+HDRaZNAIkbxTRMcd7TguBak4IUnrEByW59LUpygNh8HWwBpHjtYqHKInEJXu+oRrMJBU0fGNpAdamxQ2RMczfvI4zk/mEfNtfi8WAYNpAxsxwvwc9/ZWhJAX8owfDx8OI3J4Nddvzq9or9vcoDB1VuhL2ltZA7UWvPAsNHx/dSse/sq6KPvAuQOsq2dQ97JIPeydcEJqy+gzoMLdn/Nub+Fe0TugFly7sBj0q4jmeiI/Ecqcxt6M+GrN38gtpuyGJvOL6L9hb6jkmNY2NEC5llBfQRmdWmsbNdY4mrKzZ2MfMhWjeGC5Fq2rGDSK9Ti2HkrbN1zrG//Nc0SS+vyfCDRidQkR0JS7oKdD4jCya17G+DTVQNvGTqaUKG4GjkZrCzlIZ0/KvKpLUZoPmaaI/EZRztRUB3swZAobr8Gk0Ut9JZt7ZzupBZUdqK8QKTxHxB8+kpGX0RMxjKe2ENHVlmEUzx1gc68tR9zX0cbGLUIEV5xObf2E2zAcanQWmsDnDR7CT1AsRj5sGA1Jck+LJH5NSsBgQPjmGQiTUZTOupzdh1NQkikSOFhLmRxZSwlZ/ExEiFvfxcDnnhbx8ENM5+Kp6SHG3KTVZju6YcT3L8MRGX49orp9y6CI+0O/b36b79G9/0A0mLzVuE1vRiLOYVMd7MJA+suLcO07O7rXkzu64iCeMnk/EXLma18lire1Y2gRF4m1dfcXmf9r2DMPpVywsUbpz66gKI3r4+arsTQOLlz3/sDeGScg9xSpG1cfnK721t67Rbr68Jmaankv9f4SYQ2L0nCqR867PK14LbiysBj0q4g9X2hirxHziMq+/pNxc5OWRvplx0zqexa4iMjuT6AZI0ZeWpvXK4FjG9hgVATGmKfu1Dpvn1Ao3epiaFk18vIKwejnnSYi7myH0cg9TdSvR0WB1uN8yl3GSnlbW4ymiCbSO/E94q6t7+AULXoax2Pt33EebvuDscLb4IgDlXOC/vB6YZ8exzdBU3sGYZD3LyMKrqvAGDbWUqeu5iZrLxDhlWZjuJvrqN8vThdZ8Bta0ZadR/EuAsNTkNrzeFdTnDtI4xSfcI6Rnsj/9y2nL7mNHesbFMPGnroH4VpAFGVzKTs5d4MjkWRxOs5O/CwiYitrkfv/hUHa+Ab34r3/6G4YbRU1f8oufhJmQdEfXiNycpMifjOj7GlppI7fwYWUjYjI0KloMfSDeCJG0ginoxVnZiBd5tITYXaOrcfQmbJdPmFUQuQlY6Qv5Ip89w8cv6ixdKWrLBSpLOb5Vlbc2w+80X3o0vkTWtmkCo8AHDFVs1FV2HtHPVNY23At7J35viStxbnpS9hadwHa3daez6HC4MhnExHxDmaQjQXXNqx/6BP4/xMyErV/T1xMFGOuLre9lY2qP0g/xO/eGlr8UDAV0vTVySp8hMiDb2IcPnyYDSk9UeTt++gCd/ufRSb/CDZj71esoR7trTRBWfgkzTJMG6Ec28hvG1uMyb6vWP+sI0TgNaWIn758knxiQarWzU/FkW+J1vyjenegSjJgI2KniOSlYMCDYpVJbr5Eecc3kuvc9Cb3Qugwjnn9LzBKzh5E29Y2RPzJW3HeRHAo6ipgCcz9HPkWQZNaW26qmG5VKPtbniQqm/MwhirtgMiXT4i01JNz9wlDRDj1HprQFKVhyPYvg7lQ67MN9nTgO74BWtrRpbvB0uPOl0RcvbRa/x//H8LEL57o/tzacpHlz+KczX1Ee9zWnv74xzdpFRRufjgid/4FOl8/X6Av6Pu57/yo+2vVTomFaYgq1/8L+vyht3Ekvv2bMqDHRSs/60nbYK4drfpcBxfYCrWTW3+hqtNP7+AedfEmNVNV3Pvr1Fa06QeNHw+M0Xo5mNbQW3BtwhKhXyW0NWt10i5e5KvOnzSm3fRorGVjdPYw/3cRRDfHN7IBXKpBTz8IRefub9yy9FIQGE0+1uCA0C0kvs+XiLUN0XNgDH3FT28nYm1pwrgNm43xMzhi7K2tNVpyy38Y66mvqVXR1syIVP9B1CoXp/OYux+GYd4jpACOfCsiVgiZAgajbI8cw0a58TXOyytEoTV7qVBQqd+Tm0WixkBXjpwvIl2kSc4dwHhGjiYPHBJHRHhmB7R++Xk25Io8rk3ydoyzrQF2Ii+ZyNbdDwfB9MfVG6N9IY88/H8Fd6e5DwtSyddmJWk0fdl5DG1ROs89tAqmwCeU8wiN59qseYWNPjBWZPv7MBxdXUTK2ceIimc9CCNlriZbRfREHIQTmxFExs+EQTm9Xatvz01GADft7u5Utwjn4ehGmkU/TMTBhbTE6e19l10119Mb4sRm6HYRfo+5yVizcXav1j9CBAcjKBbdwZmdnP+iZ4iOWxtxMG1sSWUUp8M8NVRxvq4+iuDyJNdq+o95nQqDA2mPtmbjx3uDtQ3vUZCCc6xOhIub0b03vx7q5Dm1wkOf7qsq0urc9XoKC65NWAz6VcLR7zTjHTuZCNDKmg3cHNqa+ZKl7YdubK5DKa0XyWx5m01+6PRL6zZ3bD250PwzRK5DpnYvM7tYRI2Flh1ocwo3Xzb5pHX830rY/PcvY1N89Aui5N2fYkT2LYWuvuHn5tXNHz8iEjcNkVZtObnV8BGMNY0ai5E9vFrE2o4c8KgFnLNKIWcfw0iFj4AhMM3b69FcL1Jwluu9+Dki76PrUPqn7MFIjJwv4hUo0tmlrY3BgfWvyOcDn9zMtbd3IbVQU0rU3FzHNbe25n4IHsombPrjHYpTEhpP2dS5AxjRlnqOa22LQakoQKgWPxNjnLJL5NY/4Fic2alVUcx7lOtQWcQxt7wDXRs5lvcry+EYvhGwBG6+fLbeSp4ix+KcnNiEszZsNuublYRB3PUxQ4Z6U3z7R8F05CUbN2kKioXlcffveTpd8lbSK3nJpALUBjJjb9YcxYp8PuvpbcavrSlFeDh0OgN6YiZjVB1cUMO3NLKWiSuImlN2830/th4DGTECPcKYhd0jec9AXluSwXmZikF7gqpONzixNzTV8freAgMRvhMlmbxO38nQpCXqAQAAIABJREFUyoo9SASH82IGKVlw9WAx6FcJuz5Wmo4IG6OzB156VyfRkh6OrtCuBkc2yZzjbMZJazES1jZ84be+z+v1c6UHirIc8oAq2ls5t/6Kca4k7OzZcNuaiYhzk4mcrASKPDAGkdXJzWxIXZ1EY6blVN//mwh/0TNQs2d2YCAyDjHAY99SmI7mBhwFR1cMeEgcBjTzkEhDjcjo+Rg2vwiMpTnknYaSnfIjeoLXlqPYz0+BNg+OQxFvayDST1qL4Tu5mfc0OOA0DL8e4xYaDxNRVUTU7uyByM47FIewqRZjYe/Ud0+DiJE8t+w8uevI0WziLQ0iHS10dss4SMVAyFAM09BpRHel2ZzH2X3UTftGMGHPyZ3GNVVFnNuM+8m7R47BQXLx7rtGfPB4nLXT23EI4mdwTUqy6Pevvr40GyfWwaV7bjxqnMjOT0T8I4xbr/pFimx7t/vksPwzlOudVu6F2/5EesQnjN/+kVy7nR8zFtbNl26JZTlKmkzp0Trnlxh/PavVXA+rkLwNZsbNB/V//Cx+fMJgTg58jUPlE2b+2rU1c54u3v0vG1PV6ZX5CO86O9CS9LU/WFvDQNRX0oNBhWeQNqzG1p6yTQuuXVgM+lXCzo+gJW3tmL+tImwYPza2ROBDphCRBMVinMbfyuZq70w0VJFPNHJ4NQbMyf3Sas8zj3TP0wXFDKzt6pVE3Aw265HzRZLWsEE5umFYvQLZDE9+TyQiwmaqb4N6eju584feRFi2/QORyXew+d/8FOuaeUjpcBZIZO4ThqENGwbNvuDXrPW+pRxj/G3dz7O9FQfBKwjDKYK4aceHRPyTlvAezfUwArYGqPQzuxBwjZoPcxMYw/VVS+AMjtDdk++EVm5qoLObRwBRsVcI77f3i97HhKpw8cRJihil0MItlE+OuhFG5Oh3GrsQMRyDtG8ZDEFnh8i5RJTb5/bjFMx9FMfl4DcoudWcq62Bx/NTeE9zTWj0iBorUnRW5MxuHFh7J3LIngGaGOvoOoxO7qnuDImdPWu/6d9E2er1d/GEfSjLxklVhwglriSVcMszXHM9I9VQBRO08XUM2txHOJ+dH2Nk21sFr7ILh0fv3DXVosGoLqb3/Kh5rOnUe5QBK35c46HTSZlkHGLtvIK7z373DOK1zXU8t79oqsNR6OygWqOnEbB6eARwzzfXc276wTYq5V53oXdmyoIfHhaDfhVQnIG3LsIwBtOaTjdfNrSh0zEipt60uz802Nib2QysrYk0uzqJ1tL2E720tRC5D2SuupWVdm4qZv/UuEnLDwk7B9anJIvIet5jqL5dPER2fipybh9CqOt/zsjY9INEFEExGMo1r6BU9wwi0pp8p8jmdxCBufthUHNPifzyE9Zzx4ekHDIPYzzm/JLX1lcQVTXXdb9+hWlK05FxbKAiUKWntnA9q4pIA6g0aoZybJ8wWouW52pR6tHvuJ45J7R6/fLzbLgFqeTjQxO6LZPYO4vUXzAu+TOH3GQiuPgZInWVUN5qqVJHO0b0jhe4x3Z8xJpHj+e+3b+MKoDKQpHso3ymIVNFVr7Aeuaf1mrdK/KJfm/9Aw6EWPVMe6vwi8Lhsnem+1vwEASDg0azrs4e0NatjUTyplS+Vwi56pRdsA/q9ygkTqmeKKHszc6edZ/1kDEV3VSLY/T9W8oQnydhL7a/j5Mz/lZGuQ4ezzWpr4K1cHLXKPM1LyNCu+dVrpOrD/dkS1N3UajBkU59NaX0+Deda25w4FjnT+LY9rdbm52DksrrwrmN6eesiLJsrq1nIPoXFe2tWgpk0KjL193SgssPi0G/CjiwnA1AhFKmS+m6lHFI2dQU9XXMZCK44nT+dmyDSHURuTB1Az20CnoxbR+PmQ4TaWnA6fAJQyEeEN3tbX9wLHsWY6xGKl4h0NJH1mE8oifSRSxuBhvOpjfJy46+EVr+2AY21KS15CyDhmC8Nr4mcv/rOEHqdVnzikh5DrR+dQkOj/8ghH3ZRzG4qlAp+yjXdsRcrdwqaR2R3Phb2ej9BhF1pu3nuXYORMWBMfw7aR0tYtuaEYM5uFBqlJeMEQ9NwGEry2JTdXJT0jAHEd9dyGUN8lNF2powPnUXcPBEjEvHbOy4zkOmsSZ6evX4Bq0e3yeMtU7bL1Kao9Rnd+LMnNpCSsHalg53g0YRuYUmsFYt9cwkX/BrjHPYcEXg1aL1EDBFeystXeNmcC8bHDCcTXU06Em4jvs2dgrRbOoe80ONKvL5fqTt5/xtbHFiMo+wntN/TDth/0jex8EZluL4RqbnufqKzPsVQsydn1JbPvlOct1qKaWLNw2BWhp4z8Kz9AJI3UN+/OanjFNWnZ0ix9f3HN1GTyAKPrYBp1DvTFtZkW5zdDUeztMbXH2UKpkuPm9Pa26KthYMt4hxBYezJ46mCPvHQDr7WXB1YenlfhWg1mJ3CR75xeLAcoyzHhdyRR75nFxo/hmEdCm7+XF0w2CrzkRzPf3R73/NOBKoyMeIX+755JcLZ/eSrhi1wPjxykJo3fYWPpe9C5FbxAi6n+WnspmHHBOpKSHK9o3QKPFvnqMUTi80HDqdSF6sWBN3P+M63lueRnOw+W3W1j9Sa6/ZWI2BG3+bsXjI0Y3NfNwihFKrXqD/QORoqNyYSeRr1U5d0ZNwzsYtEvn6OSL3shwiaivh2OEjcFDUXHJplkhVgUhwPNe5soCIuaVBpLGO6LOpFi1AWILIyY7uJXl1F4zPO+cEBjZ+FnR/VhKd+RKuU7rq7YEFUedxi2DYlj3La/Q0+8TbMQq2duYZhvREUg7jb+P3qpdgN2Y+gOFd/aLIj1/DOHkGsiapezg/Fe2tPLdLRGorcDzyU0gpjVnI90CtgNj0JveVixfaibBhpDKyjoos/yNGe8KtPX9fAwZrDZNam7gHz+zACTEVqMbNoIQuK6ln8eqNv+Ge+P4tkR//U3t80CicvtS9/U+tpe6R/+b4+2JF9FBr0HNOGD/u7MFxakrZYy7HwCYLrgwsEfoVRnsL9c4iIs5uIhNu7/35vWHLfzAIejTVKV3BhrJZjb5RE4bVlmPwTWHvrLWk3PUJUWD8zP43KekJ7a1EK87ufY99HAhWPEfUozcQJzZheINiRH7yH6IoGzuRo+tpglJVLPKz9zA4Oz/FIBakchxbA5v2kMnd885b/sP6LPkza6pS6HqoAixnDy2fXp6Ls3XdT7qL8vTobEctXZGHYRx1IxH88Y1a1J+2j45smUdEpEtk0u0YQs9ArmlgtEjOMaLQs3tEUndD4+cmk/vOPUVkKVbQywFRdKSLn0EEbWuHcSnJ5Fq5+4uUKh3N9NHcgeXaONKosRjHkkwco1Obaezz4L+5Bge/wVna/RnMSWAMaQf98YJicVSsbbqXUSVvJ99scGLN21roNTBqAVHr/uXUugcqde8hcRi/hFlKU5xknACPAKX2vpN1CBtOyiV6IuuwfxkG9vhG1rK1iX4Gzh7Mu2+oRtg355e9N1IJGwYV3ljNvecZBCsx/cfdleC2BpzmkqyeS9BsbNELJK01prWtbWhTXJDCZ+hLrd5QTefJDiXP7+rdf4GrnT3MT30l10rP5JXn8h2qr8Q5s+DahCVCv8JI1zWTuVSqSqVQTdFcb/x/3wh+Jt5OgxbTGczH1kMp6z3x45tEJi4Z+MxzFXUVRLw1pZQqPfDmxR3HFIdXQ4PqN6Uja9h47voruVEVY26CnixKRwG+/Fk2+7ipGAwRDFrOcahMU+fq2HrK1278Te95wqS15Hh3f0a+1skdSnzeo71/luxjGOnp91PvfiFf+1vIUG0CXNQYcrDOHpTlZSaRh21rw2lqaWQKnB6VhSJlmSjUmxuIzGsvEJVmHIK5aW1iwx92nciiZ3lO6h665JWfR+mtIje5e6mYnT2NfYZOowxQTVE4uGDIlinNXyKVSM/ggKHVO4pjb8bxsbUzZols7Yxbi06+k2hww+uUhM17FGdr8AR0Ao5uGOJdn2hrO/9xjHn2cW1E6ZQfaR0XvUOh2Le9C8OhVpcc+U7EJ0Rk/qO9D1/Rw8FF5L5/af/PPsrvniLw+Fnk13ubXBY2nL+lHTBOy8VOxsnLSOy9L3tDFXqGlkaRqPE4bTnHjXu094XQBJy2vNMakyUC3X9mB6mIwjTzvR4s+OFhidCvMA5+o3WxmnbPpdVx1lfppjUpsDWITL+352YwTbXGHbvsnUQGjdFyZSo624naL2Y4jAiTxVS1fFMt1KO56Hag+PZvIrf/ScRRGVuZfwbDe/vzHD9xhXFDkfxUHJjRN+KwNNeLNDcSRfpFaL3RF/zaOOI/uZkc8oJfG0cmeqTuIXKOm6HkoaeKfP8GUWVfdOjBr7X58h4B5MszDiOYyzrKJtzWTArANwLDv+dzlMo2NiLjbhWJncSGOu4WjNTZfbA/NrasRWszVLCTO5/NNxzDNWQque+gWJHqMgzt0e9wEtwDEIeptfIZh8nXph8wplbTE4mqPfxFkr7D4Lp6cz1C4jieZxDsRFcHvw2OCA2zjhrPPg+JEzm4guerauqaMgy6/p6JnkBr44AonIT6SiLsEXO0JioHV5AzHjmXuej5p4muQ4by/IJU46j4/Emcu+J0juEdQlOhafeiy7hY5CbzPVfr2E3hGUQKwMmdz9MTGqphXsbdoj3mFcw9X1MmMnqB+ddVFtK2trqE5y/+I5+xIJVjmWunaw6dnUqKqxPtiQonD0se/X8BFoN+hbHnCyKjLmFM56Vg0CglV6q0cnR0E7n1md7rfINilai7i4hr/mOIhcrPa46GiswkImwHZ83YnfyesqWW+t7FfMnbtdaYIvQ5v9jaeBUHv2GIykRd2c3Wd5j5rk68qizEEKolP5vfElnyooi7L9Gzoyt5Y1sD65erzKK+kIuqu6YU+jz9IBPWPHoQEKXs4tiDx2t5W7Vda3oi0aaLiQOTc5zIKm0/G72eZaivgPYtP48SPHqiSO5JxHHnDsIsTLuH85twGxR7xmHOu7qEDVo1hv6ROGpNdb33Li/PpTQtdgqfIW4Gx0tcyd+m/IjzSNsHXa46B23NRNVTfkTpnsERhqOrExr+4Des/4TFnEtVMcbUzYcafBEqBPSOUuQY1OMRI7g27r5cA/0a2Ro47pZ3yYFHjqE5z9F1iDhbGkkjHP0OB3XKXUTyfoOU6XXDFYp9piYMLE7Hwe3sIHJd+GTPDtxAkH2Uuu/eppLVV5AGSLiu5+fY2GD4I8cYpyVKMkijFKTQCMg7VPtMp7dT995Ui6Fd/Gci/cYa7veAwf13Vlw8aexTX8H6qBUzBgcMfXM91z5+Zv+OZ8HVhYVyv8Kor+R3f0tO+oLfIKVr2UMY5r4oclsD1Ltp3mvMQiVHqyBsOJtq6h5oaTdfNo2c4/w9LxkjY679pgjGUu0FPfun/Rss0xeOrofaVlFbzgbjE4ahqy0XCYvHafIIgFYOiCECOvG90jrXC5p36zsI1mzsRH7zNUYx5zglUB0tDBIxNxZThXcohnDcIja1lF0Yz8gxygS2N6j3zVdag7Y0YAS9gskz65G0hkh5yQusa+IK0inWtmzWs3+KsUzbp7XjHbWAv/soG7lKa6sCM7UOvzdUFBjTqCLcQ8Nv4DPt+QyafvbPqPtf+3cRsWIzH38rDlD2MRgR9X6asJhI+cga7ZihCUTCBSm0+/UbxL+TtxnXU8/+KWVqN/6W+6W+CudBT70PGg2Nv1xxemxsRBrquP5+g3h98FBy6QmzucYlGZx3QBSO9LH1WmvkMTczo74027xK/mJha6/Up/eCIVNx4uore27FGjYc5ywrybh7nDrzQR2Pm7yN72LmYc0xH7eI1IeKiJGsR25y/1MJdg4EAUXniO6NaPcEvjeFaf07lgVXH5YI/QqiOB3vWYQRlL155v3Fvq/Y/G95emD15qZw81VyiF1s4DPuJ/835iaMV2MtdKra21oEozFkqnn6LvMIXv09r9K05FKRsguh1rR7tcdO7xBxcKK8J3EljEDeadiDtP1EXg4uCMVSdtPMY8JtWrvU86e0/t5RY9nQi9MxCH1RiC5eCOhs7EQ++iUjTlUjYWNLZPr573Ae4mYQialK77oLsCjnT4hs/5Aof8xCBuvkHCfHHRpHhJl5GEfFxpa1tjVo43TLz2PwLuRpAzX+iy7YGz21bYrC1J5zn7YGzit6PB3MSrOo+W9rImL0DCIqnv1TY2W5CFG4VzBOU9RYzt0jAI1ATRn/dvPDiBZnIDp0dMV4GBzJzYYN5xj7lnafYDd4PMfOPYVhupBH9NlUx/dg5HyRdX/HyNk7iYy+iZxvewtrVnROZNgNMEZ29lD2xenUZ18uR7upjvc3HRikh6s3TqeTm3Gdtx6tjbBd2cdw6KLGkUrZ/anx8zrauN+b6rgvb3m6u+DO2UPRhdT0TNWbQ00px3bzMdY/tDZzr3Z1aqNeLbi2YInQTVCapTX1CBjcfYTiQKDOhBYxX6ozULQ2IVjpr7fdF0oyMeD6mlM7B/4/dLrIun9gYFQUp4v8+x6ipiFTtY09/SC11EOnXR76UgSq9LqfGD+We4ooc+ETxvR/QSobur0THdcKUsk5p+4hN97RxnUdNIoyqJ0fMxnMJ4y/3fPqwM4tdBiKbD3OnxT50d8QzOWnkH9U12LVi0TrwbG0n60qIvp18VLqvl3Jne75Agemqgg2QATjc3YvUVF2EnR2XQVlc9Y2bK7eIRiv6lJEdfUV/K2jHQfAypo0Sn1V35/N4ERntJpSaFzfCJHHl4p8+ZSiCO9B4ewZhAO1/l80ZLG1h71I3QPLED2B6PzLJ9EG/Ow9zjVtP9emthynKm4GFP7kOzUHbcdHnFdro7HIdMJijPvG1+nnHjTEuCtaaAKOnU8oYjG9iG30jTBAs3VdGy8FQTFcg5KM3vs4DJ3GepiWYKrYt1Rj9aqKRZY+3TMLN2KuNnOgJwQPYT9rqO5bIa8iNB4xqmlLaj1joEbweckiYsV+MJBudhZcGVgMuoKqYoxCRYHx477hInN+1fMYxN6Qd4bfXaJt0JcC9Qt2ORSm6rSx3mjHibdjqNpb2Gxv/QOb0fEN9Eff/SmPZyhG/+xeypyc3C/t3EqVBir6cytIJcKb/2j3XL6rj0hri8iCxzGcF/JEKgpFrnuI65abjBFprseILHkB6nPXJ0STfW3CprjxN8b/b2/FgLl6Y0irijRKtTSL3uluPrRJPfk9DEv0BCLP/DO8LvuYyM8/4DVNdbAI4SO01EBzg4j/YGrUa0o1dqCpDhGalTXHijGN3AUH4+h3lMqV5ZBbHjG397SIuz9jSE9uEnnnAVIXE2/HOVn4lHkRpncIDsn613C6bA0YaLV3QvQEDO72D2ArTm1jLd18uZ8CormHBo0WWfYM0byDMyV3VlawMV1dIk+shoLf/Datku98CQbgyycRgKkGsK2Z1934O5H3fsJ5qA7JoNGUmbU2dZ/ZfjFw8oAdOXew93spbBhRc1lOdzalqkipIdehsQZWyDvUWKPi7k93xL4QmoBBP3+y/3lv9fxLsowf9wzUHKvD3/JbRf4ZvlNLXui/42DB5YeFclfw+W+hB03RWMOXbNDo7qKnvrD7M2WYiNXFRwJNteTIqgqZfFWRj9HsbRxif5CyC8M384Gen+PiKTJ0KtTxhNvYWPwiiBojlZGg6Yla7rCzg4g3eKj5iWf9xYbXqT0OH8H/m+vZ8GMmosI1pSs3vCbiEywy5W7ESd6hlPAUp6PK3vKuyJLnMaDf/5tIIu8MBiJyLFF1Yw0594tB0TmMx8nNiLJcvLTUyJq/ociPGksZnXsAhs0njLzyoDEwLu2tRPQGR2jhzCPkpbs6uUYJ17EeHgEo9e0d6at+8nuYlvDhRHbmqijc/YgMR98EVV9bTtlcRiLn09u9FBDNOjZU4XjMfBB2I2iw+fbAzh6s+d4vtLSAvTMKbFs7qO+aMj6v2klORBkdu1Nkxn0iW99Dg9BcT3VDcx3Gb+Q8nJvy83ynasuJ0tWZ7B2t3NOq831svdKEZzgCujO7cABUA97ZgTN3uUqwmutgBMYsNP/3lkYcorYW2uHa2XN9D34tcngN90xHu/FrbA0wC5Pu0AY5uXhRDdFfncqZnThC/R3DWleOBqWrk++FV5Ambsw7jUPZ0db9dU21sEf9mSlgwZWBJUIXooKGXujIjjY25pkP4mH3JwJtrNYMnesAjG9dBUYy7zRfXr0XrGLfUrztmIlEhheD3FNQ0H2hp05TAYP5aWvGMxchalNFdeHDEdTETh54X/jSDGMxXNI6ZaKVM0bOlK4sTBX51acYtPI8kV8okW5BKh3Bmuqgb2OnsAnWXWB9H1+KU1JfgdL9k8coYQoa4AZ/egepiYmLiSrDhonkJ0Nb/vxDDOKZnVzbzg4cAIMD7VdVTFgskvgNtLg6XnXmAzBHydsx/lVFCJ/8o3AC9KkXlX3oC50d9Oy+/hdE9Ue/I9qKm0b0b4q0/ax3xEjWcsvbNN359mWMjGl/chEYlPiZsCIz7oflGjqd67DqJa6lqTjPzh7H6vwJ6HuvIEbdunpj1Jpqye1bW4vY2oos/BNaiR0fKf31r+fniydgBUqz+V7f9TeOP/ZmGg6d2KTpMobNFln2h8s3cCR2Mqmiinzz0/hUJbyKvV/qPr8DaxYUS0Mdta2svlHNhMWwDO5+/S9/VUtWs5JE3v85qYzelPh5p3GQVZzagvOvDuextu79/VQRrQU/DCwGXbo3ZjGHhmpydSJs+AFRUIxeIURNplFO/hnt3/3Jw9eWYajV2cMiRLluvsqxrWh3KULeKi8ZBmDCbVr/7f6irRljN+eX/X9NT4ieiEGPGMnm7ROGs5B5ROTQavLVIXFEx7GTe++iJkLk6BNh/FjaPkq4RChZOvm9Ng5z54cwAnYO5Hz1OdSQOCKeafdgDNIOQOHuX6bMmFbU1C7edJDLOw2NK1aUaPUnTVJ4lmth7yQyeCLRy0eP4IhN/7HIjg/YpKPGQvcu/0N3NbJaX93eiuEJGMz1KcmAkRg6Fa3DxtfQZYSY6eltbU1E1RMqC7mPCs8SRUaMQnClMjSHV9HYZsJtGjNSkY/zo0Z2C36N0V33KkNaNv2blIU5QWHkWBTz5w6wjoPH46jOf8x8f4LUvfyuLhW57zXuGxdPUmCJK4jqJy6m58Inj/P9Co7DWc4+hkgyZhLR99JnOK9bnoYiFsEJHzQGIaJq0A1O3DvF6Zc2X0GFGl3v+Ejkjhf5d1MtjW6yjxrn/1VMvJ39RO9cx07FkO77yvi8bA0wJoVpSpqnjwqXnBNal0oRHNet79CRztw91NZMP3vT/bC9lfu2P7hcIkMLLg4Wgy4DHxValKYZVxV2Dhh4nzC+dJmHtL/1tVmkJ2JI2pr5/9BpRBt6IV1ptshXT4kMn8M86tS9UIq7P+Nn3mP9z5H9Nxd/GWael2WTv1z8nPZY+Ah+Zv+MaDQ3mc+4+zOMVcwkjLuDCwbCxo48qa0BFfDsn2nHqio2rrOf96jIN39mo4+ZxDrc8yp5/uIM4/NI3sb1GLWAn4JUkfX/J9LejoDLFGHDRGb9ROTbv5JfNThyTXuaYFZfgSFZ8gLG8tRWZoRbW2uldXaOGKNxi3BWbvuTVi645T+8rr0VqtnGjmvcVC8y8z6ReJOqiJjJIpXK3PGm2u5OXG/R0+7PuKeqS3AOTDuaTbidNrTb3sPoBQ+hIczCJ4yfN24Rhlbt4Lb9Q0rJ1Jaseoych6NSnIGy21wfhtoyxIARI1lH1eHwDqGpUGMNzJhq8I5vhE3b9SnsQEcHz7npt9xnUeNQzat6BD0SrkOlrcfwG3j+5TDoamSbf0bp+tdpLCxzcCFVoJYYRk+gssEU9k6UCSau4Fh6/U5QLI7ehdy+dR+mn1VFmolT2FANe1F2vu/gZvB443JXU/SUbrDg6sBi0AV6LH4W1FJPUL98DVWK6KqACEatyWxrJpdZkgm9qkf6IYyVbwS1xJ6BGm1/aBU9s0UwyNPvM0/pl+XwOyAK52HEHH6S1kLdbX4LAzL5zr4/b34KNPildK1TUXC2e4tQFYVp5FMnLeGnLAdKPvuYVhPe0YZo0NGdz99UZ3y8ugsa7V94FgbDzZdjp+7FkKfuIT8ZOdr4/Y9tELldZ+BD4kRsHUQmLmTDHXsza6hHaDwahYTrRL77J+/z2BfG87JVHFhO1Kiuo5O7SNYxVOKdHdCP4cNwIPZ+CQsgAp284s8Yo5iJRI4NVXwen3AiR2szGgQ7BxgGdz9tcEp/ETmae3jb+92V6i2NIu8+iCN5429JYax/redc6NAZlDCte1Xkzr/iJEWMZiCMgwuOkK0BB2Lq3SIf/lLkgde7H+fEJr5LM+7nszm64lR99SQix4gRItfptCdZSUSud7/CtVGFgV88Qeviub/iOM315oWOIXE4T43VWhrIP5Ko9VLQVMs9fSFPeyz/DPvK+Fs5j2glPVJRQCrg1Ja+SyUDY7p3hgwZiii14GzfBr0nHUt9Jd+N0ix+TBtMmYPBkRHDtgaRfymleV1dOCgqJizuuVOeBVcHFoOuYN6jGNxDK7t7qSFx9Im2c+BLqq/NbGvmS1dZSDRZnqsoyFuZjKXWB5eaKEYdXIi0VFX9xNvNe+sqyrL57W/SNnLcIr74a17Bozc4atO/ekJh2sBZiZ6Qc6J7FCdCF7BTW8mB/vifRJN+gzRlb+FZpkupKElHSGVlJspsaUDMVpIJQxGjKL23vgfleu4Aax8zGarb4MR6O7oYN4tRN1w1Yj++gdrxYdchGBNhw1Jbnnr4izRWYTBm3icSrVOQ15YReauRTnsr+f1HvxDZ+i5/D4kTKcpgM6/IYyDM7c8RLVvZiIxfiDE/d4DrNuYmpZ1qCiJIU4TE0YP/Qp4i4FQMenM9aY7aCz2XJ9m7cK92dXTvU1+Rh1My/T7+Hxwn8pN3l062AAAgAElEQVS3SQEd36CtjR4j5tIueOmzImNupCnNg//WKO6KApH9S2FCYibi/Mx8ULnWmUTFCbO5DlvfwRG67iGc6tjJIoe+7Z7yOLmZipPAGGjjE5t4/fDriYa3vU9aYMQcDLw5g2dlTWpFr18IGwYlrjbr6Q+K0zHiOcdhz0wRNETL3+vhHYKT09aMMNPc2v73GLHoM/RQWbszO2BkYiabFzVWF9OzwRRdXThGuadwjD0C0WI4Kd/PPV9036tEYFtUij9gMNfQwZVr7+LFuZrTDVhwdWEx6DqMuYmf8yeVMYxd1LCaKwVSYeeAgTedVPav20Wkiy/B0OlQne1tWmOQ5npjx+HQKkXw4o/RDowmGg8YjPBNHYFqrnFISByjT5c+jRApNKH3vH1ZtjYq8VJQkkGEbDqnuboEYy6CECx5W/eRi/qyJ2trFMgqynO1IRQuXmzy6kxqFW4+5EndA4h4PQLZwN7/Oet9/oTInIeN33PLf0Sm6BiM0UoN/qFVIp/9RmTyHcbXWn2/OiX3mLSevKyzB1S7fgNb9SKUcpHiLKXsEilI43NUFGC8assZ0DF8LmrrtX+HcbjxtxyjspCSrl99ynEKUo2jOFsD5WPWNpqGoKGKTX/QKGVASzbOjT5SqijgPk5PNE+NH1rN59JT+HYO9AE4+DWG8oZfdH/dqBtFUvZg9O9+VWTtq1ru2DuEe7c8l43fyorctrsfTEzCbG18q18kwr+yHFIS9RUiB1d2b2Pb3koq4OxetAVHv8OgD50O3e0VQoonKJbvi2meuTSL71fKbmODHj0R1XlvBr2mFEo/V9GvNNejvQiNw8EMH8k9efAbHA+1FXFPCBjM5+gNfoNgE/RjV9WhMxUFpB2Ofidyx0s4kAVnYQaKM4xV6Gok7ejGesVN71nsuuR5kc3/Me4/MXiCcYMn71AMeks995k59sqCHwaWsjUz8AjASIUmXJzX2VQLFS4i4hXKnOX4WVCQI+exyZ9T2qQGDWHjaVcmqbU0QOXnnsIoHF7Nl6s8T+l0ZTA/ftLRjc0y4xAbY09NHqpLyL2Pu+XSm8Ck7GZTVo2LipYGTfkuQkR0fAM5uvZWomY3P34bnJTcaRr0up0D+bzCs/y7MI0NdN6jxhvHns9xCq7/uci2DygLbKqF7r6QR8SVcZiOdx7+Is01lOLonQIR1nTQKByck5uJsr1D2ZxV2DtBbzu5Q/UeXYeorbkeJ23v50w5C4wmYutoI62Skchjk5ZgdPOSYVQGj8NpbK7nWqopBkc3nIHqEvQNGYe0kiwRNtGDK/hs7n6sa8ouzrWrC2PuHcI4VRs77qH6SnL3I+ay+evrtEWU5kedODKfPs5a6IVNoQmo65PW4YSoaG8lzTP6Js7L2oo1PPG9lu/2CsGZ6+xQItLTOCgj53N/bHsPZ8nekRntAdHMEziwDKNfVaR9/ppSjH5WEg7ctLsRR4YMxanLOY6hOrOL9e1og63QN13Z9j4Dbs6f4vi2CiXt6iOy50sR3zDj4UQlmZzn9g8w1NlHcaBCE0i1zHsUZyB4KLoCO6WZTlsz16KnWerqfXdkDeesloTp0d5Kn4Tack0oG5oA06Gn4VubYCpS91AJUVvO/Ro2DKdl7EK+I9N/zL0XGt+7cM3WwHWOncK1qSqCMdHreapLuLdEyKn3NpnQgqsLS4R+BaBvAGFu3KGqdh08QeSW3/Pv+kqFti8iwqrIV1TGFUQ5ImxSu3QtIL2CNSGe3yA2y4iRGIt/LcYgznrIuExF3QyCzERqA0XeGfNlS+7+iGNOb8eD9whgo8k4pHXPCxvOZjxyDrlT7xCR+guI+/wj2djPHaALnYOryNfPMZRl0Cg29fREHCXPIPLKzp5swFPuEmlrhGnxCMS5+fIpqNbh13c/VxWuPtC1lYUYr8OrYBX0wsGocTgYp7YgBlv4BDXZ1cXQySe+hzUYPU9kzd+hoFsacRSqinBePAJgNuydUJi3NsIQjJqPw+IfhcMVEsemrGcr2pqVNIKnFrH5R0I3Bw1RnJPRvKdKV7c1E7UlrkQMFT+L56hIT+QeKUgh7WPOyRt7M5v2hn+K3PQkRiRlFzlsZ0864C17lijf1sAUuKHTeN7R9SJB0Rz3pt/i1LU0YuT9InACgofwvDUvc9/c8RIpiJUv8PlSdmPQbeyov1Yxch5z0hc/h7Occ5L7rL0VpfjaV7TmRFvf5W/DrhdpacIB0Ndld7ShqxgyDTr/7D5lrrrwXUmYzb3enwZTYcO5F3pTonsE8P3MOSEyysxAoFNbtLkAIqTTEleYP5azJ9+zyDF9MwP9hXcIGoasJOMxvyLG71FVfHkEhRZcHlgM+hWAOtFLhB7uetRXaB63vrWpixc/prnt1iZl4tlSNgoXT6i12jKMT2Wh1qnNFG3NUMXufhw347BWxlKWc+kjEIvSjMc86jHzge5NaybdgSI58whG8Ow+Ih8bOwzhoFEYNYMSEdco/dLtnamV/u4fRLQqVeviTZTn7kfkNG4RyujidJFHPuc51SUiZVkMQzl3kLWbfGfPNfhewYirVAV78jYibHUKW3uryC8+xAAue4Yoe8Rc5s6PuYn87Xf/JzL/ERybwjTW3W8Q67HhNTZf9TobnDAmaQc0gV7cDKKuqLEIyobNxjBVl7AeyVu57l7BTGjr6ICCPvA15V5ewVDsVjYYxtAEzvPmJ7nuyVtFbvgla+8XwX2Xc9x4XKYpYqfgdK54HkM4agGs0ke/ooPgTb/DaN75F0qcHJxxyGxttB74lYU4EB1tmjOz+m8wHrFTyLeHD+Oci87BruxfzvfEPxIdhR6jFmA4RVjPnR/DTGUf4/8N1SLfPEfqYtBoOsrZOVAGeOAbY4NefwFxZto+DFTkWO6R4CHGw2L6g9A4PmNZds89Dba8w/dz58c4N1Hj+Mz5KSI1JcbGXEXYcNgM0+97wnUDm3neX6gpj6oi48f1YlrV6bHg2oDFoF8BqPnuLhHxMxGxZSpzyGOn9I+qMjiKoq5j5rMacbQ24jlXFEAxd7ZDaZpTrK58AeNXX6E99s1zRJDmlO4V+Ria3s6vIh/jNtCWuE7uWjpg+n1ETbnJItve5fe5gxjCiJFEgU4eIj97l8gyK4kNUDXoHyo5cu8Q1mPwBEqtco7x+dS64KGz6H418wGi1SNroHVH3dhzqZ+LN4zAhVyMiqs3UZWHP05RTRmPeQZjDAOiue6b3+bzeSrremKjiJMrRvzNuyjJO3+S3t9qUyBTMaSjG6Iu1YBHT9BynodWYfzrK5WWqDYibl4YvPGLlC551TAS6/8PR8nVl/tkxA1Ezq7epAnOJYo89BaKZ/1M+Z7gGcj1UBsm2doTJeclY1zDh4useA7h3eq/EvHPU2j8cwcwWJ3tXOeWBkR8YQlEwINGc95rXqbpTthwKO1DKzU9iHco18NHYSzsHKD10/ZjnH1CcXST1sICqPfvHS8aU8YegaR39Bg0ll75nsGo6MtyuN88A0XcB2jQbe25hvkp3Q16WQ73yRmd2E0tPRXBgfAOQyuRts/4tRMXw+BYWWssX2jClSsVU/cGdVyzCv1QFtO/WfDDwmLQrwCqFK/VSoxzciI6tfoAhr6oXrB+prHBiY3QlDr/5LHuHrVPOIbTFJ8+zoYTFENU4h9J1KyW0U1aIjL5R+bPqTQbA3epjSTcfMkz2zsTVZfnEsEnb8Nw1JYhpgqIwgm6/3WRdx9iXGbeaeqyq4pFdn2GGOjkZhHfQTQwaW9jU9r2vjZMJTSBn9pyItWPH8F5SLiuewWBunY3/U6rYfcMwig7utH1bNx8Nv60/Ri06mJtQl1THYZ+7M2kHzyDEDlNvlMzoqaUbEkmBu/ul2lIEj+TaoARc6DpbezQC7S1cM28Q5RmOMJ1L8nieoYNE3ngTZwiOwf67hek0hPe3U8bwrLhdZ7fF/KSec+bfktHu8KzpCPG3oyT0VCF4v/AcgySlRWGx9GV3H38TK5fcz2sUcxkzRnc8BqOWGcHn+e6n2h6Cc8g6HZ3fyL9lF2aQRchZbPnS9b//AkMob0zugwHZyJhc4ORvEONG8rMf0zk08c0Z3Pz2xjezCNUaQwEa15Gz7F/GQ55ZyeCvOL0niPa2/5onAoREZEujc0bOU/7HAufxDm0s9dEiFcCaoWIqkfQV0+4+3Ndqi0G/ZqCxaBfAahtZLu6uovXqkv5bWroe4M6fam3qUoqpvzIuHWjizflMyc2scHo4R9FU5Cj35k/VuJKOoq5+XTv8FaQenlmnovgRKh5Od9wJWfcBSXsH0nZU9ZRjLUIxiLhepyRnBMIdMKHUf/f2Q57sOszDEBzHXl4U5W2my8U79R7+Pv+ZWxaw29AqKSWX6moLqHRy/hbMVqZRzAC6YkwMXe+RJctKxuiy81vY2Ae/pjNvaaUaFgEkZWDM9dk5Dwcl6wkjLG7H93aRNgst73HRhoST8TZ0c71qioRESuujb0zxrW2HKPbUK214DzxPa+Lv44IPnUPpUkOrqRAys/jlKXsggUxh4IUnDcnd9Z60p0im17n2tjas2ZrXyE14OIl0lQDfZ+8FXZBX0bp4KKseSL30OntXPtBSue6C7n8TaX/h0zl/+MWaVoMEQRqKbuV9sjNpH7mPy6y+i84D7XlOHP6Vqt6BMVCzasGvfAsFP+ez3FeVJatLMe4br0ntLcqo1qVcjYVOz/WKldGztPKu1a+gPMmAgvQzZgL1Q8j5tBIyVSB7xvRvUb9SsAzEIe5tszYoHsoBr0/NewWXD1YDPoVgNp/3dxEKnVD6qn7mDnUlve/H7oaBW3/gI3jtj8QJQy/AcWuusH5hovc+w/+XV2CUCvnRPdpT2rLR1sDG7hnME6AOuc9cQWG4VJw/qTWeENFRxuRWuwUDMm4ReRs93yB4f7uH3xOGzsMZvBQDOvZvTALOccpuaq7gBFM3dNzI5aYyfzUV6CS/vIpovZxizR6MXkbVKyIyPjbYBJObcWA2tjAvIxeiPBu23tQ3TGTMdp5pxGMqRh+A5vhoNGwD3e8SDRrZaUpo7OPUs7V3gpNvulNaoUnLIYy3vQ6xi/jEAanLBvD1liDejt1D+WAIXGkeYKG4AiExnM86aJF7Z0v8j6ZR2hZOmq+RrWqA2cSZhNpVxXBLISPEJnxIIp//0juLzcfGijd8DCCQRcPWIIja1ijsGEarX8hl+s09mbuQbWnfNQ4ou9T27S18huESLAin9xx3ml0BUOn0dLXIxAGIyCa75uDC5/x1DauYcBgXmOqTQmOFTn1PVFv4VmcShXNDRjQ7KOsedp+muk4Kmr09lYMfWkWTFVpNp/JzoHztTVoaQn/KO17psfi52g2dHq7yMQl3f+uIiSe49WaDI7yDdf6X1yOBlE9wd0fg64GFf99PEBEkkl/tTRYSteuFVgM+mWGfkiGuXKUGjVC76EO1BxqSo3bn/YFtaFG+HDNcXB0g+rd/gER0mjdgBOPAKVUb5ixQQ8bTt6uqpgvbeYRkawjWutKETakSzXo1cXdc9lF55gdro+Ube1Zi/iZDBdZ/ZJI4Tn+lriSv9naU0ozYTHGfNVLOETZR4nyfUIxcqEJGOX6Sk0g5+JN3nfi7UTMB5bjMATGGDMtuz4menL1xtB2dYns+lzk1mfRM9gYEF7lncH5iBzD+6jHUBvslGQyPvSdB3AW4mch/HL3Q23tFcz12P4BxipYMc72Tmz08TOhcxuqiKRamynZUqnZcwdYg9ZGNt7IUegBurrI24ePEPn+LQbSDB7PdV77CpFuSyNOlX5wiWcQiviMQ2g5nD2JkmMm0sd+92ewA1Pvxvh3dvC573oZLcHnv6OMavAEHNTOdk1wph8s4+qlDDdqw9gWpHLt4mZQD30hj/dQET+D4897DMNdmk3XuqZaHISVL/D88BHKHO8U1Pa15TgL/pH0iD+5BQZi5v04QAUpUPa7PkXTEBKH41SeyzUIH0m6KHYKpXR6nYOatkowad+rwsGFWQrl53tmEVR4BBp3oRPRqhGqi6+sQVeZuboK48eddKm2nOPGdf0W/HCwGPTLDL3YxpRu14vSHM0Ye3NobcTbHxBFr7yP6RCMxhoiTpXSNYWzB6Vbp3dwfrN/RnSsGohxiziXDx/WNiFTanqgaG8lgtZ3dBPBMTJ37NJsKN+mOvKlkWP4TLFT6IMeFIPRCoqFhnXzJQdqayCiSU+EqTj0LZuzhz8GvTQLI6MKqaLG8VN3AfV2QzViq/hZGFFXb+j8jlaiMMd5lBqNnEeb1cixOBfnj2MAXX3IeQ6drn2WmlKM+iMKzZt3Bk1AYAyb9PmTGL3KQgxGQarILKXbWmsjoquOdo4RPYFzKlImu81/HAPj4kVqICRO66s+6Q6RnR+xLoMn0COgOFOJ3qcSYfuGm9d5eAayjkVpMADtbdD555WOgVZWnGftBWrUT2/DSfGPErn+Z0TL9k6cz4HlWkOm8GEYb68Qru2XT0HFR4zCGHd2aCkBfUpJBGOSpKSNwoaJHFnN2n31e606Yf8ytAmRYxAo+oSTFtFPMxs8gfI71QkOiddy3jWl3CeT7mBt1OOaw8TbqVD45rm+B6h4BvatFHf36y4+U52HK60yVydF6iP09ETKDFVsfIPmRHe+dPnScBZcHPoYhmfBQKE36G4meeda5W/9yYX/93iKcR5IRK++xs3ESNaU9e3ND50OBbzwSfM95W0NxjnRxmrzI177i/TE7o5P2j4oa3NobSQqyj9NHXtLA5uyfyQGfskL1PZ3tJEXdvHWNtXAGFTjtzwtcuPj1HRb2zIR7evnRDa90V1Q6OqDkQgbhpFe9ReuRXWxyO7PRcYvFslPpef49T8nD65Gm9lHRW79o/y3SiEolh7uarRVX0UU2dlB9F2czqbo4KwYowCR0hzy9jGTqHI4tp6Wqg3VfJ6xN2tR4qDRlEmqzXNaGpUuYdZEwh4BKKLVWeWHVvE8jwBtrnpbCwbXxYucsjlcyIMiv+FhkQWP4RyMW0TaI+uY0tEtFqM/cQksx+gb+btKRYtoDFZtGVHv5rcxvBGj+CyLn4OmHzpdyzeLEN3qc7d5yVy3be9htNVKktpyHDobO5yDO15kvUKU5irBQ7RcuYrAaONoWFWpewTg4EZP7N2Yq/CNIJXRp7H2706nm8LVR2n1a/I6EfNi18sJFxODnpWEVqTdZB56RT4pGwt+WFgM+mWG2ptdRMkz6aCK5cyNj+wJqhNgrl9zj69RvvyuvsaP110Y2Hv3BIMT0ezDH2EoVMNgDvlnMCw9IeeEsYPT1iyy5V0Mo36UrAhDQ1Rmo+AsG7NqPJtqjVmPibeTv+2p1t7JQ+ShtxEMTroDvYGTByNyP/gFUXlpFptUSJyy0efipM16kNpptQNesFJp4OpDD/awBChfJw823gfewEDlnhIZdyvXsvw8ncnmPYaBLckgxZC8TaSuEmO940OmsKmzw3d9ito/fAQphapiHIvy86xz3mmo4Z0fwSbY2vH8C7mcb2gCkeNjX2IQ/SOh88+fYshKyi7Ocf7jHNu0FjpxBQLCsGE4IJvewPgaHMi1J66AHQpNoF+AWGEI1ftehGj6/EmuV2sjKZFjG2EXhkxFvBg+vHv1RFuL9u+icyLr/4UzmLiCKgYRzt/BmeulagHm/kqh6s1M1wuK1YYeqfAONW4MdfOTvFbVTwwE3qHdDbEpPAK073hPcPXuriZXnfW+XnupUJ169Rqa9pbXQ20aZcEPBwvlfpmh98i9THpRX4xBr1M8cFVhmncaSrW+EkrZnDpW/ZK7mjgB1SVEJZeKmlJy0c6eCNfW/p0IzZRu++4fCJlC4mg4YorKQjx+vYK+rkJrg9tkEiGmHaAkTf0s1tZQ5iJs7qphVWFrL+LVj2jKyUPk3le1/xek0C1u/T/ZkFsaoH0PrVD6rb/PNLSQOPKHjVEI8DwCoYxdvDF2C36jHdPVm8Ey5blEt1ZWWv252mWuroLra2WNUQuM1iLIsOEMWPGPxGErzWIN6i7QKa6jHVbDM5B/l+dxj5w7QL26my9pjOIMHLJ5j0F5tzWzaSdvFbn9eaLzE5uIMJ2UqKy2nHLIn76DYdn1KU5YQzV/V1MEYUpp4OFvyeWX5yI28x9E2iEkHofg+CbKDodOY23VoS3NDZrIyydc5OwexGgiROjb3hFprNPWZPen/4+9846Oq7zW/lbvvTdLtiW59ypXsI0BAza9B0hoIeGGhIT05JKbRiAJpF+4oTpAaAbb2Bjj3rtsS7JsyVbvvY26NN8fv/NyzpyZUbHlkPVl9lpaskdTznnPmffZ+9nP3ptzTZ1HXbd/COr4llrWr0OblZAwwV7UJcJamp3RiCRbHUlAGCLIi7HQWMcz0I0WFKnrapyZcuaNI3PVb3Nue6TNTwG6dq0dsnFW+ZyFctkXay5AH2EzfsHMeWH1pQgcDqCrfHgom7Mxf1iaTTSl1NuWRoRJylPutIgojO1q18uaLtVaavUe92PnIPDK2WVLxbfW6x2tys5ApYbFa5OZ0onsD74LoDSW6y1OwxMAHN8Ae6FcaY6m0BZAr6ZIr0kuyRKZaHq+tZ8uasO1xEn8WBoB9ahkkY9/BxhGasd4ervIvc8QKV77Dc4/Zgyg2taAOtqRRSUTzUYkAFKxqUSjGbdRchUUAT3c243YbPMf9S5gBccAMx9/aHpVJtbWQETsH8K6xqay9mnziLSPrBMRN1qazlqtNewJ4Z7y8qEEztOb9939OuD49Te4Nmoq2prvcrx9PbRf9QvmfbosXNcLR3UluW8AzERpNiVcIbGkJyYv46evlzSJiC0LEzlK5OiHIssfgY3J2g59XlciUl9O5Jw0SSR9nkhJDukV1c1s/EKRHa9oa5yC1kL1A4hKRt9gNiWyNFpYnONJdxdjoTH2DWzMFhjOte5sc97TQek62hpsneaQGFJel9PUfaw0M0mTHXSx08DcPKTJZf96c1HuI2wqqrRa7Us5VE5yqCVoIgZAD3Pcy3nPWo1uPU29qnGDVK0y60pEXtcmeh3bQA7WkVmaUIurGe/OrKWWjU/ZhCUcg9HcDXeWly+Ak3+Ic/jfh+g1r47VaqUErOCYNlzCj8jfKIory2FDLzvDJhwez3lFJunnaJ4g5+HpeBzrUK2+VGSK1mgkZTq52JRpInvfYuToa08ChL6BOA8lWeSy973lvBSpqYrnzrwewFQO2tl9NLCJSeW+GTsb1fWN32cjz9ysA0TafD5HRW5evtDqIvoEP1UGGBZHRUBINGVlBccAvNw9qLS7O0UCQgDm//sqlRC3Ps06e/lS2fDBL7hGo6bwuQpUJl2J+nzcQroWntzC9fP0Rih1dh958iX3EtFn3AYIxY7Vu6BFJMFuFJ8mh569kzK0ghOsk4cX4B87lk5/t/+PyA3f1eryDQ5z0mQ9Px+dAqCHRHM80aP1eQhm8w3SOw+K4Og4iuYvxgLChgboIgPnwtV5tjXaPh4QOrwc+r43Rf54D9+9f/7INrXgzNS1Vvtaxu32kyWtVtiIVU8M/VhcdnnMFaGPsHVpm4ObEKkYrVMr9xqqwl2EjVaEL5YjkZKlkf7ajqyuhJGqzdW2pWYnPyX3acwvd7TQm7yllg12wR3Oy9Gaqmxzgwnj9Z7aygLC2IgzP2EjTs+w/Xt9KcKv3m4iQ79Aapxb63BiPnoG2jR5OuCtBDe1xZrC1krUoDp7mSPx+jI267BLmCiXs4toct4tGs1rhfb38kbJXpnP9fn4dwDp/Ftxinq7OQdHZYuhsZQriQBCsak4Xr3dXI9JVxABHd+IgK+/FwervhSB2IxV9u/p469vsirfbjYvXxyBwkyi2pVfo63qnBvRGlSdp/qhtR6mYf2zHIOHF4+piXBmU4zPmqe41ucP4zCExVEa2d7C+QRHQj+nZ+CobXyOSoPudtJKIbGkTNqbRa59XMTLDydv8T3Q8IHhti1OY8ZwfxtbDyshZWgcr0meyroFRzkXbobEcH5GHcdgyvShmkqtKXGeI/P24/MsA0Ta5jy2+fGezsH7ze9Zq0+AFOGeWv+s3uzImRlZg6527rXb/pvAYPcbImLlHrn/+ZFbN5ddvLkAfYStR9s4rG72ZVcqehpOu9SeTn57+xG1Ze+w/XvCBACnwNBJzWi9PbZgLgIIvfMT/f+xaQC60ds//jEKXxVp+4cQTW3/O889vpFNe9rVUIKOlLpzbrStYzZaRBL068ktbNpqBGtLjcibPxC57gk9us47qEc6lkYU2SKUF6me2JZ6fcMRIcfs6TU8NsRsjRUidz/Dv8vPEOn2drNO4xfSNnX2GujmxkpSHO/+lDV//dsiyx8EoNV9cOEoxz91pf4ZXr6Uq935cwR2GbdT6jZ6Jl3GJi4F8BbdxXMvttXu9GtQ0Xe26sxR6jzy4f4hnOfxjxHJubnzmIcnuW7zPWe0sDi9cUtYvO64FRwH0M7s4TrUl9HsJSSK69TTIzJuPuC/Zy2OyoxVXE81VjckCqZg619RvBstPJ41twF0b33CWW83x1OZz1r6BjqmtT08cHiNgB4cjSNwMaOTjaYcd1Uu6vR5wbqz78i8/bT3MYG+urfbmwfvN39qq/1jjRWIMVXfCmem1q7Lon+/VMvfLouIm9UF5v8u5gL0EbZuDYDdxH7zuChA79I34Cu+zMaoWj6GJ0BzBUdRI1t1gS+osjGzmIS16XlbKj4iiX7g3R3koa39UObGfGKXReT9QfpEH3iHzURFaYUn+GK7ubPhDgamE5cCgsZ56i11+nAOZZGjoIjdPSkN2/hbHvPwBDyPb+T3G08ScYXFQS/7XUKf+cITULXKys4gJDuhKbJ7umjGkjKdqLuuBKejpxO6vaYQh6XgOBFMUCROhhp7arRHX+L3kvtIS7i56XXwb/1QZMFtUMxV5xEMqqEuw7H2ZgBw/q0wNLtfw0GISEKV31ipCftiyYpl1JYAACAASURBVIV6eAHqiZMAuNw9tjX0IkTj54+Sr/+vtfp90NnGeZdksQ7pGZTJ1RazhokTmfWdcQfPT51HxLfxd4B/WS7Hq6jw675lX7YZlmDbYlVEJDwWxyt5OtfIzU13BFXbWON378JRrX1sri0DERylRe2XCOie3lwrs0NtNr8gfW9wZoHh9u+jzqWjdfCyVvdLSD35BHB8xtSECPeIiEif1f41LvtizAXoI2yqPtNR7laVbw0b0DWv2Mef8pnyXP5vnNUtInLbT2mqkrkZOvcmrW3r1V+DgqwpZLO64Tt6RKIApnW5yMuPI3oSgS6fvIyNTdH+IoCp2lj8QykhUv9f90vH5+AXzIYUFAGwKcV+Sw2TuUqziUJixrLpmmvQ/YKpAW4oBxzix9PN69hGUgNV+TgzD7wASFXmUf4lTjaaD35O6dfs1ThI3e32M50r8nRFvQjX1dMbQPX2gzVQYsTQWCLgcQtFagspvwqLIzosP4tjkDoXVXb8ePLHqqPd1r9CfyvraBW54isAXHuzSMYtRLrZO5x3HRuK9ffqxxscRdpA3ADXQ+/jED70N5H8A9Dd0aO59pZGnn9qKwBenKWVw6Wi5k+axD1wfCOfcWwDQDj9GhrwxKZq63MtAK/SPJHJgK3KD89ezXWoLuB+uOZxvi+5exwPzQmLY8yozWOJOKjJ08mf9/XqgB4UqefTlakxx83VtrR1YLg9vX2x5hc0cPQtQmpmMED3DXQA6JqjP5jDIML3PGen7WPhCYNH5yL6upgB/fOovH/w93DZv8ZcgD7C1q+N7HT3sP+b+kIMZ76yyjEbzQzkyrz9ocAzN9uWzHn6ADJNVSIP/6/j1wZFol4+8A4DIcYt5HFzKdr0axDO+YfSgSx6NHnZ3a8DqIryFOHzKs6xYRpbe1qtbGBV58mxFmaaNgsr+XVvbZ08vFAse/qQ7/XUZmurCNwqIuMXsK49nZRNRacA0o76eBed1POPG3/LBn7rT22fU3BMF5Z1d+jOWH8fEUvxKdqgiqBEV1Szu6c+g1yEXK/arMcvJqKvOo8jkb2d868u4HnVBXqkNXs1ufnRmho89BK0ACKAb3eHHjHn7MJRa60nCo8eDfh4+wOg7h6UzX32Isfc00m9+qwbdEHkhaOo/WPGEIH7BHAtR88QkRmAe8IEGKD6UtsoMTyBa2gUtnn7s26qiYyPv3OBmqe3fcVG1ChGoIrQg6G9SXesA8MdjEydwXfFL9j2O+kXPHA52L43cRyWfEkfKuTMfAMGB1yvIUbx5n4Oal8YzGEQgdny8tHTcqFxtvMFBjL1OU4B/RKsowXHt76UeyFxgv0gKJcN3VyAfpnMEaCrDcjTa+jv09M5vMEHnzsUpivb2+N4WIwySxPRYmMlX6748Y7noauo9bGX9ceKTxHxith+yVWPeGd2bAPAqiLH2mKR/f8kH77kPtvn5u5B+NbbTe7v6Ho2uKqnAMJyH5GmGjathXcB/Evvp9e6GdCnrMAxESGSMwvJFFXs5k6UeXYf0d2mF1ibljpU3WqsZ80FkSsfoOba3F3PJ4Cf1joAR4SoNTYVx2LZg4BrWz1R8IqHec6+f9iKEofjBDozbz89Qh63APDt6US5f3gdAGUVKPmiTFI8QREwA5ZGrelNLYAbGgPAR8RT1tbTpTsNyqxWovXaIlra+gUDXH6aWDHvoH7fGE3NsRdx3jFQRC9LUxaRqOsr/IJgONR7+QWj2J9heP7omfwYe6n3dCIWbKnlb4FhOBXtzfyuOq+xP9rnmx1Bs/kOJUIPGDxCV2tn8zrNoR3stSJ8L5c/jNN0ZB0M11B6wJ8/rDtCZTm23xXjd32gsjtntu0lx+WEqfOYL+Aa+DJ8cwH6CJqxraUZUEX0hinD8Wx7OhHuDNXUBmbeCI2DMBzZ6a16v+j2ZjqLqQjUaNZ+W7FfbzeNONZ8d+jHqKy7Q28MI0K9sLePiE8iYqnNLxBlZ9wO+I2eCSA1VoqkzSW6jU1FyZ8wkZnSytzcON+AMPu8c1CETr0mTrJVjne3kxOes0akpR41e1AEADfjWpH9b2mzvt1wSALDcTQq80h3hERyrEEROBfB0VzDT/6ESKu1HkchPYPjCo6inKulVkSsIj3dlG95+156Dncg+/wedMMpUcAbGEYZW/I0HM+aQpG9/9DZjhmr9I1bpSm62tnsw+LFJs3h5sb1rT4PKEQm0w527BwYHmddzoxAPZBeoL7M9tpW5nMOnW04ryU5XLeNv+M65e6BlYhN5T5uqeM92psRM4rQpU+JQ//xFA5acBTXUsS20mQotLxfEDqRwUyJXx1ZbzfORHM13xklkmvV2IsTm1h7ZxUORlPXvX8Qmry3G/bKqFM4vI5+AOq77mW4NpbG4QH6ul/gUDqy84dFNnWL3Pzjob+fyzAXoI+kGTYzswil10APOgJ7Z9bVPrznqxy4+TX9fQPXZJvpSGdev7Xfthzv5BZtEpiTNMBA5qjcpqcbMDyziy98YSaRXkkWx1RTSM11YBgsSEQigqa0uVo71RTtfbT1jh5NNG1UQxsjQDdTh6us7UyYO7WVKCHvINF+b7eIdT1MR9p81lfR7GVnoF7j07R6dU+iXG8/FPwH3+Xvyx6ECck7gBN04B1EZZZGnJn48Vy/xffoUeDlNN8Azj9nJ/dnaTbAnruP7m7uHjS1CY0F9DtbHW/aPv56ZH7kI+jcxIm8t08A4NHXQ0RYW2TQbTgBdKsBbJyxWReOwpasfQpNhtXKdRBhJK2XN4CtZs0rzUhlvpZS8KRJUX8vaaGM2znHnk6R17QOf85KN9/9b9bK2fx4ZXkHuX+jkp0/5+C7MDQijkf8ttUzP0DVjK/9DhUJXRY0GSKktj74ORUlqmGPst5uUhtKB6OEr3XF+ve4udo+xVBTZC86FAFsX3+SdJex5/0nf9QdDRG+YxXnnJ/3YFaYeXFR/3+6uQB9BM0YTZgBvccQvQ839zQQ7Wg2tbGaX6OA3plNWGLbp3ncAsfPM+bI2xoApWu+PvTjM7+Xh2nD7u1i7VQEoUp/errYJBorAcULx3heZR418W0NbMadFr0JxsuP8xxVhhUSTbRVlsNG6u7BRmlsilNXwgbY2cZ5TlzKMbU1EFX2dADana0ck5ePiLsbSumeTo67uoAOWzFj2KS7OznOktP8O3oM5zX3RpqFXPM4UX1fD8+3NImMnsZxRaVcvk2tvQmHIno0pY/K+npZr4QJgK6iegcSM1ec4x4KCOW1Vflsyp4+AFt4As+pKeS6d7SSypi2EpbEaMZ0ldVJJKm6lY1fpIOuqrVe8xTX5vjHpIMmXYGDsf5Zyv+MZYM1RTgZSvMgQiVA9g59frvZbv8Zgk41lc2RtdYT4aq12f069Hu/wZlsb7YtNf3kj3oZprKGClsmoKlK5OWvOa4gOfqRba35QHbgnaE9z5GpJkZGqy64+PdzZj2dLkAfrv3HA3pvl8jeN8l/drSwGcWmMh3KUX5vyGaK/CoM3dc+/BX9oQfrq65ouKF2O+vt1r1qc+TZWAUIWRod95JPmkyuNHsHEeKY2fbPEcHT7+2GqtzyJ2rj052A/2DW32cfgfX1AvKTrgQAp65EDV5fRm7cx1+f5uUTiHDt/Z+LLPsyfdRFuKbb/g+gPLGJ62isM+5s4z0728gJq5Ku/j7AvDSHXKna9CxNREqNFWykVQUilgYU7Nc8DuhOXIrzYJ4L3dFC5NLbTSne4XU4XVHJNKlpaxARK0zFnBu1jnqHRSZeyWsvZ33vuEUiObv1XGrmZij13i4+t6OF41HqcOP434JjIjtfI+ff1qgzNSI4L0EROFqN5QBA8jTu96ZqALinkxK9rO0DA7ojari2CMBOmGAb0c67hZysaizjG4BeYuYqnh+bagvmIkTyVpOnMmUFeo6BRgMPBOYi9lP7jmnjXYOj9FHIjhpFWa22311H198v2F4/oB5X2hBnVnWekszRM21ZK7MVZtqWwBpt0pU4SXvW6gLGBXc4H4Rkti4LztVg5mjao8sGtv94QF/3S9vexO3NgGLBcZTGS++/9M84uYXJWcrU+9/2tL1gy2gqJ+9IYGe29mZoNzU96sQmuqgFhNGgpOAYj7/yDUrfzCNci07qDUROfsrG58g7zjvIBv/aE2zQ131r8GNzZv19DtIJVoDRL8g2h+bmBuvwOfPhxr+PrBMpPskaL3tIf75iKOqKcc6M5uauU/O1RbqiX4SIcMEdOBYLtDrpdb9C8a0G4YydTdQ19yY6nA00XMMvGCDs7SYi7rIAoGrwSlO1yII7uR96u6mf727nOnZZOM7LAepl2j3v7gHYuHvqtGtxFg5UvnCf5O4FrEtzRPy3ElWPmU0OXVVBtNQA1HvXwmAEhDGVLjSW8+208FkKrLx8iegnLiFSH79IP7bB8ruZn+B07nvbFnRzduAsnfhYZPQsDaitNJyxiuP72ZGz7OZ+aXXbIvZCuBu/b9+DoKtd5NX/0rvEORpiVHFO5O0f6v/38Re58xc4A29+z5Z5m3uT7TwFR5a9HUBPm88sAGc2cYnIa9+yZ/Z8A5kA6BdsC7ixY21ZjsFs8nJ7NsJo82+1Z+9cNrj9RwP64XUOBg0Y7NgGvmSOmoEMZooqrCm0BXOj7XxV5P7f2z5maSRatPbr6tvOVvte6WbL3mE7CrKzTWTr/9LpK3Oz/nh3O5717BtsX7/3H/q/W+sQccWa6n8tTbZ93i+JwRD7yEiEDnuOJjdZ+/U1tfZpwjR3XQnrZcjfqShnsD7aIvYORUQiEaaRGvX21Q+pu4Nor78fUOts08/D2L7T2O5zwhJSBPVluqJZ5Xv9Q7i2uXug6KNGER2FxlzeHKKKiotOwmyMnkE6ob4UZyM0lkjSw4vviConCwjlPANC7QeFiCAQ7GzjNd5+AKOnj0h/Cw6L8Xy8fBDKmcVRRprdEeXu4clne3ja/l2VdVmauf7quvRrk+gcRbVWB5PCrH2O782hWl0xQrxJV7IO4fGO9xAff5zWtd/R+0OYLX4cw3/2vcn0uJt/jLMUEEZTKUXrL3948OjcaIM5LKqsbduLukgwIknk5h/al7KKDE/nI0JvjJjROGfG2fa+gTjSjlocu2xw+48G9Nzdgz/nsxdpvNHTBU3Y08m/jYp2oykwaW9mCMJAVlc8+HNEAFFn/doHsoJjemQ+lMcdPcfTmy+yt6993e+letBGkFbm7mQMowJSDy82Njd3EbFSd3/wPSIOZT2dOEW7XrMXCYnYMh7m6zh+MbnMinNsLF6+RJ+RSeQv8w8BbNUXuM59PZRv9fchnvMP5fk5u+jGlzwNp2PcAkBR1ZsnTUZg1NujPT4WAIxN1aenDUbrXqx1tDIGNSiCf6t6/+5OxIel2Wzi7h4Ae18Pj53RnI6SLL1GX8S2Fru3k/t15yta2Vc4G3Z/H+DUoSnKwxKYGS+irV8/x+Hly+Oq62Bzla0zq7QMjmzm9bxu/i18/6xWvcd/X48O0oWZVHUsf4j7z3zL9fYMjRVzZuuf0wV1Wwbplf6Z1heipRZnyhHNPHEpznpRJmuoTE1tnLFq6GCunJqhAPDoGfStePN73PNz1gxwT16EAzT9Wn7am/i+unvYN3hy2fDsPxrQh+KFWxqH1zVquGOBBxo52NdH7j0wYmB6TITNwDx7OT0DwNv8B9tzmL2azcaoSj36EZG7snuecdxFau132Fx8/O1bgZqt7AwRryOP3tIIaPZ0iqw2lLx5eNiq0EWgZItO8lNfhqMRnQIIVp3nvQ69xwbdVEU0XJLFeTpqiWnM2ztyzKZehThtxyuAXm8vneMikziXlGk4GHFpgHrmZpHF93LcarzrPCeOmre/zrx0d+rUbFMVYFVfRv42ZzfU9uUwvyB+ersZJlR0kui2uRpAaW+mDGraSn4rsEifD2Pl4Ykiv6GcdELuXta7qQow9wsWmXEdf/f2JRp0165rcDQdDNubAf3EieTa4w0buacvj7U3izRUAtL1ZdwrliatVXEW729kn5T9VZuv7hPAta7K57ve3owu4tgG3ityFN8B8z6gHMeLsUPvwwgooV5/v3NRa+4ePQctwrHd4YS2tlrtQVgd9kD9JczmrKx1IPu8PM0Bk6HsUqYa+ode2swFl+n2Hw3oY2bZ0j2O7Kqv2o4KFeHLbvSUjfb87XjBvoEiX3+dx97+ka0oTtnNP9Lzso6st1vkD3cxpELlcwd6bnuzTuUGR1MmFRDGYIuPf8e5OtMFzLmRTfPCUfJ9zlpCTr2K8aD3/37gjk67XqMdqH+oyF2/tG8wk70TAGiq0uaDazn9rnZoSuOo2GytZaWa7iRCWZmPH/SqCD281bhYBZjORDrGzceRU6fEVldrLVljxrJ2YbEi7l7oC7racRYqzuklfgN1DWtv5ho1VSGGc/cU2f82gOntz3XqaNGioIiLm+M+XMvZSZ39xKVErBGJRMhLvoQwr+CESMnraCWCIsjzR46CDTn+sUhNAWuRMJ7nL7gDkeHCu3n/vW/S137Xq1y2irMAXN4BQD80FkaiptA2/1pxTnciDr5rWzpWV0xFwfRr6FOw6pu257Tp9yLXPSmSf1DrhtfO6xsrOGYRwKxHSAX09ogdUPV02NZYD8dObGK6oLK+ARo69Zry0wONbbU6cAycNZEayJQDO5zmViqqN/fDMDrexuDAZV+c/UcD+tL78fhz9zj++/KH9fGcwzUjUNz0AzY1VW8amUw0OZgqVImhhkL/eXojqMk/LLLhWZwVpWaPSobyzd4xsMgvfhyb60A15f4hbC6DtWcs0fpktzfh0JgnRRkta5u+6TVpArP+Phyn4CiRcRl0hpu0lNKfwx9Q8tXVjvL9tW+gTJ6lCYJ6u6EJnWkfjBtRf6/j5xi75MWMJkocM0vrXd+iR3Dx4xDwiLDenW3k7jvbWKvaIn4XncT5SJ0DbZ02j+i2rREnbNIV1MuLaDlnU5vNy2HN1fQ9z9pO3fsN30bkJ8Iajp6pl271dutiKhGOP30+57n7DXrYl2bTeOTwBwj6TmxmrdoatDJIK85x+gLYpLoSdCxzTRP5jHO6zWme0Dj7yWHVF9A9nNnD79g0PTeuUmCePnzfFtwB05KzC6fg0Hv2+eTujovrzKecaaPyvtPifNJa6lycY/XdmLLC+Xv3dDnu/igyvPSAAvThMBDq+2IWZxqdTrdLSFG4bOTsPxrQRRCWTFzKhlaSRWQ9djY9qwcaeejM3NxFpM82N+wbyJQpBei3P+2YhjabUoHWlbDpDka7iwAWIkQZRvMJsI8IzObla9+v2Wy+gfY9pR1ZVArUsQgUdcxYHAu/IBwaS5PIWz9AJPal3+qv2/kqILjwLtv36+2BZp+8nCg3bT70pog25tVwJ3t66+vgyLx9dcGZb5DejtRoIbFstP6hOC8dLUSwvT3QwcZNNCSGHGCYNnWtowUnccYq5s77BqL0LjrJ60pz2FAtjaxTaAwRancHDElQJHn2jpah3ScXY6rGN1mbatdYgcr9w2dQOIvYskeWRtI3ytR3IyiS509cgtbC0kC6obkawVN3O+dVdoaa94TxnHtFHq1Y56yxVaoffBcKf+VjNIHJ3Mx9H6bNJvD01rUsvd0wQb6BvK+adFiZr6UTLDgY63+j37NZ21jTyCSR9c9oVH4XkwVj04iC64q5zgXHEf8Fhjsu9TRb2Rnb/g0H38XBcHYv+gWJ3PNrkQPv8pyBhGA9nfYR+nCqYIzvIzJMml7bN8xlfMZmWcOh8F12+cx1GYQym6G0TRyKuXvwBXCkqFXDQ4aSb8raJrL1b/y7o5U+63UllAINZJ8PbDC1m/QJ0BuuOH2tn+1kNUemVMrG2eOO7IoH2GBjxzrOJweEUk5mjo6KTiKKOn+Yns7KYlP1BiduWrtSRVGGxADyRhvI6QiM0FtVhkQhYrMD9GiA25zb8w9GUGbMvUckaXqBJIRxlkaRhXfqNHLxaYA674DI9d+m7Ke9GTArOqkfuxrS0dsNE+AXyBqo+vBLNaNq/tgGncrO3oHeIjaVATs7XgYgd71GeduS+4i+F97FeVw4xjmoCoPKPJHlj3Dd1GS0kBgEThOvIOKethJgX/kYr3P3ADjjTb0YIhKJpD19mKDX223/XRq/mD7gZWdEli/Uyw7T54ucdxO5/kno9fB4zu2G76CJ6GwlKm6u0d9r+99Fgr05jt5ujquhnKh0/9sAvgK0gFCAXU0O9A+1rRnP3YsIsjSbNVF9DLK2UVVivpd6u0X2/EPk3H6cvLR5jpmvnJ28p1+wbWMn9X0eqG2s2ZTTM1CNvdlUUyxzb3VjgOAqMfv3MBegj7B5emnRQ5f937w1QO9uH7wc6eB79o+d+Ji+3wO9Vn3puk2ApnJcxg3B7vj8Bh/0oN6/q21gQPcLHry/e2gMdKnRjMpnI6CHROtUrNo8FB0blmDfBMM/1HkTHR9/QKm9mSiyvgxGZvrVOtUaFg/YKtVtdwcbqNVKJOvuAdBGJbOepVkAVNV5hI7VBYCCpw9q4eSpROkxY/iMc/s5n7YGWIpdr/G30myOZfKVfH5FHqptESj6S5lEdf4IQr7ONq7PkQ+pXS4/azuaddKV2gQ1DSjrSgCl/j7ukeSpdGBTNHBNIY5I5Xm9/39rHSpsVaPv7c+aqfvHw8vxWNT0BXqjosnLWEtzT/uU6SI7/s5nqnu5qx2WTSm/2+oB4LoS7vnmGr5/wdG2Sm03gUUxalQ8vHD0VJOgpioYDONnNZRz7xqd5NZ6hsOoATHKOttE/vYg95Q6PnV/Kpq+pQbxasbtsB5Kc5K9Q+TTv/Dv9mbK4W76AffO7jd4/OC73MM3fFv/zKztlKJ2tNDr4rpvkfpRDvtwBp+o1/iaAd3g1Lpy6P8e5gL0ETZPHxFppZ7a3Kvc2x+qudMiMhiT6qyGuqlq4A5PIny5zBGq+jJ2WZwDuo/mKBgHQJhNRbLtzZdeVhUSA7AaLSoFyt3cRU/NsxYB3NUgGRGRuFSRIx+Y3juKTdwM6Fv/xtr6h7BxL7iTaHjMLOr20+YRrQZF4FxU5YucO0CUvecNNufzR4noWutE7voVz60t1jqMFZIWGD1D7Gz8IqK20TOhhd09RIpO0HO8rQGgmnUD0Z2nNq88MJzfhZn2zYCGat0dRNqTlwEgmZ+w+Xd3iGx6HpA3mpkibm8mxbH4Xk20mI3DmvkJzoa3P+mPrG2Ax8I7ybenTCciVBG2sf1x4Qnbhj6OTKnxHZm7J6BYdIpoXJW2WRoBuOJTIvlHKHvL3k4HuU4LEbqx8qGvz/4+bm+yXYPBpgYqe+PbIgtuxxE9+QnRv7I5N9p+7xrKbftGiBCllw5SnlpwDD1O+Vlbpz3vgMiZ2aQPi0/B6CkryaI75T2/0Z3g4VDuymkxOwFGfcNw3s9ll89cgD7CpkZlugmbsBrgIeJ8rrAjS5ggUp5r+5int73i3pE5GrWocrGdbc7zgaoGtrPVOaArB8U4cvJiLTjSXtl73+9ENj5nXxIXHKVTpSExOk3e2w3Yd5nWNDSOqMpYjZCzE/r0lp9QoqcEXyWniebS5tGoIyIJp6E0C+fCKrQIrSoQWXw3YLL4HkRYSjzn7cfGt+KrzjvH+QYSpcWlEaFv+z+qDtw9GVVamQdQluUCiuMXU7K37y3EdBej6VDH5u0PgJzdh0bk8DoYg9ixIklTKCGbeZ3IP38i8uhLtq+PStajaR9/QFFE5NRnMAse3jgz3n4i826CpTj5KedZdUEDQytOlgjOWEO57XdjuBYYBo09WdOV9HQSBat8u6VZBzwjsO58FbGkmvLX02U78a/gOEp1S9Pw03B+Qfr3bvq1vFdhJtUSkx3oX8wdJGdez3VuayStY7XiJJm/I0qtb7ZP/qhXepit6jxO53AnPhqjcDMzaOwidzlbFLts6OYC9BG0vAO2PZw3/pbN47pvAoQ+hih5MFvxiMg7P9EpcE8f27zlQOYXbE9BB2j5OzPQO3pOS93A0XdwlG1XtIs1b3/HeX1jJGc0FemFxUF3Ro6CUo1NtW8XGjlKFyGKEHUd30hELYJDcPxjmnWUZAGwYQlExH7BMAQlWSjYEycB0rtepztcSQ6bbl8POeWaQgCv6BR16M6mTHW2EeWf3Y+IzC8Ymr+tkfcvyUKYdcUD0PkZt1MaFhIN/d5S6xgYutuJPv2C+IygSPvnVJ2HDUkYL5I4gev7zk84n6hkHIgtf6aiwGzOhHl3/A9guUArC9vxd5HKc4BGl0UbYevDce17WyQ4hojdP3jgcs2hWFe7LRXv5QsLpSj/zM0AckcrP7l7cAKmrmDgSdEp1rutXuSjZ+hV7+YmUq5du3P7RebdrLcIVnbiY5yC9Az7zm7hCTjhSq2++F57p95o06+BKm+sIPc+Z439c/yC0DQoi00l0n7/Z7BGRpt0BXntkizH36u+Hr63geGOj8eRKcfd0T2gAH04JXAuu7zmAvQRstJs8ltmu3CUL+TVX9c93IFAVVnkKJH7nyeqDIxA8DPUUhoFzF0W3QFQgpyBysdEiNKNQzgcWUj0wDWzwzFH6lhnIp+gCAArPBGRU9IkwDQ2VcTT01b0FZ7AYJDONja3PWsZUPPy44BMcw0d58YvBCz9ghniEZsKSM29mRnryvkKiRFxs/J+lXnUvUeOItKccyP56fOHAXTzdepsg2J3E8RtlkY9Z73rNTb2Xa9ByXv5kgtOnUfUPHY24LvzZUDMEaC31hPlW/sBKyOgtzXwfuGJ2mdaeb9D7+NontoKHT3pSkB2zGyR956GgYhNY0rYjFXO2QEfP9au+JRIxh2I3z75k0hnO6mKEI2u9vQWWfEQn1GeO7hWYyDr7eL1ZrBVpVMN5TqTNet6rnXeAb5PfsEiik0vzxX5+Pf0Sagv09X4IoD7ul/p3wX/UJGIBDQNIpTdGcf1iiDm22ZgN5prSOsMJEBbr18PuAAAIABJREFU/pDzv4mw9v193B8TFuudD5c9xOhYFXFPXEoljTo21RJWWWA497alybYkczBTgO6og93ngH6RNfsuG3m7xBEELlN2eJ3zv53dx2/1pRhMba4sMByF+KQrhlcXqzxwM+gGRuh13gO91jwb2WzB0USVI2GqoYrR1LQss4XF87iPP8MpIpPZVEXYpNb/hg3ozG6cq+LTIn+5X+TTv5IG6ekSETc2NuVITFmB8nrMbFTpXr563jZhPJGtGvXZXEsr4AmLRFKm0qfANwiwGr+IvOvJzWzsihYtOMYG6+bGZrrwLtIpCtC6LET+d/+a57TUcC6tdURtXR0A4ozrWJd3foqTJ8LvlhquV1gcwOHlAyhV5QNY1n6o8OKT3EejpgLSKdNFDn/ImtaViKz7BWsREMrQoNg0gL6j1Xl+9MQmkemriEKTphD5b/2bSEu1yJUPEBGv+i/Yh95uUgm730Cr0FpnOxdgOObpA/gaad6aIiJ/EQRjkcnoTUJiuO4h0bZRZmebyMfPa9Pw/HE0xi1EGS9WruejL4l87VV6mk+/WiRunIlmNgHZ6Jm8r5p42FKjT1a7FFMDnObepIsiwxP0RkZ3/oJ+78rSM7g31fpEJIncquXm1UTJoZoKAPwdROiq14ZLEPfvY64IfYTMYcShNbdQeSi1oQwlQr8UU4DeUmdLSwaGDz6wJDCC1w1kIdF6JHOpFp4A5WjcbGPGsCmrsZ7KIhKJyOO1jTU8ATASwcGoL0GYFBLDJqO0CoHh5Ir7eonSRHjdqU/595QVNENRljwNyrYsFweit0tkylUit/wY8J1+Lb/rSmyrGebejFMxfRX50YLjsA3LHgRc9qwF7CddCajGpROBx40DdNzcAeTKfH4vvpf3LTsDWEYmEYnlHRB577+55+qKcTT6+/TXps6lK5tag9mrEd91t7PWk5cRPSZNwvmJGQMjkLMTUFNA0N6Mc2Hu5KbM0ghon9vHezeUcx0LTrB2827F4elqpxfBmBkihVpZYv4h0iZn93F9UufYq9mdWXO1/Xjg/AOII9W1Va1pRUQKj9tH8/mH9ei7vlRvpjTlKpFDH4is1LoE+gWznko34OGJ6G7aSns9i7cf13bPWpFRk9EKjASgK8fcnAZrqYE5cdQIavo19v3d1fkqBm8opjoxmnU3xmDB14lw0WX/enNF6CNkDptHaJuOKn1SXu5QI/SLNUW5KlW4suBI2xpcRxYSPTjoB0dB7Q7XsrczjGb36/pjoXEitSW2z4sdCwVqtrB43ZForoHetPYDDm0NIuIGsEWnUPY1fhFAdP2TIrPX4AAoOj9ylG3zn/4+kbz95EfzDhDRrnyMfPbEK9i8/UN1oVVgGIARGgdFfeCfgGNvD89Z/R2RsbNoxlJ+lkjnsVd0hXVrPa9PnUcef+NzdCV09wQ00heIvP4tANrTGz3A6c9Edr8GDXvjDwDqtPkwDupcynLJu3t48R6+ASJZn4lYWji+UVMAzvzDCK+iklnL5Kl87u7XWaPi0wD+wrtgLXJ22bImRz8E/FtqOb+xs8n5B4SIRCcj5irL1ebbe4rc8lOqA9IzuC7XPiESmaKXf+3/p8grj4scWz/4ZMHKfHQNJ7fojxVn6V3sKvMR4KkSsfJcqhiMFpXMb98AW0BsKMcxcCbyWnCHyLc/EFnxqOO/qx4Da58i5TASPcqbqrgG5ki4vXl4QknFqg3nmJQTYM67G/eR4TgILru85gL0EbKM2xwPAvH2Q+Amonu5I5V/dmZKtWsG9NBYvPqBLCzO/nVmC4nRZ3wPx/ZrjTaObdA3isgk+/Kd2DSdSjfalj8jVtr4WyLTU58SBZXn6nOgVz4G3ThuodaHP15//eiZtuNyQ2MAhf1vIyprqqJxz8qviYTEQTUnT7VlI8LicSDS5iF+yz+ktRS9k+jZ0wdVelQKdL2bG3ncmdfbnkviRMrW9r5J3j8tg855Y2bRnre5SuSqR0Xe+r7IrldYowV38rfsHThUE5ZqHfRGI75MmozKW+kGjn8MoAaE8xz/UOjx4xsR5dVpLMjie0XWPwsdv/Q+jun8YUCztojRndEplL794W4i+ZIc3rPgOPf3CW1Iytl9vMfYOSIL78DRqb5AmVrSJJGsHVyfwHDW5bb/plujpzfXMn0Bjsuf7qVXe94Be/arMk9kyT0MFMrZZZh+p+XQO1p4L+VIN9UQOdvcY6k4FirvrKwiz75kcjjmFwwD0lDOceTsdF7VUnWeVJ35/jdbQ4U9cKvv8XAYgFYn4Dyk15jy7sb2vMEORJgu+2LMRbmPkAVG0GXr8PtQdiIA0w1P6lSZEqMMZU73pZiqmW2qND0eN3iEHhpn33XNbGpzWfdLlMDmueiNldCijRX8u7bInqJva2TNIhIBZKOAT4S0hKqfLjgBIChHw92DDbnqPADX3gygF56wLa3x9rMtrxs9E3Dq7RY5uxfHKiiS/KOnN+Dz+XNnQFvHjweUd79OJDr9Guj4VU9wjmPn4JSU5RAZLrxd5O0fs85L77etejCaXxCbZcVZ6Fs1YrXkNOeQvkDkjSdFltwrkrmFaPbsXpGIUZy/kepvqhQ5Z4EC7+3RWslOIX+v5p7vf5uypdY61qrLwjmc2w/TEZVMBJ+ewflGjeZ1USnkX/MOcoxTliPyVM1fvHw08EwV+fi3OK373gYoffxZ1zXf57zyDqB9mHOD7XXy9OY8xy3g3upsExE3rcyqByfB0qQp9CexpsExIrf+FOdpy59ExAoV3tcD5V5wAuW+pcn57O+udj0/ray5SiR1vuPnD9XMotJ1v8QxjEjEyQiKRCz70TP8/dB7pIKc1bo3lNn/rVULCgKGAc7KCRhWVK99jllIZ9wjHAUyLvtizAXoI2ie3kyaOrYR0IhLs817qS/FYKB6qRYQpkc8RguL06ayNTmn3SISoVxzdiGicmSFJ/hdms3muewr0Km1RTotGxxF9BeVQn3zmu8BeuufJV9amq2B+Vm8/defRMFbU0i0VVdCJJ6+AABa8Qgb9oF32NivehQVcto8kQ3P8Zzp16DaNg69CY+HEbA0iuQdosNdSAyfFRqHklzRq/39ejOglOnU9J7aCvCGxpALj03FAfnkLyJTlyM+8/SCMr7669okNQ+iSJXjN6uhRWAEIkeJBIVTPjbvFujttnqRD37BOSy9H+chcQJ/rymgXCk8QSR6DGzBqCkAU3g859HVzibvF8Sxx6bSktTDi05pEYncf/Nv5bmV+dD1C+7g2v3fVymLMrMv6RmcS0mWSPpCkblraErT1kjZWlujyPljCLfO7afCwDdI6wg3hp+6EpG0RNqdqly+amkbGKFHgau+KdLXzf/LznC/BYTDNmx6noE6O17G6br2GwD22f1ct5Is3qPgGGmAC0dtWRplvd2cv1Fs2tvNqNyLbeCjzJhT9gsiUj+5xVQCZhje1NtN1cGKR+ybz3zyJ+4xnwDSUOrYOpT6fBi9/pVDPBxAV8GHGdCNe8tAUwZd9q81F6BfBguNgxI2q8UViPZ225ZYXQ5z1N9cUfENFc4BXdVub/kTlPbtP9M3map8Ip5MQ2vLjhYo2qTJUKhRKXzBHanyU+eRf3zxERyAnJ16X/vWOgB7/CLSF7VFIl5+ti1JM27nc3L3oExOnsoa93YDxKlz2Rh7OgGxhjJALSQGGnj6NTyeNo9rJILiV7WIHb+Q8/fyYfNsrQNIFQORf0gb2BEGGPgFi5zcKrLqGwDrwXf5/eU/8DnZ2ykze+sHbNbRo9mkK/NsZ53HjUNYVnUeAL7/eZEXHyU6cncnh5/1GZt6fx+Cq/oyIuJp13A9wuJpCNTWwHGpSWh7/0GJ06mtiB3v/AWjUgszAfIrHiBa37MW0L3715Ry3fMM3c4aKnBkRLTmPtVck9y9XOuOVtaksYIud8WnEA1WFyI0XHinfp51pboau7GSUr+3f4R2YNwC/T4zdodLnKg7aHkHUNar1zdVAOwtNdw3i+8hDTJ+Ieucd4AWqD7+1P/HpZNnb66mzapZ7X1238jkg2evxrForobdiNbYjrIzfF/yDsG2GC1nJz8RSYB0eAKNi5Tmo8sCy7L6KfQPmzRx54F36IEw2ORGEb3CZTg0vXqNWRRnDEqiBxiE5LJ/rXk8/fTTT3/RB/H/mxWfYkPx9rMfv5q7l412/KKhTXC6WCs4TuQ7ZYVedtRaT6RQmYdoyFHksvkFPefXVk8uNe8gG/6JTWx6vgG2ec37XyCajxmLJz/Q5KUuCzSpCJtb2ny9n/uqb0LpBmslRjk7AV+jBUdBjU9byedUnAMArFYikNOf0Qff3Z1Z3wvvoq/6/FtxoAJCma+uQDo6RavTTmDNDr9P5Dd7NfnsM7v150Yk4lB4+4kc34CqvqeHzdnHD+Zg0T04M/HpIqe38VhorIivP4Cdf5i6daMFhvEZJVkAY32pyPIHOa6maj4vfQHXw8sXSjxuHM6Dj/a+oyZrTmIA0WxINJR1eAI09Jw1MEZHP+IaNFXp0XF9KXX1fT2wDRm34QhMWSni5QU4RyXT2e6qr/I+W/4C1b/yMXrCVxeQS/Xw5HqMngGAe3rBMuQfEkmeogvQ/IJYm/QMmJvdr/Me/sHO66Qjkniv1U/RICYgDDagp4v7JXMLa9TfB3gvfxh2Zv6tnPPhD7g3zuzi+9nTSW5dORKH3ie/PH6QlrSDmU8ADoenl+21Do7iHkqfz2eqEcP+IXxP3dy5Fk1VfCfMo33b6nlsz1o95dLXy9rOuHbwASmHP2CtzJMMnVlrHfeLiP1QqIPv6s7GQCOZXfavNVeEfhnsc1Gag1x5aAwbYWud7rmPtNUW6dH5zpdFVmtDUtb9kt8N5SIf/pqIJi4durTwBIIxs2DPL5iZ2fNvBWhVLu/oeqKe658cXqMKnwCAqCSL91rxCBvDmd1sYqrdZmis82qAkBiin/JcjVFwg02YsoIoPShSb8Ahog92iUjCiTEyF13tRHHtLWyKEYlQ7xXncL7O7kVsNf8WALMki+dMWMoGGRoj0mEVWfoAG/bhdegKRESuuJ+a61VPsHmrnL8zm7gUYCs7w+enTIPtSJnOxnroA97barUdpdvRCuCGJ0D3B4SRXgkIY408vHCOmqv5Wf1d2IPudiL12FS9TEvZwru4xsse5Nj/eC/RtpsbaYp7f4NzcWKT5qAu5BomjOM++eePRR74A+B6YhPRfn0Z9f5GitbHH9CbcyOOZtY2Kg0mLsXpNbJYjZWwPEERgK+lCTDs7tRSRV2AaE0h9/H5w9xb7u50kLvyKzh9634J/d1aT5+CUVNZ67JckaVfkhGxmoKBxXVzb8L56u3hXI3nWXGWc1n/rG2Tpe4OfYKb0bo7aDyTPJVr6Syn3Vw9vHRC1Xl+O6LU1TRHL1dTmX8rc0Xol8Gaa/QaZOMUJxE26uoLfPGMfcZHytoaqMVWDSEaytk4aoqgqo1WkgUg5h9iU4hMAgRU3szTGxXy2NlsEsZNxy+ITXrJl4afOhg7m9eseFgfFtJl0SeNqVaSNYXamEoDNVqZh+Ox/21Kq9zcaGLSUMFEqZTpel9yZb6BnKMSQFmaYCoKj0PXj1tAFDxqCvT7h78mApp6FZHt+SPoIno6ob9PfQqd399LxH/VoyJH1uFQVOVrnd7mUoLmE0AedPyiwYeRiLD2S75E05PgSBFxwwmpLxPx8OAanT8qsv8tEV8/cuD5hzgnDy8Rax/55JZq3uvIOhycqSuJmhMnARgtdWgElj9s6OHfBhsTlQLQRiYjmAsIFZF+nIS8g9w3c9Zos92z+dxmrYlKYAQq/O4OkfZW2Cr/EFIe6RnaIJUcmBFzGVZQBCLDCUu4b3e+gqPpF4SDl7mZ3PHxj2GDxi2Avvbxx1GavZrUQk8njqjKGdeXcY/5B8MQRCZxXA/+hTRRUxXf1+ZK7iPVi18N8LkY2/YS92D4AAAaMxaH2lwip6at+Yfow4tC43C6kqfaDzQSwYHIO4jzdHwj93blea2hUif35dl9OBnGme0D2dEPCQ7GL7YfNrT/LRFx496YdcPQ3s9ll99cEfplMKMitfqC7ZhI9bfLJYw7+Yn96Nadrzp+bnAUOdSweN0L7+1mXOPZfSI3/8h5T/fwBDbksjPDU7nWFLKZVuUTzXa324p0jLXhY2ezYWcksSlteA5adtwCkVpfka/8iaiqqx3KufAESnYPL9TKIdpax6biABSdBGxEiP5ve1r/rNeeALhTphPJ+QVxfkfXi1gaRG75kciBd3n90Q3kgm/8gcib3wfoIkcRXY6do3dyszRB70aPxpladM/Aa5O7FzDL3AxgTruaDXr/W7SpTZ7O/XPzDznn0FjOecwsrWuXFRAuPAFwRaUQhU6/FpFYYDhO0PGNrF1IjDbiVQOUxgry6xOX8v+gCGrpc/eQDinJgil46G/8vb4Uodus63Eqjm3AcehqZx2sfax92Rl99vrVX+d1m/8Aq7DoHntA8/QmTz95Geey722cop5O1ucrf9af298n8pXnccLu+DmtH8Yvwsn6y/2wLe6eiOx2vEITnrBY2BjlyFz5Za79p3/lXLK2s0YipFhGz2CtIhL15jfn9nOvqhGrRqvKJ32hKgwu1qasALwtTfTNV+vU3cnENWXB0VQJnN2HY1xXgtjUUSe+0hz6JsSmsv5hCZyX+Ro0Vup6minLTH8rl897bAS6Stb+rcwF6JfBjNObGsptAT1cy1s7K2caqqkZz83VREnlZ4leHZmPP9Fr3kEd0ESg3FUzDmWe3jTNOLtv8OgkaTKfba7xNVp9qTYWMpvfqtXm+IWIyZKnUrv90W9Eui220X7iJPLtGbfx94hEJqWJsH59PeTYN/+BlMD+twH0eTeL7F5LrtXSBCCVn2VjX3gnALtTq+2uKyEHHBoHjT12DhPC3vwuoHjTD0RKskU+e4lcd4XWREVVAKx5SuTjF0Tu/DlUbsp0RG3N1Sjflz3IOR14G5BwFM30dhMhRqcAWhXnqAoQ0bvFvfgIALk3hwEq064G0N3cAeCeTiLRsDjKJaNSWOuqCwiookcDEHNv4vgbK1m701sBYRGixaseA9xS5wJao6bCXHzyJxG/AJH7fk/+NCIJZ2P1U9xXXRaRr/5d5O+PEWHOXs312PuG/aYfkYQzdf6wyNs/BCxn3eCYoh49k5/9b4rk7ie9sPVv5P/LcniNtz/sx/kjAPj8W7SJh54iS+7EOeruQHi48zX93s3U2vT2dBJRx6exFmo9ik/jCJ3YpKeifAO5X1VpWlCkfae2slwc3pEQvdYU6jl3ZbOuJ0Vw4RhpjvpSmCB1z4ggyq04R119e7NemdLRgmOmqgGUBUXy/YoZC3N4RGtlPX4xTqLRSgyNf8Id6HBc9sWZi3K/DOYbyKYnAuVmrHXtaieSa6qipKanE095ICGZUhIf3wDdu+9NhDEnt5DjrSsVCQyF0kyeCr1u7Dk9cxUK79S5RBVlZ6ADzeIsZZ5ebABePo7bSiprruHzfYN0PUC3NpTjyEci216k81fhCTac9AwA9aqvAirhCYCsCFHVsY30zDZaYaZGhZbZTrdSeW41ZnbUFFTB6RlsSjtegXI99B7RSG83rVuVEDEqmb7ovd0iN36fznIbnqVrXXMV4BkzFtA7+C6K6cnLiIY8PHShnLc/z83awaCNzS9AQ5bmkENXG3HSFK532RnYBJt1rKb3/JIvsV5Jk23zlh2tMD03/oD0yaJ7RFprOf/MzZxnodZutbUO5qO5WheL9XZTFx4QhpMWFIE4L34cQNzTqVc9+AcD0B/8AqbCPwRQqCum0ip1DgCx6fcI/0pzSHuMncNzentgLwqO0Uyn7AzvUXwS58PYzjc8EXFjR6vIZ3/j9aojn9k+/ZvIA88ToVutOAunt+K4xKVD9184qiv9LxznvZRC38MLx+HCUSoDJixmvfashY7v6eTYI5JwMi4cFVl0ly6QnLKCe6yvB6dOWeIkHDGjHf6A74O5O91wra2BnPnMVfag6h/CvR8zBkahNJvvkEpj+Idy/6bOZc2aqxFJXvO4VoXiw32gJvR1trEnlefynVZpt7oSvTy1tojzP7NTL1ubcY1twDJUqy/lp32Yw2JcNrC5IvQRttpiNpWgSL4UDYYWppZGaGNlNYX8nDsgcvvTWqvMHsQodSUAZmud/bjVwAii4ohENhzzl33CEsp5GivY7MfO0f+28C48+8GmXSVOdD4GVJm3LxHwp38h+vTwhBIXYWOcsIRIInHi0IbLxI5lPYxiwfGLGOhx3TdtnztugchbP6R/+tSV5E4nLyMan7qS2u2+br13u1k/EBjOui6+B9HU7tdF6spwTu78Bc8pzabkbNrVAM/ZfQDH+MWAnhqLOeUqkaLnoJ2jUoj+v+xgLvXie0X2/UNk619tRWhh8SKPvczaNVbo9LSyvANE5ZYmnBMRGt6IEJme3ct1DonBmXjwz6y3pYl7savdwVqnsqGGxpI2uPnHgENhJhv++IXQ8cc3aiM3wwCF7X+H8VnxKFHt5OWcc1g8ue2bfsD7t9SjJbj3OV53+jOcjjO7YRQ6WnVh3/RrYDxObYVtCUsgFaQ2+vNHiQTVPZQ6F7D+8Fc4iq9+Awertgin6OQnMDK3/lQ/37P7UO6HxuKwJkzgZ+GdIn++j+e01ol88HP+3d6ME61AOSiCnzGzYAJUv4IxDsbAluYAnJdq5bnatUpz/py4dNipQ+/TVfC2n9n3mBfByff0ds6m1RVz3Pvesu9sV3bG+eyGnN2IaoOjuA8GE/pamtBuFJ/SHwuLR2s0ftHAr3XZ4OaK0EfIqgtE3n+aiDBnl97zu79XF2jte8v2RlbW1kBUlbsHmrM8l429vVnEP8j+C9bdAe02/VrH0YxfMJtmYBjAEzPGdlNorOQ4jMIxs/V0QTUmT7VvFVl2htzyqU+1CWbCsYYnQOkuf5j67dEz2FwGYh+M5u4OoCRP1R+LSEQDsPIx2+d6eKK+DoqgDrY0h39n72DTiksl5z3zOqLbpirbEri2eqKDnJ04UBMWszn6h3AeO/5OuuSqR9j4Q6I5ly1/EVl0N+fb36cPlRkziyg7bR6R67H1judgj5oq4q21h41L00sK8w6KbH8JQDK32cz6TGTWanq+qyoAo0Um4yz6BrApqvXOPwht7OXDc4yK5OAo1ipnt0jMaF53cgvOV1w6gL/peYA043YYkZIs2Anx0Hqgj2dd+3pFjn0Ig6I+Y99bItf+F5GxbyDX1NuX/PLxjThLRobIwxPGYNrVsASfvch1iUul5e+1j9s2bFn/DLnvGaug6y2NOD5V+Vq9fBUOct5+FOD9/YBsaKw2mEZjSTy9WYe+HpyIokz9M6ryAXnfANtrEhTJ93rlV+0HCFXls44rHrl0BXj2dvYBY8WGIxs1hXu14pw+bMfcWW77S4CtuYxWmZs7bI9qubzqCRia0TN5XUAYa2S16k2HrML6lObg5JzeCpuVvYOgQY2kDQhlnZurcR7NbZ07W3GGK/N0/YbLLs5cEfoIWEsN068cRUJN1YidmirZtAeyuHQ2NR9/oqT48UQbh963f25h5sC5axEAQ4Q8qtFGTWZTHahjnIcHTsmb3yPCjxnDF7HolF5KY+44de03Lo0+GzMbIFB5YxGiaL9Ae3GhCM7DyS2s04I7yK12WRC/pUxnIz69lbpzc4R/YhOb0KgpOEbRo3mfzM0A2VVftY90fAOg6muKeP/iUzAwtcU8tvopSsuu+TpTqt7/mT620mhJU2EDXvkvXjN6pl7bH2r6zJYaEQ9vNsSaQudRTGic7kQqm3Ql1zkwHKCasMT270GRANKmF2gtq/L7liaRFx8GcJXDlqS1XK0vIxIrzeYeXfYVkZe+CvWqGsKc2ISS3DwHPGky99H2/8Nxaq4Wee9nOEjG80qaTIObU5+KvPs0EaCX4b16OonwR2mOn6c3gJ46l/vgrR+Syhm/ELrc2FK4LMd+HGxnG9F8zBiOvbma+yJ+nFbhsIH7Y8ISjnPiUufAU5jJc43NcS7WKvLs2yo7s+ufxPk98I7I+//DGmbcxm9VfqZ62xutq13k1BYc9M421mb1U/raBkXaH8NvbybN4uHBvVBt2l9a6zSgNw3Z8QseeDBV0UlEl85SgS4b3FyAPgJ25EPHYK5s8wuDv8fVX4O+NJuz0YTO+lMbLTiazdxMnatovSzXcRTZ1Y6gS9mFo/x4+xF1J0/jdR6eAH59GbTpSOTCkqZAlyqBlE8AgJa1zR7QA0Lx7APD2FgW3iVSmgUgq9K4z15Era+U+KXZqJlHTUY1fsO3Rf72IO/lHwII3P4z++NqroZiVoNIgqP0jS7VEPlf83Uoxau/ThT3zk9QX5utqUrkibfZSAuOicy9ReRrr9k/7/A6arvrywafQubm6J5wg01QZYzKGiuJYg+vY+iL0hbk7oGNuPc5AO7sXmrKx84hutuzludEJePQHNYcGJ9AHE/fAI7TWVTp7c+ktYZyUg/NmsObOtdeaT3taiI9T29SH9O11McnfwKsjJa7B2GiT4CIWEUe/TsVBv/8icjiu3EWRSjzMwpBy3MBJ9Vp7aG/Qj+rNNbCuwCnvIOA++7XYS9S53HMxrrutgby2WbH6WKsp5OI1Vn7ZUeWcTts0uYXNBFqNudh7ePvbm44J8ohr7oAy6Ui7vQFaA4G6pbXWKGPro1MEbn3Wf7dUM49WpmHA1GZZ98+eChTJs/tdwH6pZgL0EfAOgbJRweEMCM7IBT62NgsQgSP3hGYi4hMWITXamm0fdxRuYwjS5rEhtnRYpg5bmWT3PhbNrKVX2PTKs8F/ItO2r9P2nw8d7OtfIz2nY4cg4uxSVcQJRsVzz7+AFBvt77pF5+iRWloLAIoSxP53fGLOKeJV7DxNFUD1DWFbGaxY0Xu+x3OyfpnYU48PGAfVn0T6t1sqhf8mu8R2OQpAAAgAElEQVTx+Uu/RMOY65+0f65vIM7ZpucpnfL2AxBv/al+7Ke3kvcU0RTY7ZRmBUfTH15Fti21AETafIDjnt84XzcPT5EeB49b+2mhW1vKJltTpFHI4SLzb+NHhLx/TycpA6PeoaOV42utA4CTp9IPv7ESCj00lkEuMWNEcncjtrvzl467EBotPIF878F3qIn/+PcIE43O0YWjaCEaNNr54Ls4X25aoxhluftYu7AEcuDpGdwzM1ah5fjoGZFHX4L+P3/EtuvZ/rfs+wOYNSlBkbAXs24gir1wTOTCEdJrQREcs6e3LoQ1DgS6WFM5a0dz6AeyUVPo3Ji9HSdEReciettco3n54oDMusHJCGiTnd2n/zvOWL2TwI8xrVVdAIPVVK3phQoGn+TY1zf4MbjMubly6CNg5bnkzpzZ6BnklWPGENU1lOsq0unXiFz/bZp0ODIvX6KjmkL9NcseHHquqTJPa48arIPktpd08VpLLQB6Zhe5sKYqQDUo0ra07ooHHItt1OQoq3Xo9OBAFhDGRjlhiZ4LtjSyiff3stnWFkPV3vQD6PnMTSLXPcmQkMZKNsPqC0QslgacqMBw/p44CYfl0HvQojte4dzqy6B+jXlPS5PIR78m6nFzgyVImwcwxI5FrGcUHCrz8hVJmiiy+c9ai9JQWIHUuVwPb3/bYS0eXtDuYXHQzIUnRAJDAMXRMwHzwfKxnW0Ab38f18PDE9FbwXFAueYC9P3ie6HKVbqkNJuINCgKx1MBcUstIreJSwGtPW8QlSunpKOFfgdrvg+dX1fM58alIVQcqikavqaAc8jaBjV8ZhfsxdVfEzn5Kd+TMbNgM8LiWPuGcs5l0/Miq59kHbe9RJpDrVdIDFF5fx/PV8I2ZZ+9CCMzVJ2Hpzeq9nELccpConn/zM36c+rLWDcj1T9cO/Up7MVg+XNH5uXDd33qVRxH1nbWZt7NOPhJk3DMFtxBailtvj47fjA7+K4+tW3RXfYpIqMFhnHPJE2C+UrPIMdv7pNhtBmrhtaX3mWOzQXoI2ARSVCTPU5uVA8vfRhHYDhq7KztCEaW3jfwl0IE4Jm8DFApzUFVPZQWjtnbmWwlgjiqsQKgO7nF/rmp8xCyXfM4Ue6ExUSX5bmokWdd7/xzurVSPDWT/FLNaqV8LFaLAEJjRY59RC51/CKRvWtFZt+g06jWPqjDUVMBg+QpUMFndkEFtzWykVedhxbOP0gu1d2LueB+wdC5pz/TBXllZxhQo4RBtUXQ0+MWItryCcD5OPmJnm80mk8ACv9P/0rUNGUF6Ym8A4CUI/PyYTNLnkokmbNTm/QWa2BXnFhHK5FhY4VI5Tmi1cSJgHR0Ctdm0pVsqPmHAfLs7dp6TeN+2v82DlrmJwiVZq+G3envw6Hq6xZJmEi/+9mrRWZcR3phynLW68ovA3hDifRs1sqfFEnFWYRXR97nOFOms945u4j+OlpEsndB806+ksh9y1/4fiy6Gw2FbwDgbzQPT9ayIo/0gCqVPPBPnLZL6XQWFo+TZxSIWvtFTnzMNbQ0cf18/AHCna/y3Lj0gfPsO1/B2Umde/HHJsIxHf2I9V3xCO+ZNJl7YzhT15TtfkMH5FVPDO+1Pv4ENyVZ3F9mm3b1xTkwLtPNBegjYGqWdX2J3jYycSLCoMZKvtTmFrB1xYBERNLAPZ+N1tdDrtA/BJAZyHo6yTvafGaJ4+5RIpRZRaXobVdFEAVV5pHHd1Seo8w3EB1Beob9BKuLscgklMlTVvB/nwA2ppIswPHYBiILZXHpRFpTV8A8bPs/WoS6uaO8PvQ+w0f6+6CJPb3ZXNw9AabeLmjb4lNQfucP4/gsuhuBVWwqjkRUChGiYiICw9EblJzWBYhG8/GHaTi6HofP3QP6u/Q0zshAUWHMWK6xpzd5xV2v8NktdQzWMQu7OrT66wmL2byDtWYuBUdFjn0sUpWHYM/dHQCauJTI7MC75Oj7+4gyT3+GkxkQClPg6YUzuOIRjiNzs8jj2uQyf03ktPV/YUvOH+M+MYvhhmpJkzivswdwEt3cAb30+eTNz+yh6iA0jl7iZ/cgglTtfsvPopcwOz+nPkVrccuPbSs21j/HuY7E+M8uC85vYDipqSkrAPYze4hqq/JFDn/IfdhUxb0241rH76WaEs27+dKPrfAE5z7tKseiuOGaChB8g0TmXkSu2z+UKDx2LNcpMJzvyPKHbCcruuzizJVDHyELjrJXNBccFynQOjSp0ZjKRk3RS6aGagr4S3OcPydnJ5uImuRktjlrEINteE5XRat8riMbPZNod/lDzp8TkUgEXHxqZDZHTx+cifJcvbHNnDVEcBuedew0pGeI/OO7AH/G7URq658V+esDbBptXaQelj+Eql3ZPm3061WP4jAc+KdWcjcTkPQNgJ5PmQ4QBoXrtdQigKKxvtruXLyJZN78HhT4/S9wbV59goYhs9cMvBZx6fy0t5BPDo7CaSnPpVd6RxNMT2sdIFdfSqReW4QDcnILxzx1BVT4iU226Z2M24hyU6bx78/+V2Nb1pBvD48XueLLNJJJmgzdXVeMsDL/EA7N9d+itCxylG15V9kZVParnhhaHwIRUiLhCaQsxEPvbGhp5Dw/e5HvgYcXx+PlB53bXM1z3v8fjj0yie9WwQkc4dg0vW2rCE6bmwytv/5QLDgKR+Yrf9LPNXGiyJL7SEUc+kDvLicC/V+a7ThHruj74ebPHZkSUsYPMWgYyCrOyudz3I1reTE2ZrbOsLls5MwVoV9G8/YjmhSB9jTWgvsEQMv1dA5MZxvNw5ONvDKP+mqjKri+FHFa9g42Nx9/KFyz0nTVE0R/U5ZDAdaXEbm4O3HtAsOIMFKmQ8c6s+LTbJyOcsoXY6GxiPZaakRStMEQ4xchvKovJZLu60FbsPdNQLKzTeRLvxMRK53qVK5P1cL2dBJ1G8fWjprKmoXF67nR4x9zHl4+NKlxc4PKjkwGsNqbAQ9FWYbF8dlndhNlGq2nk0EZwZHoKF7/Fq+74Tt0l9v3D6jswTZcSwNRX0g0gBeZDCswaoqWZ9fy4tOvJUc8eTm/W2pF4idw74ydzXntexNAzNwMg2Ttg+ZvKOe+qcjjHlp0N+e161UcnrQMNuH9/yTV0N8HjV+Wy7/bm2wV5Fv/qg3cWW3L/AxkRz+iLn7RPSIRCQjQ2mphH+LSRB54gc9wc6ONq4cnjsy5/dr5X829UJoDGzP9Wj09ZRww8sGvSNtcKtB1WSgVO7YedsJRWWF4AqWX5w7YPp6zi3ut+jxshNWKgE+Vt6oe8pdiO17m2ix/+NLeRwSmSWmFpiyzv9dd9sWbC9Avo3n7ESH1dgG+xmjAJwAgaa1DvGKePOXM2psAz7g0faM6u5euWe3NWj/uRymbGj2TfKlS1Uel6KM9vXwRrJz8BJW9M4/b2x8RWX+fbQtbs104RnQ8UhFPYwUbSGUea6ci9eRprKliOLraRdLmora3WkU++QPMyNQVDJHoaGNW+ddfF4lMFNn+sj3VGZ+O0zJ6JgARGkdXsdQ5AF/MWOrvuztwNEJjSV90WfSINERrCXt8I8fr6cMan9lF97O5N3EfdLQxG/3ERioVZq/WRtGuBXwTJzjuoV+eO/B0vo4Wrr+ZIWmrx/no76VGuuS0SH05DtrEpQB3VwcpBk9vzsHLB+fm0Ps8ds3jOo3dVKlNmytn3UQ4j/QMWIG8gzgS5Wc5nqu/Bsux700cMHMjFqNVnEXfEJkMWxIYxrod+oD7LyCM/P7Z/Vz7iUuoNDj4Lk7f0vvQAVz3TdrOpswA5A+9B9CqZisV56i9vvlHzo9lqLb7dRzz3m694ZMjCwrnuLssOJc3aR0I+/s0hmcX62qM4otP2jI4lXncQ0OpcW+rJ51SdIISzZFo2LJ7LaksEVJeI1Fr77KRNRflfplt1BSiB0elYKMm46UXnxq8SYyy5GkispYIJG0+UeEnWpvRWddDjyqLShZ56C9Qj7vfYNPuatfzr+EJOADnjwxcdjZxKUC16G7nz3FzF/F0otQfrjVVkpMXERErIDT3Jv4bHEUeLjRWrxe3NEEVn9kNiCZOoi/8ki+JtDYQBbfUiqQvFDm5lfdW7ycC+Hp6AXwBYThKY2fh7Ch6fvZqgKOnk3UfMwvHoeKcDrTnDpIbPLyOPKGXD2A963qAdsufqXv31BTY65+BAl98Lw7B9r/TbCY8kWNXKZrSbFtVvCNzc6cbWmWeVrN9jT6gpa5Y73c+/VpAT4T7LiaVsqLKUujh7g6RN74DYJp7I2RvF8k/Qk95R7XKC+4kZbHht2z2Vz3K45mbYarMHfCMVl9CimTsbKLv8AQAqfgUjsDyh0kFtNaTCnATUgdFmSI1xSJ3P8P7qNGz92j/b6nB+TJWYGx70X5mwMXa+aP6vwcqyfL2F/nyH7g+MWN1Bz4uHXA8t5/SPaNZmli7oEgEf6qO+4ovD8zq5R8ytJh2EynJ4dguRgRntCatf7ubx+BliS77YswVoV9m69QGq/T3AgJGUU6nhfyau+fQZxQHhBGhttQy1W3j73g84zaRxQ4Uoh6ebOT9vUQC4Qm2/ZZVqZCK3B1ZWBwRpPn4jXZiI+87UBQ/mLXUogLe8TKgOmOVJh66zlZ0FqiVgTWUAcIf/ZpNf9b1RCY1hSKPvATrEJ8Oc7D7VdTM6Rk03hgz21Y85eFFbloN2ghP5LpZrTrtmTQJUPMP4TqExfNZzdVMp5qwhDVKz6AveWMlrUut/Rzr+EW2FQ1FmQB89nau6bgMyu9iU3ms6BQ/J7cgdjOmCszW0cq5x4/D2cm4DeCISEKE5RdEZF50krx4XTFA4eWDM1lxDq1ExVmRG58SqSogqkyYgNbisxcB5Cvuh8p2ZuVnae4zfiH3Q0crQs5pVzsXgZWdQRux5nuaI5LMPZcwTk9ZefsR6Xtpk868vXHWsraRsph7EwAfnkBEPulK2IWPnhGZd6vOZtUWQevf8Qvn5zAcKz7J+oqQtph4hfPnuntoTI4DBiZyFKDeYVJ/F2byuLHUq+gk6+RMl/DPH9mm2qz9nPdQgwZH1lABEyHCtZmx6uLfy2WXz1yAfpnNx18XuYTG2E4v8/EnQmutHxhQzVZbzCZYdJIv7uzVtu1SHVloHBtZX69tJ6vgKCLWqBTnpXCe3kQ5NYW2jSOU9XQCxJOuYBOvyh84GjNbxVko7p2vsSFXXyBPnjafxifnD9uW70QkQeHWFkPNXvkVKPrWBqjM7i5er1S9yVNhQqovALbhiThCsw3lSv2q9M3gkCRNphVtaKwOpinTARm/YCjh8ATA3Ntf75Pt7kFa5MTHNDxJmy9yepttpUPZGdIusWlEj2Nmiex6A8rZ0kxuNy6NnyMfarPct4uUnOJaWBo5ZlU/3NFK+iZ+HOBXV4wq/sg6FPzlZ7TxsXeIFJ3mfunrgSI/tkFX/d/0QxTMY2ehXm+tE6k8zxCTwaoxPvkjJWtXfZVe+J1tOJEL73I+ta++FAdu8b32zqBqfDRzFaxHfZnmpCSIRI0RqSsiXeCmXeOQaO1+OodIc9drOF/zbtHf84P/IR0zEoIzEZy8tkbukRWPXlrteXCk3rjFx5+UwKjJMGhma6qkusTcs72uRJ/lbrSWGhzaoWoZzHbkA7QVIjiXg1XZuOyLMRflfpktVBsHqXLfxqYbITEAX1s9G/xQGyqkTCfq6WwVGTVNZOn9g7/GN5DXFZ4g4lKlRarT1e7XUTo78/onXQEIrnjE/jl5hwCHMbOgDc/tB/DWfG9gEKgrZs54Wz0e//KHqc9XlrOTUpb2JgA7LJ6IXXXkEuFzd74isuwhfXrX4nsYAjF+ka6Iv+XHIq8/KTKjiOMclyHy3tPM5RYht2kWEIpAG3/0jMiVDxI5irDexzbg6DRVsolPWKz3oe7tRggXl45zk7OTaLO7Q6daT33KjHplZWfI/YbFca4bnhVprmUdffzpqhYcCYvRUoMzk7ODMrP+XvLV3e1EyKExiAYDQtjE60tpnxscSR43ewcOgocnJVaKgdizlmgzNJZcdWsds6/v+53zayiCc7HpBYBXdXpbdJfIht+LXP2Y87ngF45CJU9Yai+mPL2N1ISaWvbpX7nvCk+wxhMW4aS5Cc7oh88g1Jp/K9dlw3OkitT4VBGtU1m9SIaphPRSLCjSccfAizGrpiC/7lvoNzx9nE9FPH+En+AonOyUGXy/nbVt9fK1L3UcjhUaUobTnAx4cdkXb64I/V9g9dos4bZGomlj2VBzNTnugFDbKWMDmU+gRn+5Mct7qLXf1n42gchROjiJiITFAkZu7s4p8/AEPtM/2L6n+ke/0puAbNLGlfZ2oUx2JMYpO0NHrwPvsgmvfopNeOcr/M0vkHxh/Dgi6tBYfW71kQ+h/ZfcK5J3WESsfPYVJqcmPJ7XqFau3n4wEBt+yyCRMbMBZWsfUfDJLXyeWbTl4YXa+OPfARyqX338OKLpk59CmweG85lHP4SeHrcIgG6uAeAtTVDso2eSd40ZY/tZuXv0tItfkDbp7VGtVt0NR+bkJ4gPG8oQ17l7cE7hCTABXr5aOqUfWryjhYit+DTaCXd3QMIvkEE6geF60xMRnvPZixzvzOvIZ587gOjQGRgUnyLCvupRPQqvOEuee8VD3A8RSbrTUHgCh+LMLqoTerq4dsYKitpCGBs1xvb4Rk1P0M8EtyMfItgbM5P+7YryPn9Y5Mh61m7VE/YNY957GibMWD7672KZm2FTAsJFVjysV514evNdUvMYPLxgQObdDJNSX8Z9lbuH73BTNU6gOZ+/8A7nLMlQbMcrImLlflw2QAmry75Yc0Xo/wJL0sRvfT2I2YzlM2NmslEXnBicNldWlS/Ug7oNXEpmtrT5CLPyD9vS7jFjiTp3vw5AOOsTP+UqIuipK/XHtr1EymDNzZq621uPdNVGq+z8YcrJmqqIyK/7FtHoh79mA1r2Fdaqt4t2mkmTic7zDhJRBkcx6EQxGd2djIUc5YA+TZxIBHjwXX2++JjZRObvPs00r3ueQYTW3sKaOhP9+YeKrP4uFPC13wBAezrJb0++knVbej8baUOF1ginnR7u3Z0i9/1Wa506mjrpllrbqLcyjxGwRmusAAi9Mmmm4iiFYWlkLVXL3sZK9AXRYwBrJVzq7WZNl9zH9Vv2FcR6gWGUW/mFwDTEjCW1MHEpDlD8OMD/pUfpdBiZbFtKtf9tPvPmH+msTc5O0joqx3rTj5hEuPJr/C1lOlqHwkyuT1oGVP2yB3F2LI0i636lg3nFWRyS5KkI+uLGkX45tgGQK8yE6jbeY5tegJUwpmnyDuCwTBshMdxI2mcv0t9fmVFoKcJ1G7cQ5yd2rC6qjEtHBFh1Hlbs7D5+Gy00FsfG3D1vOFZ9QR/wMlCVgsu+eHNF6P8C8wvW81q+gbb5p7A4QKe9mTrjodBih9cReYkQkQ21mYuHF1Tt+cNsqsY69vhxUN/73kZl7KjGNDSGqHfUZM5pzxs4I8sf0jdPb19d0d/bDTPR2UY5Wf5hNpbVTyFu2vkykcXMVbyHyoG6a0K+Ix/Szaullk3p/7F33vFR1VkbP+m9d0J66L1LF7CAKIIdsbuuu6vrusV3dW3ruq5l7b03lGZBOtJ77yQhQEJ6I7335P3jO9d7Z+bOZJKwAjrP5xNIJjd3bpvfac95Tnk+i5uC8AQihsNr9OU7/UJJvR5Zw/F5+JBuP7yG7EHsUI7v6DqR2f9nPdPh5gXRa+PHHPuh1USWPQdwXfYvRy89dbvIve8QkR9Zw3XqNZr3vPROFtjWJpGDyzFokX3hUWhLMUXpXLv6KlLSsUPNa6UiGF3fEJyXxNFwHMbP5by1LUV1lTgfI67hHiSOJhPj5oUz0HssBjiiF0Y+4xDp39QdbFOaR4QXHE23RHEmZLDYoQj+KIp3uxYR/Wp5Fh4+ZDV+eIF0eL9J8B6Ob+D1a/7G8fz4DsZ5x9ci0+4lmqwu5fzH3oxU76jZOHrr3xe5/b88s5s/51hC49SJdMNmcH83fkTma8OH3J+rDB0EFxKqivlsaNFYa97+6R3IvdbTi/AO5F6MnMX1r61QNRgaash6ZR/nmfIPM59qJ8I2lUXcL1PS3o4F6gzzwZd1j/hqx/8WdoP+M8DNkyizvoqFZqSJ8Sk8TYQV2MM8na2HbV8ZtJAdaFXq24nebwfhWHyCjIVuRKhjegcilJG8BefD1V2tgbp7s7CmGZSvso/Dph6laQGL6M1inLxVpL2FRTb3BNvN/DOL/6ZPSE0Pn0mq1rQHPj+VSPbkTgRGrvmb6mCkHzBeUCL7Me+8scacg+DhQ+RTV0VUo7Qu9ZuEAUnezDmNvEZk7bu0MlkakiPCQtd3AkZHHNTRlu4+GMKVr5HqDYyktOEXToS78WOctci+RLVXPYxj4+aJTG1RujrIormB/Qf15P2qS0VGzep4OIsIi3jaXu6BYmRbmgwRazbGN+OQqtDl4cMiHjOYRb6hhn73vd/z/iOuISIvy8URGD2HbY6sgUuhZBVqyuAEDJuh3860+xvSyNu/FmlrJhs15zGcOWWISUkWzpCHj8gVD/B3q15jcM7OhaTaHZ1EvvwrmvGxQznG/pPJcGz4kGe2skjkygcNgjvDcCTKcrlfQ6+EOFmRx725EFCaC9lRi+Bo27teTBHQg/tTU0amLXYoTsPZDLo29v9ARO/shoTwsQ1kyI6s4frt+17NzihY/6GqZTHr77Y9i3acH9gN+s+E6hIIS0311HW1EVRDDdGJg6O+0pQpdi4krRkaT0QycpZ+K4we/MOp11UVqwNjtAhLIKVeV85CfGAZGYT0/XzYizOJAJxdqd8rRDQtDq5A/UoMc5N9gqg/r3yVBaXXJdSdTR2K6hIW5i2fEUnNfhQdbwXhvaidBscYT4fqP0lk1SvUrU1Zxr3HkmodOUt1TEpzcRaqSzEUscMwvD++Y1tqMnoQRrelSXUiVr/B4llXyQjPslz27eRC7bq1hYgxYZRKFAyMhHXcZwIR/JbPaLmqKIQMWFVMqrOxzra6b3giDt7+H3Aec5Nx3sbdBEO5qY4sh5e/mjZvqCH9nnmYexY/UsQ3iOdEma5XW04W48xBouyQGJyhhFFwDyrPEuHrRX4ntiOWEz2ItP+Wz+EWePmz36qzZIS2fsX/YQnU5c8cpGvg8GqDtnyAyOcPi8QNUUsoIjicPftxDiIcQ7+JkD7dvanX11ez79wUMiMpWzGY52LuQHfh5sU5trWor029p3sKcRs/EmlrF7ntRTJSI67mc+rhy/OZn8rzv/c7HDzTcc5ZR5HODYriGd9h0G938yZTY8eFC7tB/5ng4qrqUvuFGXvA3gFIQFaXWNdVV7Dja/4fOh2DHhip9k93BEcnkepiFky9vvKSLDzwXpfQ7hMcrRKvQuOIlOsqIExFDVQXxapijNLatyE1+YWpc6Ebalgk4obBNk8cQwS5/n1DD3kLv1/xMqne8XOJ6PT6rqMG0EeudUacXET8Inh9uInghpsXKV3FmKftRcBk2n305a54GcMUPYga5ZZP1fYzS3BxEylMJxLe8CELaGMtEbCiYKfMYj9zQOSaR4iCT+0is5K6jeMJiMBpGnsjz0dAD663Mpe+OJOoMmYwBsuWVKd/OOcbFs8z1ljHPa8spNbc0ggxMCeJqK2+ijT2lQ/wd17+HMeuRTiXhadVUlp9NY5GeCIR+bH1RO16HAYFh1djUE5s5znoP1lkzdsY1OhBKBzuWyoSECZy/0f8fudCnqHs4zyDEb1JS1cVm89LUO7H0XW08SWMhMAVHKWK08QNFbnkevXzJwLjvzsksXMFJxdKHdWl3LNL78Qx7CqObyA7FBBhnAl088T5VMbQOrngOOp1dogwBGjwZTiYymz22KG2BRx2nD/YDfrPBJ9gjHZrM1GUkq4V4cN25iAGPaKX/txxLfYthbE+6Q6R4+v5UHZG2tE7yEDCaTduF1r5KunhA8sw2vEj8dKVkYvKV2MtUeDRHzFSOSki698j+zBsBsahNFeduS5CD/a036gcgbpKlRGfdwIS05R7GG8ZbqXs4OZFrT/vhHGdP6gntfucZMt68gdXEuFf/yRGyD8cx2P5SxiqmMEY4V2L9TMPWtRVcC6xQzEU7W3cY0XE5dbnUewqzuLntH1EjuPnYnQOrUITva2F9925UGTKXSLNTRi6hhqMaXubSEsz42T3fgt5rSSbSLumDCOrLMraVGhJFun8lia2P72XcoWzO87UkCs41kvv5v+e/dUIuzSXAT+lWaSmx8+lppt1lIgubT9tVaW51gVGKgrZtqYUB2fE1TiF7t44cwMMCoStTThR0YNI97c18ew0VHNcGz/ift/xin5bZdZRHJM7X8URDTA4dye2kfW69Xnu835FfdBBJP80jrRWZKkjVBTAITixDefU1qxYR/ALw7nsM77jz35HWPMm12LsTZanq3kHQsb19CXzpgdHZ+7X+g/UUadX3E83hR0XLuwG/WdEeR5RV2WReZq8oQZhk3YxTjPrIXkL2w+53CAyk2w+rMUavAzEpzMH1b87tQtDpqAoHSOpR7g7tMpQlxRVQ/zK39PO4uKGIIkp2/aSG4zTiA6OOASKMRo2w1gAxBqiB0HIC080juL7TWJyWEC4uUjO+ve5Tjf+0/g4gnqiiLbyFa5n3HCi2W1fW4/UwxNJ32YexuC5e2Ocso9D+mtpglF+z1s4T4r+fFgC9z1hlCrUs2MB37e1EvUOuRyHL+MQbO+IXjwTRWlkFoKjyIw4CGqDZflE9IpDk2PgOUT0QlsgbhichkFTcazOZkAwO7CM/bp5kbkoyUHjvK0V56NSU5ZJ2yeyczFG7eZnMRZKDdwSFjxKejd+hHEpIywezfi1b3O9R82BgFdVjKPi5qOKAO1fhkMQM9i4u0KEZ7+6hC6Da/+u8gaConC2UraSnZYiW1oAACAASURBVPAJVgVpXD3oVAiLF9n6OaWu6MEdk1Hrq9AxKDiFI+PkfO7Eac4lNn7EZ8sWnXqfEJ5LbbpfQd8J3LdNn/CzoxOOuh0XNuwG/WdEWxuGUwQCnDY68Ammz7u8AM/Y2qzs0mwiGC9/FMUyDlGn1pvJbQkOjnjnviEYp+zjLG5a+ASpk84UlOVRS2+qN0xSbGexTBhFH/nmT2HSXnY/hCYXdwzMmOuNpVaVhfb0Hn6+7H7Lohh68A4QWfwUKd3YoaphTxgusuxFSGguBmGOpc+T0rzhKX0lL6Um/92zGKjE0Sxya97GsOk5Sid3YrTTD0AwGnAp16+5nlp10ibU1fxC6cmOGUSa+8ByEXHgup/NxLErL8Q4FGdDIMw8Qqq8ssh41OuZQ0T3Ti44EN5BRHShsaTXtVmU6mKi6JA4ztnDm/f08OU5ix1C7VvJIpzeKzL5dpyiiF44PTsWUC/fuYBtx91ItO/sQso694Rl5/P4BkoPIobxqYbsQWOdyLp30F93daXEMuFW9rt/GaN921tFbnuJLEiGYfxwr0uMdRrWvw8DXplzrnXs6qu455NuJxOz6ROcglFzuLeefnA6Bk7FEdr0MYbe2ucn+5h6PiKcv55q4vnE1s/hSkT2MdbgtwQXN+6vok6nICwe4528UV0TIvvTomnHhQ27Qf8Z4RcKEUXEXILVzYsoqKZMJKCjmrihpai+mjT1vqU4AsNn2n4sQZGkoIszcCBc3fHWtQgIJ3qRdo5t1xL6vn2CYI47CKnU6hKyBiExLASjr8Oou7iRFi/JJlLrZbL4h8QQuQ2c2vk56s2NRL4tTSiAKdG0px/O0rKXIEsteRrn6OZ/WWfnBkdDBvv+OQxh3Ah+XvGKSOwgerW1WPg4qd7L76fOfXAFRi8khvRwfTURpYsrmY8ZD8E67juRzMimT0RaGnCEtn0JSbAki7rvFb+n9t7cSKR6NgPDU5on4uqGw9DWpu+cFKXjqDk4YOQUJ6m1BWcsbS9iMcUZ1JBry1FjO5thrBR4aBU8gZIssgJ9xht6kB1Ii5/N4Hnz1dFB2PoFhvuW56jHH/1RbWvc+gWs7sZakbve4Dne8ilp4JghZAim3I0x//Fd7m/0YJjZwVF8huqrKA+1C47YuFuM33/Bo2ReLrsPI504CmJn0kaeR4X3oXBFwhJox0zdzjXx9BUztLcZfz6m3df9YSfnGqtf53rNfNj2YwvoAanU3Ztr02s0XQIubiLrPuA+iFAusw9kufBhF5b5GeHsxgKevp/Io6HGWBazzzhS8ilbjWvspogZwqJUmkNkPeBSDGpOku1pQGc36sSHV2OsE0ejQLXlc5X1mrKNL0W6NiiK+nNYvMi7dxvv75IbSD3rYdxNpCtHzTFWqBPhPLrCNg6N41xzknAotEgcg1Tl148SRU1/0LZyRJ8JGMqvHhW5+k8iCaOJ5L55BjnZ3ppWIi8/ovj2dhb73BRYxUoWouCkyIqXqIlrNdxdPdSIdMwckcVPoiC4cyFR4IR5RN15J0VufU4VlDm1iyjbyUVNsTfU8P6OzjDp21ohh9WW8x7aQR/+4RDTpt4LN6IkC2dqkSE1GzeMCNnTX0TayVrMe15k8dPGmZXYIUwrqy4xVwzLPILzMv4WTYvgRGRw17+PA5N+WCQ4VmTirWR5Who5/twUUuzX/t3ghLlSs1WueWkOSm+T72IcroiIly/lDS22fkE2Rpm2JoKzdtfr/O7zh4lep96jOi+xQ0XueZNj//xPqLBNmGe8X6UrJXE053QhEOq0KErnfrt5dv7Y/COMn1EFSu+5o4va6mjHhQ17hP4zw8GBViIRPN4wjUKYdyAGtrLI+ox0Ryci6jMHqelNmEeKt6mhc/PIg6JIvyrs47AE6mZa1SoR3uv6J0hhVhSyOGvnNovAdrZE6PH0p85+fAOp8HOF3mNxTIZMN37v03tgjzu50GtrbQKWKUJiaCv74SX66BPHkEHY/Bk13qiBEAd7X4J6XGisyNq3uO5akp5PMISu3BSM+8ndZAzcvXHYAiNZJMvyMOw1ZRjcjIM4VLkpGFxFc//kTt67Z3+cjIje/Bw9iPft2Z//h04nLe/shsFUMh8ubtTn+04ga3BoNYbpyI+0ITbUcN1m/pnzD4jA0BZniEg7vfbHN1BuCerJMfYZjzNWW254JsrI0JjqCri4E4WfzRK56iE12lv1GvfG3ZtsQEA4pYPkzZQu+k1UhWA8/bheK1/BAU0YJTLvReNUe8ZBIu07XzXPqDg58/fRg+A+JG/hvRyd4BK0takM8P3L+HJx5frv+YYeev9wOBim53chYMUrOFkDLuX+dxcHV6gCUVEDrQcYdlw4sBv0nxn+4aQz21rM2enu3kRp1SUsVNYGm4Qnkj4tz8dJaG6gz33IldbHW2rR2szCVpKNY+AbAtGp4DSRn4MD/3sHsoCufoOSgW8w7OjWZoyckzM1cGuiLD36IIjj1kGtsjNwcsaQaY358Y0c56hZpLF3f4vBsVUnX4Tr0G88NfT8VAz6wKmkbde+zTW/5m9se+YAxDit/KiCla8iwDLuZpGwWARekjfBsL7sPrbZtZhuBUdnerLH3cwzkraP0kvafsh8p/fwTCjDOiwNPCnJJvvjHYih1vavp2ylzPPFn0lhOzgYetJDEJHJTcYp0DLJW1thTpdkEclOuJV9HFtHTb++imdmyt1E06bTvOoqMDYOjtz7Kx/kHH54wTC2NRU9han3YjSPrWMOe/Qg3lfphxahBJG+H8c1OMpY2rW+SmThE2Rjelj53PiGQPSrKRVZ8xbPS4ZBC33ApThAQ6fjDG39Age74DTHHD3owqubK1j3Hv/f8m99NbnOYu3bKrt9+gN2dvvFArtB/5nh6IRBUNjuw2YY13YdHA219FJjQpQeEkZSg8xNYWGuryK1bKs044qXIUSJEHknb6ZVykHkJ1EYBwcWs+TNpHQv/x11+6Aoor1LbiDya2+znupzduU8dy2m5nyuWn602PgRDsesR1iUnV2p8655w7Agd8Kou3uLjJhJz3/KFoOKXpBKhmuq4xzWvi0y/Y/m/fzFmZDcFHa3p7+BMe6A05a6nXJJ5VkM065FRKtBPUVWv8l1HTQNAxs1gHs8ajZGP+sopQaF0Z5/ihnkOcfpMMg6imFSjJCCvBMiYYlkFZS0vG8ITl2f8aTtC08j4HM2A45FTQkEuyn3qBmI8nwyILXlRNDTH9BvJ0vdiS774Gmwrp1dqUPv/R4uwem9OBKxQ0mT558kUnZ153MSNYA+/+BoMgTL/8t+b/63yJn9RJEhsRizLZ9TsrKlU8LRiZKAg6NKuhMhI6CUOKIGkEVQSJsiqs79hYbNn+KQh8SemznljbW05zkI9+yK33d/n3b8PLDX0M8D+k5kERUhjanV8e49lv7h0lyMrWnNWQvvIFKAix5nexEWYUu1bFOYstpFiBab6kkzahE9iKhULzKcdDsqa/0mWR8WM+JqDOL2BaRdzxVamhCoKS+AHW2aEv3NeyIf/Z7IRa9WaAnObiL3fywy/68iH9zHAjfsKgzH2ne41h7e+oS+Iz/qv1f2MWRPXd2p82cfF/n4ATI2WccwtloFup+OxYU6bsIoy332IowiLckiTbrtS+PfBURSi44fCUmu4DQRZ2WRqh2/awlORngi91WE8sDe76lvZxzCKYsaQJpcaV/UorFW5NtncUrn/UfE30Cmaqil3NTciI7/vBfhQqTtFdm7VOTa/+MYvvwr28cNhyG/9h1aCx2daJlz9+ZZXPOmyFf/h9Mp0nlj5qeJOv0jzJULA0zkYTOP0KUwclbn3kdBXYVhSFMLzp2HDvmuK1BGDitZn+5izzc/+fMS1w2RGzt+fjie7wP4NSJ2qEoEO2pSr3ZxV0d+pmzpeF9BPUXm/seQnm8n9f7+vcYtNlooIzWXPKW+psxhFqFXXhu1KIgaaDnN23cC0cHOhR0f7/QH0Y3OOtbxtragvpp2s+pSroNefdPZlX7wgyuNZ6nbittfwaC2t4vkJpGJuOavcBzqa0gVa1GeTzbClFNQX0XNPDASZ2zQNNjvyhzrxNE4ZrXldC4oyDhE+5ktCIiAue3uDdNci/Y2ormzGRjskzswBs0NXBefYJ6nkdcaczECe5I1Wv5fjPhNz4jc9C+yNVVnVSUxEcRvPn1QpEdvlN/8e1BCWvQEjoPi8AXHcAyHVuIsXPc4WY6aMnVfEb3Yxs2d6zbkCuNnsLFONeZ617sj9J+MSl+vS9Tpbloo7xXeC+ds5CzS8EuewnnsDGorRD59iBr/zoUQNpvqO7cPPaRs5f55+FovNXQGSVvV7y+959zs046fB/aU+3lCTRlpssY6ojGt2ImnHwttWR5ks47g4Qtzt72dxbWpnlpj0kb+T97M17ENtEsdNRChogexyCqLogiLfW05qVitQZh2n347j4LQOFLeiaP1JVu1x9rexiIe0AOynF7rky3IPgYD3cVd5ManrfexO7sYZEff5DqZRsDWUJxJNNv/UpGCNCKYvhNJgV9yA3XxLV9gVMITIYiNvcm8rSx5Myp42rq2fzgGu60N4x6eICIODNw5sZ3UdsoWjt/Jifvm5mVeq9ZDyhbauqrOUlJZ84Zh8toRpD2rinheZjxE/TggQpWsDY1FRGb3Nxx3QCQGduyNqkZCSAzvkbKdVP22Lzm+m54l0yRCaWHDR0ivpu+nbh6eQP195wKu612vqcIunn44PoljeJZ+eAFi2tDpqPzFDFbLG/t/4P2cXLj2sUPNSx8dIWogzose7+S7f1M7vvV5MhKxQ7lOmUdwjJrqOP61b9Fu13OA5Wfw0EpjR7mxluvX2XZNUyx9nuMYe8O5Yd4XZ6qTIb0C6Viw4+KB3aCfJwQYhqSIQC5TFkAR+rxP7Say8Q60bQKbCCIaJVk4Av0mYiTOZhJNNNRQM4xIxEm48g9EinqR/OxHSb27ecLCz0/FCFmTyfQOJEo+uBwme0cEuUMrcSySNpEG7ux0qdQdLPb9J3G8tkyAcvOkvLHiFdTgbGnFaWkSWfqcyNV/ZeEfeQ33a90HIs2GMZd9J7LQ71jAl4ubuaa8CAZv4jxz/sC+pRjKHQuoO3sanJ7qEvr5r3qYYw2JIV1blE6HQ+oOUrhnz0CIzE2GpHdgGdc1IIKpeM4u3Ot+k8jO3P0m+z22AdKe1hD4hlDPP7Wb9jgliu3RG41000mB2xcwyKckm5TvlHswjtWl8AtaGtE8SNtH+jx2KE7D8Q38fWic8YxyZ4OKnoMDfdWtrSKz/w7hzsuPiXZRA0QOrCBDMuUeCHkBBu0BvxDrZSpbsWsxzsj1Txi3Vbp7c028A7i2WcdwfBtquC+W1AVTd/B7LXqN6d6xFpzE+Do6IZp0LrD6dUouIiKjZ3fO8bXj/MNeQz9P8I9Q+6hP7iR9qZWfHDYDQtDBFR0PC9Fi9BzIRrWVRBaWUHiaFLQemhpYLJXsQGsLDPX4kcZT4kwx6XaRT/5A5KSdiGUKZ1fOv9rQ+nZqN21hfqFck44WuaPr6IWedp9t09FMcd97Ih//AdLa3Oesb7v9KyJzbTp37E2876rXRd69SxVeueU5lOPWvy/yzt30Wiv3ruAUuuiunsb7r63AQYgfSTT4wwuUMOKG6/fOB0R0LrU87maMU8o2MiGNdYjnhMSg/GVaRknfT9r//g9N3rcH6fiTOznXojOcZ71BYGjMDTg2jXU4dYXpRON7v6Wuf+M/2c+B5epQl/T9+lPkzhzAuXFwFLnu/9QyiqJ+tuhJkYgEkbmaXvM+43Eql79MX/+oa22/RqYoyaIEMe5myy1qg68gu3Fiu/paRaHlfcYMxoFVoAwN6g7Wf8D/2mCgu8hJMnzjYNugKDsuLNgj9PMIF3dVCtbd27hNLTiKCL6mjNf9bZzf7B1kYEAn6Y+IPJvBYrnxIyL54Gh1KpqCqrPGutmRfViIm+oQILF4Pm6k27d/DaO6uUF/wVZkQVs1GtIFp2j/OvojEXtEL30ltG3zGbIx+9GuT35ydKIeum+pyJHVGB491n3GIYzPVX/SP9f+k4k4175LeaNnXyKakbOIaLd/jWFwdSdNO/hy85TwyR3c+5ghIu/dQyo2KKpzbXZ6qKsQObUHxruLYaZ9eAL3f8RMOigcnTC8yj3KPylyejfdEy2N5s+coxPOQdIm1OaGXEHtOySGVG17O0N6Ekaq8wFm/ImfS3No4/MLE7n6L5zfgCl0EfToq5ZpDq3kmouDyA1Pmh/D0XUcW1k+kbpWEc03BH2AtW+RudixgBR4ZwawiIh88y/u08w/W9+uNFdjAIVsTkUhzphphqo4A8Z81AB+P/3Bzkkdm6IsV2THQjIZtz5vXSraVuxcRJZHhHvS0YAiOy482A36eURQFAtUcwPGdYQmnenoLFJfiaGrrzaWie0Inn6kC5VxkiIs5GvfJu1bWUQ6bebDREp9J4iERJO6rCqmFSqghxopO7lglHYtxohZIseJsHCf3MXCduYgEahyDLXltModXMkCHp7IsYiIPDgfIxMSS0/w7iWUHhThneYGSFn5qZDfbC1DWMPwq0hVb/uKlLk2bV91lkh2zmPWley8/GHviwMR68kdGM6I3rCuo/qTmj1zSKSxRiQo2piLsHsJ7+0bynWuKib678487N3f4BjEDkUoJWoA0XXaPkhUqTsoe0T04l4o5Y5Vr+O8ePmTjk/UsOn3fgfvoaZc5LJ7UYn7yRFIRYilqghWdP4p9jn2JlLo2+fTrnblA8b7dHJGI3zFyyL9JqBFXpDGs3Ht342fs5ZG6sXt7TDdvQMQpokeaNxZ4e5NmSnnOJmP2orOiRmtexdn9JZn9R1KLcIT1al7/SfjzB1ZQ8bJL4zPUGURfJi93+Hk3fhP7om1z5AtWPo8zn78cJEBU7u3LwUr/qsOS5rxQPeeQTvOD+wG/TyjpREDqqh6aVN8/hFE6RUFLPq2LgIBPUhnnjmIrvnmz1lUKwqJHmc9QpSgpH89fDGQ7j4s8odWEa0NvVIVqQjvxT6zjhJZWULGQVqxFBSl46gUnBRZ8k/SmcNnIiHb/1KM3ontRBwDpkDGGnE1xm3bfGrJgZEw2Zvq+TtrrXGdRe+xIu5eEKD8QohmizOJ8kZcY7vqVngi19bBgVTosR+JGKMHE5kPnIqzs3ORSNIGjM2eb6jBjrmee5t5mDR43IiunUtVMaTH0ddhsLW94S5uImFx3JuWJiLfqIFkRAZMwfBlHMT4efqJ7PwaB2zTxyL7lhGxznlMxNmZUkXP/jwn69/nHhWdpoTS3i4y5x+c+8mdIktfwMGZ+Wf9co2XP47rqjfYT8IohvpoI9yGGpwrN0/U+UQQo3Fx5z6ZRupHVnMtRBjRaqv+QNImnNar/8L16wiOThzvgCkQTKMH8XNOEmUnRbEw8zDZrT7jbdeIsIbKIrVPfO5/bOOPdITsYyJH17NPNy9KgHZcfLAb9POMwEjDBC7B2x+o8bbdvTGI5QVE2/GdWOgrCgwp1D0sABG9kd0cfIV1XXN3b4xN5mEWWG3qNyyeNKalsaoKkjaJSLtIuwMLxPGNGA53L1K02nS+ixuRy+ZPjR2anv1YALd+CRs6LIF2KUtyuN1BaJxIwghIVYdWkz53dIII11mExUMc8/CFF7D3O+Z9J4xict2Iq4leT+7C4LW1Uoutq6QMMWp216O3NW8xU90S09vJhWtda5hiljCSaDaiF8dxZC3ZkW1foUHf2kyUfdlviQQdnVB72/wpUWxwFA5jYRq189Zmjr+5QeTHt8kKXf0XfTniliYcn5QtZKHaWigXXW6iuFeWR8tbz/6w8bXoYZj3vf59nlMfgyhMcAy1/X6TzAe3WEJJFk7duJuNSXqdhXcATpFfqCq4pKC8oHu1fQXfPitSW8ZkuiFXdLy9LVj+kjqIZcz1xjLGdlw8sBv08wxXd/qWS7KJKkzbvjz9SJOWZEOU62jISNEZkWUvqHrxIqRRp95rLKRhDeGJCKNkH2dxUsh63oEslAdWsJDo1Z19Q4jsis6o4hQtjfx//4f6E5t8gklDb/oUI1FbTjRXkY8z0NqCIdSrx58rePqLDL4MQld7G9kAa3r6HSE4GsMenoAzs+ljkdRdhjRzP4xprzEi4fGc+55vieLS9lIfbqrhWlnrFtCiJBshoo6UzFzcydg4OogkbSb63fsdKfbqEmqn1/wFNv6AKRxDcwNp+u3zOTZPX8OUuwxS3lPvZaCJoxN92slbyBJMvdeyeMqGD3GcynLIDM39tzpDQLnP1SWMyB09x7IgUM/+nNOaN3GmAiIwqn3Gd8zQrqsgC3RgGY5cjz4iV/zB+t/YCg8fc9JpcwPn0dxAmaKtxTrJVA8lWWrtfN7z5yY6r6/imXBwEHFwErnpn93fpx3nB3aW+wWAUbPVmcSHVkGYURAzmAjybAYe/6jZ+vvIOsbCrJB04oZTA9+3lN91pgbv5ikyYS7p250LjY9n4m2QrbZ/bVnt7fLfUd87c9D4dVOGtxZDZzBf+wcDc9ndG2Nz6V2c//L/0opnbR/dhYcvAiPr3oXwtPkzBGS6g+hBKKI11ED42rmQ/YYniEy+Q2SQgQXfUIvjNvYmHKeMwyLJ21TnwsmFc/cPxeD5BMMCDzOknhuqaesSwdgWpqnR4alddC6U5MANUPTg29upafsEkTnJPq6KAzXU4Fyc2oND1n8yDmXyFo6lOFXkgS/U89y1mDSzCMfZv4PnTTk2V080BLwDITrOf0QzV75BJd1Zw4irGaTy/XPU3m1hj1cUinz7L5XDISJyxysd/52t8Ak2F8oRgRhYmKa+79DpdEnYihWv4ignjDh3SnNr31a1KPp3kWhqx4UBu0G/ABAaR50v+xhp1wm3GqdNx88VWfofaq5N9WpPsQiL9aHVpECVfU25R41OMg6xzxFXQzizFUptO3kzC7lCQnP1oD1t7Vss2hG9jf+u8DT10AoTJS1b+lmHTicNLYJBCYxUiYIRvckMdEa6tSsI7yVyx2ssuIueEPnod9TtAyO7t193b9K/425h30fWsDg31WPcGmqoC8ePpK4cN9z478vzST8XpolkHmX75nqRxgYRaSNlXl3KPXNwhGTnE0Qk7u5DmWTgVJymg8t5raWRHvfPHsIJaG/DeH75N6LH4Bh0C5zdIG9G9MbhCI5Gbnjv95RRso5STpj2G5y4yrP62u4KzhxQJ7NpS0x+YTy/Zw7w89DptvdpD75CpLFeZNmLkOZMn7emOjoNcpJxXMryzPdxrgykiEouC+qJ1G3fiVxfxelRcGQtSnW21NazjuFoOjhQyjgXaKyFsCnCfu3KcBc3HNrbtcKfdpwvZB0lYhDB+F6qmTdemivy+Z9FRFOPC4yEvFJwip+DoxEA0c7sFmGBXfoforp5L3bumMryWOyDo0XufM34d1//nYXquscNqlex9Mxv+Zzfj5pNRJ1+gMV9SAe1exGcgE802YCACJF73ub73GRq3Pd/ZNts83OF7fNFDqwS6T8RA3SuUVuOYc9T5FMdSBn7hRHF9xpH22BHyD7GZLap91rfrqWJe1pfTerXxZ3/HR0ZOeruKdJzoLHQT0iscV0/fT/lkaqz+jXy5f8lSjZN/1cWMTwmqCdOod59/PB+db79DU93vn1vz7dkpa5/Um0DPbDckHlwoO2yZz/kbJf/l3NXMORK+ALnAhs+gCdx7zvG1+4VneExk263nHnT4v37qJ0PuUJ/ul9XsOYtVWI6eqDIjc+cm/3acX5gj9AvEMQMISIqySIauuRGdSFY/boYGXMRNcKI7EcLmiXVs/gRRFYFp0jpdmZaVGAki9zRH1mIevYn5d6jD2n4zx8mghXBAFUWQWq77D5kMEVszwpUl4r8+C61bCdng0qapge55wAY93mp3e/R7gwm3s41+OYZkbfvIAUfM+Tc7d8rgKEkX/xZrVsXpoukbqOFK+sYxrelScTFQ8Q3iOviaJjCEBiF4VdG4G75DIJaYy1RaXs70XxNuWHMrmFSnIiItBPFhyfyHA2+HB7HgeU4Tzf+U20bLMujFfL0XrJD1z+BY6AQ0bQYfwvErd5jMdpN9RjZtL0YIr1sTVkedfVR1+JA7lgoUpTW+Xt9yQ1kHr79FwS7Q6vgYFz2W45HyRzkpRIx952I4+nixjlnHCJt39nedS3S9/MZvvFpc4Kjb4jKwFdwei9OkZapb4qkjRhzJ5dzZ8ybG0ROaHTb/xcOqx0/L+ykuAsIbp6w0ttaWQijBrJQ71pk+W9++4E+0UyLsAQIR0orWmdEKLZ/rQrPVBWTEu8/mezA/mXqdo21tNnd82bnZyenbqctTWHBj58Ly3bfUoNCmYH5npOEIfu55SjdvGi18w1hVGfSJshs56p9Luc4xlZR5vIOJIU9aBpp55GzIIYNmoaBdfUUEQcyJKU5lFtyU+hzb2untSw4mq9wg9Svojs/5jruVWMd92nETIxXUTrRq5sX6X6fIPrDa0ppvSrJFokZJDLpNp5LD1/KAHWV5kbX0w/noq5SpCQTzkDMEOSG9YzW/h94xi//Hd0AfqH00K95E2els/3Q0YMZ+7pjAed249NcB+W5P5uBwZ98Bw5qQA/eM2YIokdJGw0M/i6UWZRhQXHD9ecwBEeRSWlt5ufASNokj62jnGVawlKw+Ekck0m3nbshLJs+grwqguOtnfpox8UJe4R+AaHfRJSzqorpPx89h8XXEmxd6ELjMMIpW4m+rMmymqIky/jn5gYESrqjQV2Wp8p+Zh8nTTpgijH5Lmog/fLLXoIJHDUQY1BT3vX37S76TuDrwDKRJc8gpTrjQZFwC4uwrcg6btsi7ebJgq+36J/eg6GyZXTulHuIrnuPJVIddwuktrI8jMuJ7ZDsogdT7pn3gv5+whMty50mjmKk7qQ7LJd6qs7iIIUliNzxqvHvfIJoLrjeIAAAIABJREFUU1v5GmS1zg5dKcsjOi44xTG6uuMANdVDnhtyhXl7Wlg8qmvf/FMlZ4rgUE2+07b3XfkqWRFLfdwxQ0R+8y6fK68ADHrSJgitmz/l2l9+v3GGYNt8CIJuXkzCOxdoaRI5vkn92d53/suAPUK/wODqgbFraeID3HeCqiZniuFXYehsQUQiqfPCNFrRbG13Sd6iOhXthn9c3KiXmx5Tjz7q6FdLyDsh8tUjpJKTtxBZjrlev/brH84c7FVvENlkHKbFZsClth27LTibQbuV3vU4tBIxnLS9EJeUbXr0ZXpYWR6LcMoWjrWz4zsVbJtv6F3vZAuTFiVZODvaaDk3hayHaXthfir95l7+PGt5qZAZ21p4nkZdi256eAIR69AZ+u95eg9OllaE5dRuHDRPfwyqqaSxiJqC37cUIp2lDoyAHji3e77l2heetk0hcO93TEG75y3S6hs+MMj8rqUNcvhMdda7KTx8MLpa3fX8kx1PERThOJM2ilz3D3gCluDiRkZAIeGFxnFMrS1kwI6to3wVPZByyYpXRKQdUZ2uPmOm2PiROizGL4xshR0XP+wR+gWGQdOQA60uYYEYfDmR6tq3jKOh9nbrim2m8A4iEtv2JQZEWy87c5B0du4JFk0tQuOpb7e1GFpbHFjIRUgHVxTCHhaxbbHRm4M+4VbL2w+YgiDHMk2U9+2/zs10KS0RcexN5gz6U7txWorSRT5/CIKTtm1u2m/4OrYOcZOWZpFh00XGdoKJ31BDWrujsklHaG0xFjH54QWMtQjXsMowQasoA+eorY1ac12lyJ2vMuI0cbRx9N/arK81oCB1J8NtmuowlOkHGPuqaKCXDiBVPHS6Wrs+vhGC2rCrrA8PUjB+rsg7d9JaJYLzpQxp0UNNKan221+mbDVwGtkHBS7upNmtQblWWpTmWK+r56VyXqPn2O5km2LiPMoeGz4km5ZxmHNob8ORiR/e8T5sQaPhfimw1H5qx8UHu0G/ADHuZtKVTXUMIpkwD2OSeYS65cldRLo7F9J2ZCtGXQsJJmkTkXRTvcjW+cYtZt5BsKxd3EhRFmeJtLcaz0wXYWHU9s8eWI6oSM/+zLK2BD1ddIVtbQkTbmX/St0x6ygRaXA3x2SW56vf715CGlYbhSWOwckREamrYmKZ3nS3wVfwVZxJ7/6BFURXE2/vuA6bk3xuSHZtLcbDbhQyll8YRiKit3H9ett8nIhTe2j3ShiJAdG2y6Xvt1xa2f61SI9e1L/rKnEabjJhSAdFYYgW/IMUen0VPItbn7dOANPCNKXfUUvOgRWUEhTjW2tSorFl/rgekXPDh2Qd9Eh6zQ0iq9/AkHfkLHSEnv1Fpt4jsmuJ2ooqYjznobvY8IHq/PmHm7dI2nHxwm7QL0AMnEpUUV3CAjV8JotJ7FC+evQlbX1iO+lqSyMe9TD5LpFvn4G1rSBqIO+px4BvaWTb/JPGr5um20fOIsrf8CEDN/TSx3knMJxaRA2E/OToTL+7dja3FiExlAsUnAuBmb4TRTZ+zPe+IebDOI5vYMFTREA60vcOiaUHWoRMyKInRaSdEsH4ufptWjlJ58agt7YaR+jTHzTmJJgiqCeyr6Fx1Jl7jyWyjRvGAl9fJbLvB/1MyLIXaSPsfynPpiUuR0m2mr0pyUI4JmGU/raWEBgJ+bC6hLJHRxPATu9lyJACZ02GwcOXcz1zwHJXiAjvN/c/aAWExFIG2/Ahn5vL7zeWLhYRWfuOiLTDju8u9n2Ps2SK1a/jMI67uXttm3UVqoiViPVnxI6LD3aDfoFi/C2kGVubRXYuNta4DotnAT61m4VGMSK2oLVJ/V5R57JUlyw6I/LD8+ZqVwqqS4yZ3lc9LDL/byw+1z9pvO2Zg7CmAyNRY2ttIX267l0WYRHqh3e+Zh5FJW/GmA+fyaKWkwwxb/hM289bD4rBvvIB6sXahfLoOrgDtRWcS+zQzu170h18leWhRf/BfRiX+BEil9wMNyB1O1Fw70u6dx4iZFHa2zreTkFgJHX00Diubf/JnOeKl3FgcpJhxCsyrGcOYAjyUvmb+z+2bFh2LqRdrE2TMfAOMjbm5QW0YSntjZbg6iFy9xvU0jtyXKtLSJcrUXRxlsiSp4zV2HZ8zaQyPfEZLXr0MXbgQuPQc1j/AVmNuOFk0JobEXea94IqkdxVVBTqG/O4YSJVJWRDTu7EOexM+6kW695Vvw+Lt+xA23Fxwk6Ku0ARGseC21BDDdd02lp4AotmVTHRqzUSjoLCNAZQtLexUNZXszDopT8PriRybqgmip58B86FdwDHUVtBBNb/UvVvnF0Y9LH9a5yNU7tgsWcdQXAmZjAzrr0CSL17GPTbtQu/q4dxxJq8Gcfmqj/RejVgCun5rZ/jEHS1ha2iALLRNX+lRc5R49o21rLo+4WTlraFOW4JHr70GI+eIxISJ5K+j+uz5zsW58Y6MhfddU7yUrmftg7wcXImrdveiqhNcAwGrKGa1+srkIrdv4znLPMIWaLLfisy/Gp9jfnmBpEdXxHZt7ZQp5/3Ivc9aRPRsYcvTtniJ7i3zQ0dO0tOztZH2CpQVPTGXA8h8Jt/igy5HFa/gujBXKetn0PWs3W+gU8QHIO0/RApFdW5/FSEoKzV9W1FxmEDP6Wd0oJS5mpvh+Dn6ESf/KndvH94r87NVK8sggynDFm46Zlzq45nx/mHPUK/gDHxNiImEXp5Zz+q/s4vjNryjgUYy14dRHk1pSLf/xujPO03LOCLnxRZ/abIXa+pNezqUqLysxn8PPlO0ukiZAUUrHwVg7TmTeMpWBG9Sd8nbRIp1bx/73H6uug9eusT5UQg7qx7F4OqZUKPupaWsZWvcl5dEdpY9QbHqUdg2jYfgl/hachVXUFeKlGwtvQQM4gvEabZ/fgOzPSKQpE3bhUJjcG5SBhNqrczqdXWZmPHqCOse4/0qzJh67tnyVY4uRIRRg/C0XP1wGhYI+0VnmbOQE6KSOJIjruliWcsPJFsioiBA1KgasmLqBKp3UVhGmWOugqe8+wkslp6xNFpvyE7sORpuCS1FZzv0BnWo+yAHpSFts03fv1cKRd6KsbVQR1sJKI63JfcwPls+5JsyZd/oXc8agCiTDWlZMz6TYJgZ4qVr8hPO44a2H05YzsuPNgN+gWM3mOJQHNT1Fnk2uh1zPUYvcoixD/G3mh5X1u+IDIZPUdtQ1J607d+gVFM2cpUsMY6FvE5/7Ccjp/+IGSolK201mmJNXVV5ttbYujOeIgIXKm17v+BLw9f6rij56iCK1r0GU/U9v1/RMoLRWb/3TqxTosDy4lM9WQ+lSE4ITGG+exdUAz74s9kLxydDIIu16OHrkXsMNLWFYUY0tJskdP7iGIzjpDKdXTEoHoHEh27ekBWdHblS1uaqCgkKq4pxSnTGsrqUpHiDGrmdRUIF5XlmxzPUEoPtvZ7N9bSdpi0Cadl0DR1UtmoOfA7di5kO0XKVYRnujRX1WvvzNAga1j2EucuQqQ74yHraWlFw/7Edn7OPs7zrI3m9dCgowuh97x3BTFDREKimTff3q5G6FqBGp8guggGTsUh3Pc9XwqqS/i5qlhkpoYwm3UU5UGlU6W7Q4fsuDBhN+gXOC77LRKrItTL733H+PdX/oFIY9cihqXoEZQKTxNNh/cyZuFO+w3OwtF1LLK5Bj3xiN7IkVrru3V2xah/9pDI8pdFbntRrXG6e5lv7+Covx+vALXevuJldexrfRXEN2us4aiBtE19+y+Rrx9FjrQj9bayPBwYS2InGz7EuGUeMecB2IKWJuqd0o7h3PsdoiaWVLgUedugaL70UHia9G5xpkhZAWlxpV7eVAchTmkrzEliBKazC210zi6Q/YJ6UjPt0ZcotK2NqDZhpMiq1zAQHRnzpjq4EKf2cB37TRSZ85j5Nff0Iw19bB3p+hkPkep29zKuo3/zDP3eHZENO0JNmWrMFfSy0mkhwvPb1mr8WkWR/rZaKDPYtTi+gf2V53Mtxs/tXCpcQW0FzpcIGRoPb5xKvZJEzBCRu99EYjc/1fz3qdtZDxRHe+VrqoMwYqY91f5Lhd2gX+AIikII5vgGorDDq+nhVRA1kCjnxDbq0XMeM9/H3qX8P9Gk39vVE7Ws7V+pxnzM9db7wrXwDaFH/vvnVKdDifpNYUt6z5QZ/5PmuBWExuFMLH2e0ZvXPW59bvry/3L99LZJ2ydSXSxS1khavyMhET04uxKRb/uSn51cu99jHt6LL2vY+gXR45WdmOetkMdCYshMaIes1JZT0ijOxAjXVxNtxw0nY2JL5mL0HIR3RlyjLwY09R6emzHXdy/9a0oG9A2x7ECKwJ/w8MOZ0hI+vW2436k7cIhC46nBh8QSKR9erW5z5iAkvNZmtTXS2RVHWRl3q4e1b3EPbVWmc3HX19JXUJjG/dq/FCdQhM+8dvCTHb8s2A36RYCJ84iwm+ohVPWbZEyQu/ROUvJnDiBwUllEBJY4mhRn2l4ih2hND21zgypgoWDAFNuNuYJWk7ptylaO7eZnOZ6WZhS61rwpcttL1tPipobP28pipYVvKOz4jR8xBW7CPBjaptj+NYu/JZWwTZ8YtLWzGI7TVeSfEglLVLsILnQERIoUnKS2XVtO/X/XIiJGEYz6DU+R9u8MBkzhmu//QZ9YGBRFqn7H16igdQWp23FkwxO5r82NOG0bPhCZ/kfjbRtq4Aoo7Y8jZ2GQS7KJXo+tNx7Za4ofXiBzM+cfxv3oGz4UkXr159pykeUvWT7m2KFcm76a2eNJG9l3YKTtMrMiOAjKyGFTODnTdrpTMwtCm4a345cHO8v9IoCLGx/OrKOkVhvrSJX+9Ht3IoDMI7SaVRbRvpN5mMi7tpyUatwwti84haSpEpWPnMXinZME67czdeNj69QRrgq8g0QmzKUlJmogUcLRtYz47D1WfzhM2j4inch+HGvPfoa51bkdE/4UxI9gQdz6BQz76EFE+cWZREpbPmdQh15qec+31B/zT1LmiOggIraEhhqRH98mihs2vfviN7Yi6yjp/sTR6mv5J6kRe/jqp1iLzoiU5eAMZh8nyiwvJFIN6MHv21rprw60oYvCEhTFQz1nrkcfHLGYwdajTVM01GC49y2FFHb94xxzQA+R0FiRbV+xP2VanAjZgvQD6s815XRdDJhCBqHgFM6nq4d5GWDDBwad9d8Zk0NFzElyIjxjI68lS9F/Ms9iWAKlpPyTsNmTN4sE9uAz/Z2h9fS6JzqnWx8ay3E1mmSznF15jjd/goMqwuf60rts37cdFx/sEfpFgpGzqDdWFGJEB0w2HuhhKT2t6DVHG9jce7+DGS9CinvGnzD0fScghLL+A6IWW426XmrTVHQmOJo5y0ueot5/w9PGbOJTu2ghSxhlHNHGDKHNbtlL1PRtQd8JHPuq14jWtQvdoGn6vczVJRC4QmIhIXZGUtcUqTswCNWl1hXz/tfIOyGy6Am+3/4VZYbGWhb36hLS7P6Gtrz+k3Go7nkbdn9VMc9aWLyh7zy268cx+HKu7cEV+nwID19S7j++I3LXG7btMzdFZNXr1M31ZonHj+S1de/BHVA+J8rIYQXa8bwiPGPf/weHsK0FEmFbK/s4uo5Sg6mwTWmO/jHWlMElMK1/j72R49+1CF7E98+pjs6EW62Xi/Tg4i5yy3NkBJTMg4cvpDdnV5ETOw3EdgecBTt+2XBob2/vSE3RjgsEhachf4mwEN/zlvq7JU+xQJiiXfhAz/0PqbdsQ4tYz/4iV//VmLyTfQyikm8o+t6uHub7a6qn3hoaS5/y98/pT4Sb/qC5YSw6g0EPCKeW5+gIEezQSiKiG54yj+IK02hD8o+A9Gaq5mYNy19SRWtEiP5v+bf5diteVlPNt/3XOKrrLBY8JiLtXMOr/6K+XnSG83RwZFHv7EjQjrD1C6JWRaM/N1lksUHlLSiKso27j/mgFAVvzhO56iGckM8fVg2Vsys8ie7Ig27+lG6M332s/0y1NIl8+iAa+B0pwW37kt748F4iM/5ovfb+/XNE3c2NqmywAr8wUud6+g3fPmPeSjngUvMUfnk+97uhhs9TeQGOUnA0nRQi6AtYYs6n7YWs1tpMmeqBL6yeeqfx0e9VXfrhV4lM0RmAZMcvC/aU+0UE7yCi3/yTkFwcHEg3itBCpDdUQulnTdqoSpiOn4vBdTUxnn5hLOCnd7Oga2t8IizKCx8jVbhvKft0coHc5OZFxD98JsYrdTsLmzYi9g7AETiwnGOtLGLB9Q2Bra632HsHwlg+slYkaTMp5bNniIB8O2C0B8fwdwrcvcxHZuYk0fJXX00ZozsCL+UFItvnc01GXWtsbJY+R0mkOJOhJqPO0RhMBZlHjFPuvqE8Gz36YuQDI61frzMHuf5RA2CmKySqkBh4Et0x6KGxtFI5u6rPqxaOTjwDmz/j/ugNhCnJRjchfT/8iKv/0jFT2yeITIOWNDd+Lmnnibdp+r5NkHVMTVMrGHaVsaNXlkf2qLacls9p95FF6z+ZqLxnfzgkOclE5IljjGVoRXheTmzj+5Ym9qUtpXUHe79VnVkXD31H1o5fHqxwQe24EDF+rio0ocywFrFtwpNPELOl9fq6FYyew+Kdvh+1OAUl2caykQou/y3a1lf9CeWpEVezeHj4EvlmHDLeXk+Ew8HRuja7fwSEOmdXkY8NbXqLHlcnpVmChw9/ExgJw7g4CwGOhhqio91LIBEGRZJl6I4inIhI8iY4CA015prlvcep3+txCLoNnTxb1EBS3rYgJBZHTASewbCruIejr1M1AroKrwAG3xxaaVlIptclpKj3fGv+u2Pr6e1vb+MZm6AjmqKHkmzz16IHdVxO0us1d9M4m1VnyX5UncUxGHKF+fbRgyBqhsTgNC54lFKGgtwUugg8/ShB+YdzntqMUldRVSKyQ0uEe8jytnb8smA36BcZnF0xngqUsZJjbzQmRCnbKhgwReTO1/UnSZnimr9iBLd8pqYeLam56YlqKHrtnn4QlxTynQjG2RS2CMJ4+JJibW1BdEMEIpgS4ehh9Rscw20vMeFr+oMsrh/cR11+92L6ugvTaQ3srnJW8hYRnxB9bfY+BiLVpNvR/T7XaOuEjrseQmJVvoVPMMdZX0VKujxf7Y/uKkZei6NzdJ3lbSbcCiN+yVOUWZI3E5Xv+BrNhHve7txoUgcTeVpPP9t63t10MkUl2dzf3UsglNZVUPvXir6YwjuQUlfMEBzv+X/DUa46C8ejpQmRmJjBKkdk7Vtc9+5g0ePyk4MX2RflQTt+HbAb9IsQkf1UtbeCU+ps42v/jlSpIqqhjYaGz7R9eISLO/VFF3dadUqy9Bc5EcsCGoGRRB7iAIN350LSrnkp5tu2NNq2iLl6UGb4SeNaMMZ6OPojBn/2Y6rDMGAK3ABF/U7hF4iYz4HvLLKPUwYozxfpNdb895lHSNmOmt21/nZb0JnhLKYIi+f4FT6EsyuRbHEmRj3jYPeOzT8c8uWhlZa3UaRrc5JRe1v7Ns7FPW+rz7utSN6MQ5owiln3Q6ejBKctwehh25ewxnuN4e8m30kaffc3GNtdiykVxQ61rcXTxR1uSK9LcGh+eEHky79yrcfPJZIXoTw0chYcFW1Pe2ex5xtVmc/JGV0GO349sBv0ixSTb1dT75s/JV1amCay5i01bRc/Uu2XzUnq3P79w6lTKuNTQ+PNDVFkX2MxElOExCCy0tJEKnX717CTfUNRYZv1CP87uRCJWZrqpsAvzFigxKFd5PAa85RwcRYtamNvNJ/n7eJuTFbT/o12LnxnkbIFA9hUr7YHapFx5H87d7q9Tc1cdAWKjKx2RG1Eb+bBxw5j6El3MXoOaWdFDdAUeSYjeuNHko3Sai50hMZayJDrPxC54vd0TYy7mRr3qNm0yCna8qbY+gWEu2n30Rc/7maMrN54W710vjXMegSnQoTOCxd381S9Ugo7tLprGveVRUxm1L7nuRgzbMfFAzsp7iKFozO6zylbiWzS9hP91FVieGc9gkFzcMTA11aYE8I6QoChRzbzCG1QNz5NlOzpT6/41HuNp5Tp4cha89ae+OEsrkE9cRz6TeQY936H+I01xa7EMaSHg3qieJV7gpaoikIERg4uJ8IKijIeGqNF/klS9U4uxlFtbTkRk4ub/t9ZQkuTyJq3qZ/37C+SqDPze/37IuNv7liatqtI30+Lla09+6ZwdKLlzjtAZcI31HAtR80m8tMT6+kMfEPJmmQeUY2bgtTtIodX4RApmPWIbVPWFJTm0KrXWCty87/U6FdBzBAcloMrKU9VnVU189e8hRrjzc+a95mf2G4ur9rWhrPaGbS1qiIwbS0iJ3fxrCgOi7Mrz2B+qsqW7ww+f0htGY0fgUNix68L9gj9Ikb0YJU1rEzNShglctfrav9rwiiigeLMrhFuJswjsizNwWCOn0uNfeQs84EjetBraSs3iYTdvGC5xwyhfmqpXq9ASYeGxjEpbvQcDHRNqarrbW2c7MaPcApam0Wm3A3Rauq99B1//rC+dK01pGwlk3E2U6SvTsYi7wSOVQ8LLWPnAu1taimiqwiJMS5h9OjNfQ/qiaE1FRDqCvqMY5+f/4nUcsEpyI2rXscJ+/0n9Es7u1pWQNPD1i+4d1EDKTtZ4kNc81cyW58/TAvop38UefsOVbvfdBxvQw1OiCk66rAwRfYxkWWG+QGTbuezU1WMA5J9XN1OGX/b2YzI+vdEaiv53tVD5Jq/de7v7fhlwB6hX6RorCXqS99v/PrkO4xZvE4upGJzkti273j6kTuDXpewqOUkEY3qpSAtobrEeMESweiaqniJQCZzEGqVIrYToGIGUzNvblRfa2nSr7seWkU02NqEUb/yD0TWEb3o1XX3hviUsoXsgb8N/eIbPoQA1VBDmlfvPT19MWb/K5zey7XrjphN1lEUzJyciNLdfUSOrOE6NdXhAOm1ndmK5gZIkgpnIuMw/I+ogUxqGzUb5zMgAgdl3w/0peu1MyooLxBZ+h9axKY/SFZKb1a7AidnVYFQi8t/Z05mrDqL2FJpDtFyUz1Rtqcfxri2nGenLJfWMEuZnapiylYtTZR7Bl/BmNm8E2SWUrbQ0hbZj+zavqWk5W1tocxLEdn4sahzzv917nUO7Lg4YDfoFyGyj4t88zSpYxHSuIpSXE4S5C/t4tKzP69XFBIpDJzacapcC0cnjFH6AeqP/uG2seWrS5HMFEEv3MMXHfryfNKN7W3madHIfkSEmz5mITRl7ltCa7MxT6CpnvNWeAYiLMwrX2H/VSUI6yiRVksTKefcZCLdplpSs+l7cYiCeuq3m5XlwcL2DcWxUCIsLTZ/SlnB0ijac4G0fWQBbL1epihMwzFpayVDUl/FueSfEmmux6ClH6AboKsoyTYmxTm5kE0aNM28zBLRC0VEa73ZW7+ALR4QQTnINLq2hL3fqxktBQMuNZa3LckSWfgE2Z6p9yIqM3wmKfIp9yCulLodRzJ5s2Hkr4+5ZHBtBVF4bTkpcMXJ9PSn7FCWx3OZfRznpNcYzrumzPaU+WcPqV0O/SZ1T0vBjosbdoN+kWHHAiQtlVpZ3HBSxl7+aLc3N5D6NZ0FnTCSWmBlEV+mdcKO4OzK35zcQftOeIL1KWLVJfTq1lXCdp84jwUsbhhlgPQDRFUNNeZkseBojMne71ncEkZ2rBB35iC1x+hBIvGjWJCPruM4GmthJx9YLiLtOAr9J7PwNdVxTVe9RgbDL4xzC4omOs88AgN+x0KMXkszBqSuCkO9fxnORE2pyKTbMOxG16GU/V96t/k0uXOJ03swkF0VJsk8YpztCYuHlFZbJnLmEPdu12LKG9YiYD2UZJNe37HAWIo3MJLSiR4cnZiItnMhssXa61qSReRcmEZGZPKdnVMQPLzavKti2m9UJ/jMQdoa66sg1fW/lNedXFS9eTdPdZa6gozDZLOUzo/aCsielYXwVybfYX4syucwN5nrVHiaZ6u50bZr/dUjKqvd05f2TDt+vbAb9IsEVWdJ2yl1RXdv0sUTb2OhiegN070836AI126csnZxY+DJ8Q0sHF4BGK7OwMWdCPDEdlKlsUP0SV4NNSIL/8FxXPe4eZrW0xeDmnsCQ1SWZ+5geAeiV59xCKMZ1BNDqoeidNL0k+8Uufx+nIYx16Eod3In0Wt5Psak1cAevvqv9LQveoKIdPR11B37T+a6RQ3kXMMTRY5tQDazohDS3aGVIkmbyJDUVxl649tEBl9mfj1St8Ogn9BN0ZqOcGo391gvQ2ALAiOJImvLOe9L78KJc3SkBDHlbtjXoXG29+vnn6QstOVzlPjG3ki/9bibeUbOHKQv3FRTXUFoLKWE/T9wDKd2YSRXvSbSazSjgjujfV5ZRAtlcSaZIAdHMjR1lThqh1fz+dj7PaqCsx+F4a+H03tUGWUt/EIpV9SW82xVFPBMWRtrGzXQkAHZT5SulI5GXG2doLnnW41T4SByx6ud6wiw45cHu0G/CHB8I4QaRdo1foTI9U+Zi2QkjiKV3VCDmIvpYukdRP0v4xCLaWRfy4upJbh78/7JW0RStvG9the9ugRiW0UBLOV4CxGjixvp25JsjFH6fvZVnEE63DeEbQZOZZttX5J9MB12IUINNSgKY65F34lE5wWGHnMtZ8zLT2TLFxjkG54iJW4qzSmCE9HWgjG742WRYTNIzWYf53i0ffFZR81Hb26bj9ExVY471zi5EyNkyQB1BEcnDPnIa4kyFVEi7yBquhGJGOXaCjULkJ/KM9DSaP4cbfoEY+7pT/Q79V7jMk14Ite0psw8m6SgpUlkzxK1hau+SqQ0V+T2/4oMnKavOmgJxZkiS5+nFHPt30XG34LBHHIlpZaMQzhsiprbjIf02w8VNNWbR+gi1Me9AojMywt4xqc/2PHxBUXxbKft43qJj+8EAAAgAElEQVSKcE0tlWmK0nBsFIyf2/Vyix2/HNgN+gWMikKR1a/TltXaAjno8t+JTLrDXIddhBpvzBBVPOPMAZF+k40FZcITcQyKM2l1SxxtWdPaEjz9iLqTNhOBxg9n4a4tp+5YUUj/sLUedQV9xrNQpx8wRL6bqUkmbcKwuHlxjM4uRCRnDuBUbP0S5yVpk0hpNkZZTzgnOMpYwlZBYRrHe+M/O1YPC45BVS4ggkxISCzXMXmz8XbNDRyDbwh10QWPkh5uaSQDoXfPuoqGGox40ibud14qmY7cFK6/T9C5i9ayjzNq1N0L49dYK5J+EIOdfZwOg6gBRKeNdej9551gmM74W/Qjehc3yhQnd8HP0GtPK8tTh5woGDHTtudKi/3LIOOFJ3K/TUfB7vnOfEJgZF/rI3QDIojS6yrV13qNERk2k+EuJdn0mV/+O9uP0zuQDIjSZXHmoMplMMWnf1SFeHr0QUXRDjvsBv0CQUMN6b6DK/i/NBcCV0Uhv1cWo46Y356+hsVmL7XdgtPmE6wSxxCRVBZh1PtN7Lyx8Qk2EJfWkwoNS2DRrCwivdiZEaTxI0iPl+WrrzXVMSBEUb2L7IfjkLqD2nhFgVpeGDiVc9BDaxMZDgdHCF8K2ppJc46a3XGk5+JOtJV9jMhQhOt8eDVGs7mBlq+4YRzfzkW8p9JTXV9N1uFcsNzrq8hWrHhZ1V4PT+BaKJ0DOUkQxs4cpG5vrYWvI9RWwNLPPc77tbYQmZsq64XEcg2WPEVEfctzHRMng6PZd1O9ep8VFKUz9lV5/kW4TzMfts5616KmVOSHF0WOr6dWf+UfzO91/kn6300RM6RjR6//ZEoSnn5wJIbNYM5AcSZOh+l0NluQspV6urMbz2thGj/HDVcVD5VylgidCHe83DmSqx2/XNgN+gWAw6vRrk4/QGRXUUiEo2DoDNKEtkZcITEs/IVppMD1Ws16jWHxqC2n53XglM6TnfzDcTSOb6T1pqFG5LLf2j4QRIuiMyyuP8mxtmMIR85St/EOgrSWapLqbKixzOzdsZAF0cmVCDJ+ONF+bSXR1f4fiATjhlkfmtLcwH1SmMcp23BkfEJE+k8SufZRMgkjruZaVhRhZBVUFHI+jk4wujt7rUVgVi9+irG1Mx+mxNB/MkTAvBOo+U26Dadj+EzeY8tnkCWjBnaOOKZg+3wIc+3txn3ujs6qKI+Hr8hl94nsWiKSncQIWoU8Zg1uXhjuU7s5Nxc3HJCNH/Hl6kE7W3gi35cXYDRtUT87vgFim4Mj2RvTyYEi3L9lLxk7egou/13H18vJhWvfZxzX4JunOY/e4+h37wrWvIUze81fMeBnMygDnN5DSn73Er4X4dzueq1z4jt2/LJh9+vOM9L2Um+0hIFTqUF2FtPuw0gWnMJohScYT/zy8BWZ8zjEnZIsJj/NfrTz7xPZj1ShItvaValJpXfeQQxG3YEIK2kT10CB3uJVX62/z7I80vh+YUQ0l9yHAZz/NxbHS27AcJzcyVfsEGqnnjr69EpbVVUxKfXkzdThy3JErjBJq/qGQtj65EGRxhpmd4cnEtX+sA4HK7IfLHq/MNL4PXqbX7uWRrS/s44RZZfmklEYd7NxpNlYx3G1NPHl7IrzN3Q6TsaaN0W+/AsOUV0lHQfa9rPmBoxHaS491WczyOzknVDr16aiNdMfwODVllNOqDyLwzNxnmV9f1PUV6HbLgKHIn0/JYuQWMiU2u6HIVeIfPKAyNb5ODOWUJaHBnzBKZFxt0DEM0VLo8jGTxj/6+opMvMPMNSrS5i0VpxJmWbK3badR2MdmYmzGVzvrhrzlK0cg18YWbTEMTD8N3zE8/vZQ2I0gOCqP9r7ze0wht2gn2ds/sz677ujzz37URby2gqRFa+IzAvBuCgIi8fwfPNPFtNt81GxshWNdSI/PI8xjxpIqnf169RamxswEL6hRDAdpbX7TYJklHGI9crZjYX3x3eIyG94mu3CE6lv5mmkOJvqiLQuvZMFrugMr+1aTEqysoi/UchXjXWkU3v0QVWsJIvIKPOoyHu/gUE9/Y/6qd2melrRclO4fq5eqlSqKSoKYM6bMviLM1n8i7MwmkfWYmg9/VQilIcPGQtFNa/UIIQy5nrja9lQI/LV/6kp2K8eYcKXEl16B+IALHpCbRlb9x7Rbl0l19FUwz48EZLWuJtxXo5v4DhC43AsspO4X1okbeL4h1+tfy30kLLVvHY95gb9WfHOrnR0rHmTOnq4SX27pYnodd9SUvl3vaFfaihMw3mtLKJsdN0/4Ej01ZRsFj+JI+jlb32amgjO5LfPqMb82r/bdu6mKMmCkyBizIjvN4nnYcGjhvtnMOb9Jor0nWS2Gzt+5bAb9POIonTjGcl60GNe2wpPP6Lwrx7h52+fFbntReMRptGDiErXvEkk7xdqm+Z7fRX1wpJsIugrHyDbsPI1ke+fM9728Cpqqh0Z9eseZ6GtLhHpOUBk1yKmXGUdE3n7doyMuw9GqEcfyghRA0h9bviAWekhMRhMZeHzC6MWP+Ue9X0cHEhXKgiOwbCX5hCxn94LtyCyL0Nwwnurc+eb6tXpdhVFxiUBLRRDrKeqFxJrXl9uqIFHUGRIsZ7NMCZcKXjb4HC5eUH4a6hVjbkIhn/BY9z78gIiaD0kbUKIReEeuHuhK9Cjj3mquc94hp1UFomMmIXjVZprbDBP7uRcbWWep+1FlMUU/a0Yqf6TIbitfQcnMTCSKD5tH/3qVcVkXSzNtT+0Cu0AEWSTZz2iT6Sc9YjIF3+hhh/Zz7LDVl8lsvBxSiuxQ7tuzCuLGMna0sTzZMqTcfcyH9bSWC922GEGu0E/j7C02GoR2a977xEWTx1y3buwk795hvngHhpme//JBgGUr1ELc3G33EokgvFZ9ITaP37lA7yeOIaIZvcS4+2LzmAETMl5evALU9OI426hRWrx00QnijKeCJkE7bW59QUcCUUtTqn5VhZBEtS2/zi56I9rDYpCNrO5gd7pE9tFvn6MaNnDD2O18B/q/htrLQu55Bw3GEcbSxDu3hiZ6MHGr2+bb1Ah86X0oi051FdjxBSSoAgRdZ9xIuLA/0FRvJ5xmP2IcB+usNIXrYfIvpQZwuI5luxjqkGvrcD56IhEdjaD40jbC0lw0FQyCKf2kOpvaeq4bj38KjIMuwxTxZxd+buAHiLzXtTvS6+vEln3Pu8rQhp+3C2W38PDl375BY+RcbrjVfP7WFPKZ6k8H4dHb4KfLagswjGur6LOP/lO4983N4h8+TfIiFqcOcDzPutvts1UsOPXATsp7jzC3ZuIwxLC4qmFdxdh8SwM+ScxjLknzCU8e/bDUBeeZuELjTVv7xFhm8VPEqENudK8XebUbuMRnAr8wqz39VqCdyAp6SaTiMTd27gn3dGJzEPSJrUGrz3m4GjVuBWcEilIwzjowckZQz3megxExhEWXi15Stl/Tbk+4WrLFxyfqbRtZ+HuTSfB3a/jwPiFql9BURjRQVNJgwdHkQmJGUKUF95L3TZmCMz8jEMYn86q1rl60IERPwLjU5Ktpt0rC3Eqhk43Vw+srRA5uhaHcu93OEJDryQrFD2YYxwwBWW+pI08J6Ya/1ps+5J6vYK2VpzKW/7Ns2KKlK3oFJzNYN83PGVeLtCDTxDOUcoWBtZox/bmphBRV5dAWJ3+QMf700N5vsiCf+DY97pEv/b+9f+pTH9Xd5E7X8MZKs/Hics4xOeqK4RHO355sE9bO4/w8KXdRQ89+pCCPleYfKfaz1pwirYnU0y9V13slr1EXf3ULiLu3UtINS9+ksV8wBQY7abQW1RFRPxC9F+3CTpTxA4sR+9di8i+1Oz1po5pJ4X1HstieDaj47eOH6Hqwbe3m3Ma0veb7ydlK2l/W7XFrUExXqaSslq4uEOw8/K3nvJWVOxsyQyZwi8M5yLvhEhYIoZEgdIypa2Hn96DKtv79/Lc9J0oct97yBTrGdS4YVxnJfK2hOIs89f0HKq6CiLYNW/i0A2dIXLnq51Tlhs4lb/LPgbRTgSy3OIncWqm3N01wqoIvJPFT7GfiN6k+U2x4FH1fB0cGO0a0ANujDLK9mwGk+NMOz/s+HXCHqGfZ/TojdFwdqVtJzSWntkpd6t9p+cKvcbQglRbToRdX00bl9E2lxBhVxTQU31qN0zknGSMV10lC7KlWePB0fydMixGhFrn1Hs7p+ylRWuz+cQ2EY7z+EaR8DgRcSAtmXOc81OGVShQZrIH9oTcdWI76WrTCVtatDRByjtzEJJcYA/DXGwTh+HkTnronZxpP0wy1NiL0jE2nZ2vrkXGYRwoS7X6n45hF7wA035uLZobifajBhhP5LMVRenMCXD1INtz5gCchqgBOHxOzvAbVr9Oet4nGKdv6j1s02EbmBPX0ifYPEo/uZMRq1VnjV/38DVXYkveTFRekk1Z4Lp/0EpprS3REuKHc89P7+X5T97M53LOY7ZF+nqor4IVX3WWz8ZNz5h/Nr55RtO66kD0ri3HRA+mc0VRlju9hxJQV7Jgdvxy4NDe3h0etR0XG+qrqMnVlPLzyFnmdbuWJqIQvdS5CJGWtYixqpj0ank+KdXRc7qnWrbtS0oTPfpSDx98OYvX6jchvJn2SCstXuG9RNw8WHiVViR3b/gBEb0wEDP/rB/hJW9Gja6+SmTCraTfT+8VWf4SdWyFlR43AgciL0UzvlXTWjTmev5eQXMDZDVbDerGjzEot+tkVLT44QXqvJYcLRGO8/3fcL87chBM0VBDu58eiVPbdeDpj5M0cJr11Lml93jnTsPUst6Q20qyIUZWFPDMjbyGYyhKJzr1j2DoiZehrXDDh/AonF35+86epx7qKkXeM5Aq3b2Zm96ZSF+L+iqVf+IfIXLrf4z5LCI4kUmb1J9nPGSZ01KSLfLdv9XPc8wQ6updbR+14+KGnRT3K4OHL3XERY+zgB5Yzmva9hxnV+vRVFOD5d+JkDrtjOSlNWQewZgnjDLvk3/gcxwPpZdZgdLiNe8F49cHTCWle2gV5xgSix52fRXHXJwF0zwnmWvTeyx938rifWwd/zfW6bOps46KfPsvY3GcA8shfcUNo2Ph0CocJr8w0qwdGfa6CtVYWUNrc8fbKPvpSsp965eWOzI8/CApbptPy1lXjeiZg/xfX833ys/+EfpGbc+3sNuXPG38evRgWr98u1DmaapjTkFDDXMI3DxxlhQ01KiCOp2F1pj7hYnM/be5Md+92NiYj7jGOkE1OBqS6zf/JAuVdVRk/iPI7mq7Wez4dcCecv8VwtOXVOLJnRiX7GMQp7TG5fBqVSzGFKNn/zwknKZ66oyOjiI3PqVfgig4jRHWBMU/ITCSBU+Bl79I3/FE5HWV6rSsjMOUCXKScFZ6DhC5+s8iw65SOQE1ZbS0hSaI1BhmqZvK5fqHYxAKTuMw9OyPM1BZJJJ1hChWIdY11pImdfNi0pe7J+x7LXYtorWrokCVdU3fT4ve2QwiWe9A3vPAcjIE8SMsS6Nu+IDItjwfw5S8mfssDpR6FDQaWuHOZvCMHFoJl0IvlxccTW03si8ZnSNrOzeRTYt175k/c8OuwjjpycgmbTS0KGrQexzp8K48nxUFGEOlzHRsPca1pgwnZcx1PCfpB+g57wyxsM4wSrUsj2sz99/mAkaH1+A4Kdmm3mOtT2lT4OqOOmFNGddDubctjaTtc1P43tK0Qjt+ObCn3H/FKMmCrau0cF39F3Xwxdq3zYePiGCg5r348xzfuvcQNZn+R2OWsRYntlOzNU27i+AAzHpEf0KbgtIczrXwNAZ/wjxVr12LHV8zVjM0VsTNm7qnHrbNxwj/9gNjo9JYh3Jcvaa33NlFRBzV6Vo+QTgFoXGw55VRuQr6TjQmPzm7If353bOk8ZXX7n7dvCSya7F5O6EWQ6fT0559HOOjoGd/Sh0+QZRRFIPbsz+GQluyqK1gKmDBKeaUm3ZSWEJTPSz5bV+a/85UMU7Bqd36xM4BU2ybbqaH754lI2QKbZubkhUIiaGdzRZUlxCZVxVDapv7nHlknrRR5Md31Z+7KlKzcyHHqIeoAbRl2vHLhT1C/xXD05+04sldGBVlpnZkX8hmWi1yBTVl1Df/197+yZ0Y0d5jjWvQpgiJETmyxmAUTQx6Wwua66d305anJ+nq6UdN3tOPlHvSJsN1cBfxCRQ5sExkxX9RkRPBaI25zvJYy82fIdepVR4TwXgHR2MwWhoN0ruPYfiGXkkPf2gsJLOaUrIOppK2Jdkm59eKIVfGwyqv+YZCttQiaZOGIa6TzmiqZzZ4zGCivdFz6FUfOJXXwhOJUhtrec+73ySCdfVQDa6rO8b9bAYtbrkpEPUsDWmpLKI3ftXrEOz6jOf5UsoH7t7m/fKp20V+fI+sgR5GXN01wp8IA21+4kFoMH6umr7v2Z/PRfZxDHRHI0tLczHmNaVkWG5+1jyyT92BUqGC3uP0We+2IHoQ192UPCiiChbpcUbs+GXAXkP/lSOop8jN/4JVW1tOhJlxmPSzfzgLe3UpDO/Mo0Tt3/9bX9L0XKHqLNGKb2jHYyFzUzB87r4Q5BR4B2JYU3YwzOSLv2CEL/utPqFp6HS+zhzk/Ne+Zfx7rQ1M368/gKaqmIjfklxo3DCRP3zGoqo1Op7+fGkVyWrKaEdqrOXnsHh4BNq2LjcvhpVoW8hE9FsE+4zDcWttNpyIIpovEKiue9w2XfD4EfAASnPQvjftPnBxF7nuCTUjkJMEqc0nEAMdHAMxMPOI6qAMnCYyZg4137pK9r1vKdvs/Y4MS8FpnJKidP4mvBfOxu7FOFki1Ls7M+XPFF7++up8pgZ45p9RCUzejBNkSaSmJJs0e0MNZLXZfzcXgUndYTzXPH5E17XgFeiJJilI30+ZZZgFDQY7Lm7YI3Q7YGsPgwzU1qJ69/NeUEVKgmOIRlzckDU9tcvARrYyM7qr+PZZjuGGp6yz6UVgNVcUiPx/e+cdX0WZ/f9PKiGN9EoIhCQUgQgaQ29SxACCiCsCIossuygqv/3adlcQ111cRVR0kd1FKSoBC4KABaRLbwmQECkhJCEFEhLSK8/vj5PJ3Jk7t4WbhFzO+/W6LzIzz9R7mfM85znnc2BHo9O4STSCHjID6DKQ5vuLr1MRldIbwOlfgORdZPB159clvEMoviBmFM0JS4FgugPawhylUI1E6gHqEDw4y3iUsTlBbs5tabR15hcaGY9/iVymwVEU99ChJ9WcD4okw55zgb6bBx6la9e6r26DSCSlJJ+U0NrWp5yN+iN13szB1ZOMrXcwjbyTtlOnQkrNu3IaOLeXrq//4/SMxC3gyhma4slKphGuf0eqlf7Qc9QxdKk3mk4uFM+RmUwdn4wz5Am4fJI6nJ1j6XoHPklpW/c/Qt+XvT3FKHgFmS7baog2bnIlM4mI+7T16Tv2Ir2B9ER6jsXXaN/qcpojL75OgWrlN+maH/2rfonTk9toWkkiKNI6LvGTW6kTYYjSQvPknZnWB4/QGQDkUvQKUgYZnT9EBkKX2An0Avt5OVWJKy2kClvW4uB6ms8eMMV0alBFMb3oAzrRy7/XSH33vKMzGb5RfyI517M7SWlry1IKcuv7mPYL282bSpBmpWgH3CX9TCPOkGjyEOz6TJYWLSmgyma3i6TfrRvl3KmP/pzyfWNp5GVvr11dTEJS68tOpbKvjVEhdHYlI51xVt7/5Db6vvasotRAAMAG8lQMmmZ5Od3ci3Iuvy6PvKLt4g6KIiP620Gah4/u2zg51K4D6Zkf3wxUlFLHSCqXq8YzgAIjv1mkXy0xoBMZ9MpSmkp55GX9/Y9tospx0u/KK9h6sSkdesoxFVqoAwkZ24FH6AwACma6eo5ehFIkdsYZcmeq9coDImh0lPor7XPtMhAZSyOQ0hvkFq2ptLxOc0EmVcIKjAAeNlIiU+LCYTKijs7kmo6fbzjy2N6BRlt9J9PfeZdon/REGnGWFlC6k26dct/2pENfdBV6Fr20kFzAp3eQcddVi0s9QEbYXB13Q2Sl0P31+51+RL2a5D0UFNh9qPF2N67SfHXEfY2LRAfoO79wmEbj5TfpOs/u0g8ou5qqHL2boiCTArr2rNFOw7t/vGElQgcnOs/5QwCEvia+uQR0InW42Ef0i6So8QqURZh0KSuijkHHe4GJf9Hf79hmmtqSflLtAoBnluu3ayzeIcCZXdp13gHyRJiqIse0TniEzuCbRfRydnSmFCEHR5LNrCyl3OuKYnKN6qZDRdxP+tnfLabR4Rev0AjnyEY5artTb3IVmztakuQ1R8wxr700B3vzGo2Y1Drihuj7GH1S9gD7v6ROSNJ2utfIOBqV+YWTe7i2GoCdXGPcO4Re9p36yIVGTu9QHr+mko5nLJjPHKT5XHPri5uDFF1dUtC4/aUUP4Bc6BIl+dqejKpy/YhuNam/UrqbpIzm5q1UGpSu21QHpPfDlL53ZCNF2DdHrXBj1RLH/Z/+ugMJwKFv5OfkF06StNbEO4Tm6ze9rV+lDaDfPmObsEG/y9m6VC71Of4lWX/8sYVk6CtLaTR24yopZNk7UHSyvQMVC5n6NilVFWQCv66rf1HVv60unwL2fUGyr6bY/yWNdu4fb74Kl24QnKefuXcs030ofa6cprKaBRmkBnfhCI346uqNuRD0Yox7lEZvEp1606ckn+5VlyPfkis6oCPg3wkI7FT/rwXqaUW51pf/lSRGdUuumkvxdcplN4Szi1LPPaSL4bn5q6nUofrtgFynPTiaRvTdBtNof89qWbI3tJvh/HpdhsygdLadK61bC8EQxuSM1RXSfvoYOLtbNuZNmQIaHgM8uZg8Abqek+GzOCDOluE89LuYvWtoRAOQsVbnaxdkUmCPFEXc1pMMm/TSDowAHnmVXJ3LZ2oraLl6AX/6VH+9LplnSe3LvyPw1HvmX/9PH5GrGTA8V2kJxdeozOaVRGgWhAnoRF4JtZEtyQdWz5dHlfcMJU38q6mked6gyV1PYGe618AIOmZAR30vxs6VlI4HULvJbxgWS7lwBNixgv5+8BlZS0DNldOUgldVTsax72TyNuhSW03G/uY1+d8bWcD1DFle1BAj5gDeQcDxLRS8FztBafCKr1NkeMpeuYKYizt5dgxJxWal0Eizqgx4do15EsLrXqNc+ImvkSepKdmxQt9DA5CX4Y86xYM2vqXs9IX3ok5zc1BbBeRdpuwHa8R2MHcuPEK/S9n/pWzMR83VFl/xDaO82U1v0whdnQ6Tl0ZiHE9/QMZcz+UqKGreGJWlwA8f0t8PG9Eh18LRGdp+3kbiGUCR9atfpNG6+rjXLgOrXgDuiwd6jJDnyKvKyZh3GUDuesk13DmW/q2tJgNz/QpFeN+4Clw+oQz88g0j13pwFJB9Xq7rDtBz/nWddhDb5VOkLy+xdSl1vLTKtv78b3k0XF1BAWQVxfTdXU8HCq7qG23PAMr17zWCfiPF1+kcEs6u9JjcfeToet356+Lr5OE5f7i+sA3kZ9N9iOnUx/bdqX778e/JNX/vQ4bblt4gpbWc3wDYUW73s2uMH/92yEqhzpQWuvPvX7xE36FE7CPA4Kea7rrUOLZRpkQytgsb9LuQX78Ejm6kvx96znjurncIFQb5cIr29oJMMlCeATpiFjpG1pQAzY7/0Iu4/xM0n2gJHv7yeW5kWbavMUK61Lt6NToLJfkUtLV7DeAVQCPG/Hq3cGG29ija0Zle8Oogq+pyEh4pyKJnWJAFXDqhnJuWSPyJPgDNDUtTDAVX9dv+8IFyvrm8mEbatRqiKecPycfyDwfuGUIV6XzrP2rPQXA0GfGDGygbYdo7wOGvadR96gfqSNTVkvHNOCPnjUv7dh9MojuWFOuJiiODfiXJuEH/9u/1cRX131llKbDjE2Dkn8w/l7noelBCu1Jn7uIx6sBmpZAATod7gP3r5I6wnT1VfuvIFdGYJoIN+l2GJGEKkHvWHCEOLbENXezsKOdYCmoDZCnWnAv0wu+rk05VVkQu1MxkymcPjDCebmWI8J5AfXwWblylqQBrzDkPn0Vu8hsaxrLngySwU1JQ75au78QIkLrbj8uA+BeVgWC5F+klHxxFc8ESzq5k5IJVqm55aSRIojsfHRWn0eER9Cx1pVoB6lS0v0f/2lP2KufO23rSHK4lmuQAxQ1UlZEgytdvUCcH0E/fAmhU3zmWpiAaG9wnzcPf1FA/k9AVqtHl9C9A3GONK9SiRWEOeUSkc+lKzUpz04e+og7P9hXyfo5tgOnvUGeJYZoKNug2zNHvKA2oplLWCD9/iLYNn6UM8DKKkSgLNy8axXuHkGFO2k4jTdd25DYuvwkcWE+jl6FPU5RvVoryGCP+0Ji7o/zjth7kRr5VR/d2O0phEo7O9bKr9SN057Z0b10HAr10RFvW/llOV7OrV1+7kkTxBG1cKb3P3l4OOgTIzWysxClA5xr3Z8o0aONGwXixE7Tb9hpJevySTK+7L+Vra0WEdxkAbF9O8/oA6dFbasxrq8mF/vNyejzF+fozHu0CKS2q6wDrlPGUJHvLigy30XVpS0gOll+/NC8N0hQ558kLIE1bGAowUz9Tdz9gxnu3V0KYYcyBDboNUpAJbPqXMj+2KFcORBoxR1tNzBCeAbJ4ixrduUC/cP153q8W0Eg87xKNOtW09STD3Fii+spBSad3WMegJ9Wn6gVE0D2P/TONSrXO3SDSUW89pIpplWXKeXCJlL3UYYjuR50gQyNHKXhp8DRlJ0Kr3e8/Ar54mYzt0x8YbuvbHpjyT9IWv3qOOht7VgHX0kn57oEJyqCp2mq6/7xL5GXIS5OjzgHDoQtdB1guJmMMKfXK0Ul/W/4V4NcESp1UYwcaGZ/bTx2ixirIASQEs+9z+tvTnzQPQrrot/v+XX21uXb+bMyZ5oENuo1RU0kjNrUbVnkI0OEAACAASURBVMLNyzJjLjHxLyQ+k3tRPk7cJOO1mgGSskzaTqpsWlHwFcU08lG7nc0lbhJwdg8JkWT/RkFKUXGNOxZAruTDX9Pf1RUUA6BlzAEKjju7sz4X2Q7w8KNsAd/25K4/sUU7Avr0Dnm9kwuNpqU5a88AOp6k2b7jP+R9MOZNuXiU9hG3yBsQbkRU5ci3ctT95y/JxjLzLM37xoymOfCr5+SRvISbF1VeK7th3P1tjU6VLlLHVHe0n5VC8+qSIQ+KIhW5Q1/JojRBkUDvh4AfPyaJ4Cn/tPzc1y5TcJ0U13DvQ5Qap05Xqywlj400/QCQl0ISX2L9dKY5YINuY5z5xbAxB2R3oaW4+9B8a+5FSlNT65gbI2YURTin7LXuNQE0WoqbQEZYgF7cnXobzw82RG01FakpvUHz3TkXqKSsIZxdyZCUF1N0e++H5CAyn1Bg5B9pRHs1Vblft0Fk8PPSqAOWd0kZPKZm50ogeS/g5Eyjencfuj93X6CqlLZLfLOIPDBt2gIlN5SBcIXZNFrVvV9dKkrk0ptu3hTE5x1Cz6Lz/XJcQFkhGS8ptkK3dG2fePMFfsxFcqf7hJLU74H18vPyDyehlOj+tHzPEFn2VApCPPcrzbGnHbcsje3495TaCdA0wpjnKQDuwhF6lqHdaDk7FdiwQFZmc3Sm4LewnvTcEv5K8QXeIcZL+TLM7cIG3ca4csb4dnMKgxjDXNEXNcaCgSzpHGjxwKNA2kkg7yJ1Zjb/i0bKllBVTvOjeZfIYOZcoGhsQzndEumJ9FJX53NLjP0zidaknaBnP/BJZfnK8iIypBUl1JE4f0jfZQtQRDlA0xemMCb+YooBU4A+D5suLjP1X2T8z/xCke3j/kyxA8X5hvdrLJdO0L9Xz1EQJUAenb6T9A20u69+rvWQp+h7+uV/wB/MMOjlRcAPyygeAiBdgRF/AGprgC9fkb1UAODsBlSXycsu7jQFInV+QrpSx27HCvpdPrn49lz/DGMMNug2hpZbWxd1YY/mIvIBCk7S4vM/0+insdfm6EwlYBP+SvPB6YkkLjJ5oXlR75dP0kisIIvc5iX5FJkdbyKQ6uo5Sj3rYETz291HWwJUQiqdKhEeo23Qn/6AOj65F+Sa3RXFlJ+uLsTh4UeKa+rO15mdwLl98rI6Ky+sh/myoJ7+VPAm7xKN2Nt60vd38QhlAHhYQcCkrAg4sZnq2QN0ng69yJCb0lnXxS+cXOWJP9E8+ODphtse+RY4/C15Nhyd6R67DaZtB9YrjTmgNObBUSQApP7N9RpZHxyaQKqK05dYV86XYSTYoNsY/h3162NLuHlTellLUKwx5xrYmV6QFSUU0R35AEVoNwYnF1Jx++ljMgA554GPplOAlm5AVGUpGeyCLDLIl47JuuZt3Ghbp97GXe0S0nO2xLiYoq0HMOFVEm+prSajMvKPshdDHUDo5ELPTpfB05VeAAm/cJoLvl4/HywZc0dnKmV6vwEvgzFCu9H8cGUp6adfPkmu6mEzLT+WxJXTpKt//pDsznfzAia81ngP0YApVEDm2CYSz2l/D8UaSHrvuReBbR/I8/WBEfQb8NLRUTA2LRLdz3jHre9jdN6k7eQJevKfjasIxzDGYOlXG6O2Glj1vH7RCBd3ClDzt1C85XZIOyG/BE9uo5f+mOeVgXTZvwHf/YOiwgEyqqYiu03x26/ADx8pVep053lpBRosmoOTHEg1eLrhFDE1X7xEo+N5XzT+Wg2x/m/kgv/dmzTiNkZ6IonJVFeSa7jHcOPtU/ZSvnzEfeQu37OaUvMef9MyrXmAtNi3LgXGv0zBiAl/pTnlKf8gd7O5lOSTByF5t/zbdfOSU9VmLmt8dTiJ7xbTPLouvUaSYT1ZX/a1rQcZf6164ateMCxgNGCKed4NKeujywDzOo0MYwk8QrcxHJ3p5Xf0Oxp11FbTaK3bIOsX+jBEdQUVyFCX0wy7Rz8qPqQL8OxaYPsn9EKvKqPI7n1fAGOeAzpr1L82RZeB9Nm1Ekj8maYh7NQ5VjrLDo5Al/4UMW+u0agqp2CtpprCKL1BZTVNGXOAAq38wkk0xpQxB+QpgvJi4L5x5GHY8DoZmyn/sEyxT0rdyjxLBv3h58nwbVlKgWHG5otrKqmGeep+Za5+dD96rlJA2tCZt2/Ma6uBjNP663WzEHqNog6dVtnb7FTjWvbmpqWNewlY8yJ1hPw6cOUzxrqwQbdBHJ0p6rql2LFC35gDZOgNMepPZFA3vkUR4FVllEvvHUwFYHwbobA1/Bn65F4Aci/RPGZ+Br3c/cNljWst3XNTpNcX2mjMvuZQVqid56xF8XUa4VaVk0vdlEGWgsbKbtC/AZ3Izf/VQnrmltTm9vCjUW1GfTBmu0CKPfj+XYqEH/UncsVL1FaRrvuFw5RuJ+ETSp2RHsPpe5LK90b3B+4ba/71GEL63rVo60mFfXRV/HTZ9zm56gHDpQMizOzYtfUgo77+rzSn7uJO3pHSApqCCo6yjhgPc3fCBp2xKsXX5XrZavLS6CVtaDTTLoC8Cyl7SDazroZc2qtfoDnP+BcpyMxSgqJuT7xGi8tNaNCrysj4mBM4lZVMrmSps7Tm/1FBHakMriGc2yproof1kAPHTm6j9DNzCe1OwXAVxWQco/pSJbFt75PnJWUfxSXkXaJpGMmwunpRBHnXgdSpqK0GTmyl6PnaKvLojJln/nWYul9DtO+ubczzrwDbPpRz0Nt6kkRxxhllZ2TkHNIPMJfQrrTPjv+QPoOafo+3bIecab2wQWesirpUqBpDoyRdpDrlP35IOcTiFhmu/9bPDw99uuVHMWnH6RoCOln/2KX1I2dzZFl3r9L3fOxdY7rOdhs32k+3g9X/d2TQj2y0zKAHR5JBv3qOytgCgLs3VWhL/Im+u6z6dDt7R+o8xIwAOvahwja5F6nQyW8H5XvpNYqMnjUoL5LFgrRQe0JqKkmg5thmeV2vkaSK2MZVFojJSqFo/8boxPcaRWVmJcleXQ59Bbi4AX2s4Jlg7i7YoDNWRW+uWgevYMtG2GNeoEpZW98DLh2nwLYzO6kG+v2PAIOm3vblNgopMl9KZ2oM5TdJdMbDTy4+IiHlcruYYdC1FNvUaWxauLiTm76sUDbobT0pGCzpZ8sU96R58pPbaC788illERifUJoOKCukQMXMs9qyuAB5PEbOUUaXN5abeZSCplumVk0bN6VMbcpeKisrBeN5BVNcgJaSoSkviCmMCUDt/5J+X7pFfhjGFGzQGavSoSfN4WuNxEc2ogiLozOlK5XeoGjqrHOkyHV0I6VH9X4I6Pc77UCmpkJytzdW9Ss9EdjyHuWwA8qKXYAcfGWOyz2oszKgDKC5WFNIRry0UCns020wGfSLRgx6WSHVBbiRTe5oKV4iM5k+vu0pU6BDT6B9Nzk9Ky+N2t/MA4ry6j0RgoI123cnkZjGxEqoqamUCxNJ+IZRap5fON1bZjJ1KqrKqGNTV0sucEnAB6CAtQEGygZbA2MKibXV5LEwVi6WYdSwQWesiqsXpaZtWSKvc3GnXOoORjTGTeHuQ3nmN7JIxSv3Eo32TmwFTv5A0fODpjWPYIdkwIxpphsiL43ykHVJ3g1E95VVzySXuzmqfsOfoeh0aUTZxhUY/nvT+7nU121XjxJD61PNpBF0aQG5xQsyST3vShK56XXxDaORZEUxVXAzlJcfGGF5Wpwl3Myj30LyLtlYtvWkanX3jZPbxU6gz4ktlLK34fX66nr1hN0DjJqr7zmxNn4dtEu+SmiV72UYY7BBZ6xOdD9gdn0wlHcw5TtbK2XOpz0w7R0SANn2IY2oxC0yism7aQ53yHTruGy1qKmkFCav4MbJ6F7RiP4HgL1rydg7OstV7YwFckn4hAIz3peDtKL6mpdCJblys3+jzlJRLo1apQ5RSQHw3iT9/Tz8KG4grAeNqv07Uifi4Hrg0NdyZ6Q5yTlPxWx0Mys6x1KwXeQD2rr+1eVyUKCuMXdqS6PypjbmAHlmpNQ8LbSqyzGMMVhYhmnV3Mwlw55zXrk+MAIY9nvDqUiN5fJJSqmKGd24Ou5JP1MBGUvwDzdupJ1cqHPh2o4U+YwZVSFIJa+i2PR5O/WmCPbACDJwxoxcVgqNdBv7XBrDjasUuKY7R95tMI3IDdUHqK2uD/z7Vt/TIOHkAsz6+PbrHpjDVwsNxxP87k3K7mAYc+EROtOqaRdEBS/KioDty2l+W9yi0e76v9UHej1EFdmsIbWZVi/32tj58069yWDUVCrXj5gD+IRQ1POvCWRww+pf5pJ2uy61NeQOLzEidqKFpz+dp9ydzuXpT9HUAR1pJBscDaycS+7rMc+bH5QlSbJmpxpvZw3OHyKjLBlCByegxzAq0mMs4vzMThrJSzEKeuqB9dRUAqd+pEI6Tc2EV2mUri6zG/coG3PGctigMzaBmxfVbAeA3auBM9vJEFYUA4e/Ao58TelJg58yX7BFC6lwSmPmzwHKV57wCgX4VZTQqPrBZ+Tyn2E9gAMbaDT8+JvmHbP8JnVoqivoeG7tTKf1XTwCbH6HRv5q4ZabedT5sSTCWuoM5Jwng2htVcLym6SDfnq77IHwDKDSvL1GGvdg/HaACqvopogFRVKEu1RRTY3a49NUOLel+JIBU6gzWlNJU1SNSYVjGDbojM0x7Gn6nNkBHPq2XhtcUF3yhL9QQFhUHAXRtW1n/nELcyjCOyjq9gxWh17A3NWGt5cXAb4WjM5c29HHEqT0Qd35Y0Ae8Qd0tOx4gGzQs3+jqnHWICuFRuO/HZDXdepD0d8R9xnfN+0EVaO7ni6v8+tA0e6RcVSK1ZBB15p3b0pc25HIDsPcDmzQGZul50j6FOUAuz4F0pPIHV9ZBpzZBZzeVf+CfxyI6mf6eNLLv7Gjc3OQ3MGuTRytLx2//KZyvaR33hjBnOB6t3tm8u0Z9JzzlAd/4Yhc/aytJ4kK3TvatCrb1XMUZKg7yvYOoUqDXQfJ66L7A0HfK1PVJNjdzbRG2KAzNo9XMPDo3+jvA+tpvrK8iDS5CzKA75cA9k7kho0ZqV9A5uo5kjCV0oi0xFysheROdm/igCzJpVtXQ656KaI+eQ/9q1V+1RQB9SlpV05bPv+clUwa71I9dYn23SnQzpzrSd1PaWsKQx5MUqqGRIDGzifp3IJMeV2HXkBsI0rJMkxLwwaduasY8AR9CrMpQCrtJKUw3aoBss/R56ePSVe+53Cg2xBg09vKiOjU/YBXYNOIjliSg367uHpRx6asiAx67kUKNGsX2LjsAJ9QGknnXqDCI1F9jY/00xMp3e78QaXrv10gpT72GmE6/bCylFzyiT/RdIiEVxDQd7JpN3a7QODpD2g6JiuF5HZ1leMYpjXBBp25K/EOAeLn09/X04GDXwFZZ8kdL25RXvb+dcC+L7UjoZN3axv05D00d+vkDNw7Ro7+NhdJ9rVZDLpnvUEvpJHsrk9p/QMTG3e85D1y9P7hb0j0Z8o/Ke0OIEW2S8cp+CvjDBVgkQiMoHntyFjzyrfmXgRO/UBSrbr4hdPoWu1lMUVoV1lUh2FaK2zQmbse/45UPhMgNbTj35PBqSzRNuZCkFtYqi4mselt4NIxeTn1APDYAss0v4uv07/NoXgnXXtZIRngnPM0ym7MCLWylMrm1tXI62oqgc1v00j98imlWxugWITIB6jmvYev6XMU5ZABT/1VX68+vBfp+zc2nZBhbAE26AyjQ3AUMO7P9HdpIcmq3rgKwE6ugy0Z+eW/p3SpkGgywLrGHCDjtmMFlYQ1F0klzpDoiTWRIuOTd9fn7wtSJ9u+nGrTtws0/1hXkoC6ev1+ATQ8rJvXqIMEUCpdp97kTpfy8U1RegM4t5+mOaRno0v3IeRRMCQkwzB3E6wUxzBGyEoGNixQrRQA7Ov/NYO5q0zndFeVAd+8Sa5kiaYuDrJzJZUt1cLFHXhqqeGR8808Eu+5lka6+jnn9cu4AtRJiOoL3D/efJd2US7l+184op0P7h0C9HyQpFMtTddjGFuGR+gMY4T291BglRT93dYT6DeZamJnpZALOOM0jSTrarWPsXwm5Wg7OlOwXUAnigjXNXDbP1Eac4Dc4BH3aZfuvF3KiqjyGQDqmKimFipLgV0rqaiJuEX3WlNFI3GtkbJ0GKmTI3kx7OxIuMaUMc+9SAFyF4+QNK0axzZAl/5AzxE8180whmCDzjAmkOqS3zOMdMol0ZH23eX58cQfacRrCGmkmamxLbQrRVlrcepH6xj0ihIa9XoHUzDZhSPyNicXbXnZi0floi9aBEZQxyQ4mqYqriRR9TJdpCIuWmScBi4e009V06V9d3ruXfpbX32OYWwNdrkzjAk++T0JsDz1HgXQGeLrRbIwC0ACKI+8DDg4UkBYQRaVIi2+Ri5rtUpbc+MdTMFlDk7KYDY1bT3IU+HXQf74hGq3vXyKatVfvwJ0HQAMfVrW0C8poDiD9EQKOlTr2Ut4+JFXpMdwy+bxGeZuhw06wxjgl/+QfrjEI69QVLYxjm2mNLiATkC3QVRIpLKU5n21xFFuXKXOwvfvaldA8/CjdC9r4N+RZG89A0g6tbaaKqTZOwC36vTbB0UCU//V+PPVVlNe++VTQPop/ch0XcLuoQj1jr0bp1LHMAwbdIbRZP+XNNLUxdGZRuneIab3L8ohBTJJXQ4gqVEpgl7NbweoYIsufuHAlLfkQitVZXK6nDm4eJAAjiFXdUEmsPpF+VwNc+qgWIHf/R3wbW/euQAy2NfSaI4995LSW6HGK5gi3cN7AR16sjudYawBz6EzjIrCHH1jDtCI8/QOYMgM08f4ebnSmAOkiJbYnQRn1HQZQMZ67xoyppEPAMNmKg1dGzf6WAvdCPGx8ylq/fwhcnP3nWQ8Mj//Sn2U+2X5X0MudIA6JeE9gfB7yZBzNTGGsT5s0BlGxcUjhrepjbShNlkp2ttS9snz0Wok4x0zqmnT1SR0DXZZEeV0qxXWCjLl+f+CLPo7P8O844d0BTrGUKGW2ylZyzCMebBBZxgVVeWGt7UxUWccMD7nnXMeWDOftNP9w8n17OlP6V0ZZ+TzZ56tT3MLtH6udWUp5ZnrlhVN2k5FaOpqqENSkGVe50WijVt91HsnitoPj2E3OsM0N2zQGUaFsVrg0f1N7+/hZ7pNdQWlqmmlq536gT5qpDz2xhr4ylJy62up0J0/CGhouGji14E6I37hZMD9Osj11RmGaTnYoDOMiuj+gHcCVWTT5Z5hpqPcAUrpCukCZP+mv23YTODWLeBGfQqblhKaIWqrZdd3U+LuQ50GN2+StHX3IU+CXwcahTMMc2fCUe4Mo0FJPrDlPdng9n4YGD7Lgv0LgC1L5P0dnMiYx4w2vM8ns6j62b0P0fx2dQW5vWs1RF8khJBz2v07kha7QezIKLu4y6suHiXXe2AEMP5lDlZjmNYMj9AZRgMPP+DJxbexvy/tf/EopZtFxpmef5e00AdMURrdpqSylAy6nT0bc4Zp7bBBZ5gmxBwXPUDudGkk3lzGHJDn41tatY5hmNvHvqUvgGEYUosDAHcz6oJbEyl1zVyxGoZh7lzYoDPMHUB5Ef3r7t2853WtN+jVFeQlYBim9cIGnWHuAEoL6d/mTv9SiMsUNu+5GYaxLmzQGeYOQDKmrl7Ne17dnPZSNugM06phg84wdwBl9S53t2Y26G095L9LDdQkZximdcAGnWHuAErqjam1ZV5NwS53hrEd2KAzzB2ANDp2a+agOEBOk2OXO8O0btigM8wdgDRCb+4od0B2u/MInWFaN2zQGeYOQDKmDsakW5sIqca6NI/PMEzrhA06w7QgpTeADa/LFdB+/jdQlNt859/5PyoSAwBXkoAzO5vv3AzDWBcuzsIwLci61/QrrrVxA2YsNa8M6+2wYwVweof++jHPA92HNO25GYaxPjxCZ5gW4tQP2uVTq8qAw9827bmLr2sbcwDYtbJpz80wTNPABp1hWogLRwxvu5LUtOfOOGN4W1U5kJXctOdnGMb6sEFnmBaiMMfwtpt5TXtuU8VYivOb9vwMw1gfNugM00LYOxje5tHEVdd0BWW0cG7btOdnGMb6sEFnmBYitIvhbWE9mvbcwVHGt7fv3rTnZxjG+rBBZ5gWInai9npHZ+CBR5v23L5hQMd7tbf1GC6rxzEM03pgg84wLYR/ODD2/+mLycS/CPi2b/rzx88HAjop1wV0AobPavpzMwxjfTgPnWFamJt5wKXjgHcI4BsKeAY07/lPbgNqKoGQLk3v6mcYpulgg84wDMMwNgC73BmGYRjGBmCDzjAMwzA2ABt0hmEYhrEB2KAzDMMwjA3ABp1hGKYZOHHiBL7//nvcuHGjpS+FsVEcW/oCmKajtrYW6enpuHHjBhwcHODn54cOHTrAzs6upS+NAVBZWYnLly+juLgYbdq0QWBgIIKDg1v6spgm4Nlnn8Xy5csBAF5eXtizZw9iYmJa+KoYW4PT1myMmpoabNiwAWvWrMH+/ftRVVWl2O7p6YmRI0di9uzZGD16dAtdpWGqqqoQGBioWJeSkoKQkJAWuiLrUlJSgk8//RQJCQk4fvw4bt26pdju7++P+Ph4zJs3D3369Gmhq2SsyfXr1xEQoBQXePrpp7Fq1aoWuiLGVmGDbkMkJSVh2rRpOHv2rFntR44cibVr1yIoKKiJr8x8Kisr0batsjJIZmYm2rdvBum0JuaHH37ArFmzkJuba1b7uXPn4sMPP4SjIzvS7kQqKiqQmpqKc+fOwdvbG2PGjNFsl5+fD39/f8W6mTNn4rPPPmuOy2TuIngO3UY4cuQIBg0aZLYxB4AdO3agX79+yM7ObsIr0+Zu60euXbsW48aNM9uYA8Dy5csxY8aMJrwqprGsX78ebm5u6NOnD6ZOnYrNmzcbbOvn54cXXnihYdnHxwfz589vjstk7jK4628DFBYWYuLEiSgpKVGs79mzJyZMmIBOnTqhpqYGqamp+Prrr5GVldXQJj09HZMnT8avv/7abHPreXl5iIyMRGxsLIYMGYJXXnkFLi4uzXLuluDEiROYPXu2nnt9+PDhGDNmDEJCQlBYWIjTp08jISFB8T2uW7cOEyZMwOTJk5v7shkjVFZWWtQp/eCDD/DMM88gOzsbcXFxaNeuXRNeHXPXIphWz7x58wSAho+dnZ147733xK1bt/TaVlRUiNmzZyvaAxCrV69ususrKSkRZWVlDcsJCQkN5/X19VVcZ0VFhd61ZWZmNuqcJSUlVrn+2+WBBx5Q3I+bm5vYunWrZttr166J2NhYRfvZs2ebdZ6SkhJRUVFhzUu3mMLCQlFXV3dbxygqKhK1tbVWuiLzqKurEwUFBWY/v1WrVim+ozlz5jTZtVn7eVRVVYnCwkLN9wPTumGD3sopLCwUrq6uipfL/PnzTe43bNgwxT49e/bUa3PmzBlx3333NXzeeOMNIYQQmzdvFkOGDBHBwcEiMjJSLFmyRG/fTZs2ifj4eOHu7t5wDi8vLzF16lTRvXv3hnXvvPOOYj9zDXr//v0brmvSpElCCCHy8vLE3LlzhZ+fX8O+/v7+Yvbs2SI7O1ux/969exX39thjjxl9XsePH1e0nzp1qvEHXM+ePXv07mf9+vVG98nJyRHu7u4iICBArFmzxmC7srIysXLlSjF48GDRrl27huP7+fmJ+Ph48c033xg1BPPmzVPcU3Z2tsjPzxfz5s0T0dHRIigoSAwePLjh+at/D3/4wx8ans348eOFi4uLACCcnJxETEyMWLFihaipqTH5jLKzs8Vbb70levbsKdq2bSsACAcHB9G+fXsxa9YscfDgQaP76/4Wxo0bJ4QQ4vTp0+Kxxx4THTp0EGFhYeKJJ57Q2+/48ePiueeeExEREcLBwaHh+QUFBYmpU6eKpKQkvX2mT58uYmJiRFhYmOI79fX1FTExMYpPYWGhwWd9/PjxJnse6nPl5+eLmpoasXjxYhEZGSns7OwEAOHq6iri4+PFsWPHjB6PaT2wQW/lrFu3TvFicXJyEvn5+Sb327t3r56huXDhgqLNoUOHFNtnzJihNzJRdyDq6urEtGnT9NqoP05OTmLx4sV612WuQW/Tpk3D9i5duoi0tDQRGhpq8HxhYWEiLy9PcR5dIwhApKamGnxezz//vKLtP//5T5PPWAgh5s6da7LjpMW+ffsUBkFNcnKy6Natm8nnPHToUJGTk6N5jNGjRyvaJicnKzpbkrenqKhICKH/exgyZIjYvHmzcHJyMnj+0aNHG/WUbNy4UXh5eZm8j3nz5omqqirNY+j+FsLDw8Xp06eFp6enYv/evXs3tC8qKhJTpkxpMGyGPs7OznqelLi4OJPXKn2uX79u8Fnv3r27yZ6H+lwZGRli6NChBo/Vpk0bsWvXLoPfEdN6YIPeylEbjGHDhpm1361bt4SPj49i388++0zRRv0Cj4uL09sHgPj8888b9lm8eLFim6Ojo4iLixOxsbGKUZCnp6deB0KIxhl0f39/PTe11kftun7mmWcU2xcuXKj5rOrq6kRQUFBDO3t7e5GRkWHWc+7Ro4dZ57CEjIwM4e3tbbZh6dKli2LKQ0L94h8zZozevp07d25or/49+Pj46BlOrY8hd/SWLVvMvgcAYtq0aZrH0f0teHt7axrdWbNmCSHIq6H+Tox9goKCFG74pjTo1noe6nPFx8ebPFZ0dDS74G0ANuitnAcffFDxH/PFF180e98hQ4Yo9n311VcV29UvcF0j3bdvX/Hggw+KwMBAce7cOSGEELW1tSIwMLChnbOzszh69GjD8fbt2yccHR0bto8cOVLvmhpj0KVP165dxfLly8VPP/0k/ve//4no6GjFdk9PT8VLa//+/XovNS127NihaPfggw+a9Xzr6ur0rvO7774za19jDB8+XHFMd3d38eqrr4rNmzeLytuiRwAADodJREFUb7/9VsyZM0fxnAGIuXPn6h1H/eKXPqGhoWLkyJGiT58+iqkFQ7+HgQMHilWrVolt27aJJUuW6HlK7O3txdmzZxXnzs/PF/7+/op2HTt2FEuXLhXbtm0Ta9eu1exgfPXVV3r3ofVbACC6d+8uRo4cKaKiosSKFSsa2k+aNKmhTVRUlHj//ffFqVOnRHp6uti+fbve7+bHH39s2HfHjh0iISFB/PGPf1S0GTFihEhISFB8dEfQpgy6NZ+H1vfq7e0tFi1aJH788Uexbt06zTbGpgGY1gEb9FZOTEyM4j+llhvbEJMnT1bs+8wzzyi2a73AIyIixPnz5zWPd+XKFUXbiRMn6rUZO3as4kVfXFys2N5Yg96jRw891+7ly5f13MFpaWmKNp07dzb5Uvv973+vaLN27VrtB6qisLBQ715MzX+a4uzZs3qdq8OHD+u10w08BCBcXFzEzZs3FW20XuoLFy40GNSm9XuYOHGiXvucnByFRwOAWLRokaLNRx99pGe8tKaK5syZo2jXv39/vTbq34KLi4vBoEMhhMjNzRW+vr7i+eefF5WVlXrbly1bpjjesmXL9NpYGhRnyqBb83moz+Xq6ipSUlIUbWpra0XXrl0V7dQeOqb1wXnorZyKigrFsqurq9n7urm5GT2WFsuXL0dUVJTmttLSUsWyn5+fXhvddbdu3UJBQYE5l2qS119/He7u7op1HTt2RGRkpGKdWkd7+vTpiuWEhATFclVVFTZu3Niw7ObmhkcffdSsa9J6npZ8P1ps2LBBsTx58mTExcXptXviiScQGxvbsFxZWYnvvvvO6LH79u2LN954A/b25r0W7OzssHTpUr32QUFBennW27dvVyx/9dVXiuXXXnsNvr6+eudYvHgx2rRp07B88OBBpKenG72uF198EfHx8Qa3BwYG4uTJk/jwww8VxwZIaXHXrl2KdeXl5UbPZw2a8nnMmDED3bp1U6xzcHDAsGHDFOtYY771wwa9laPO3zbHKEuoX1SmcsE9PDwwYsQIg9vDwsLg4ODQsHzs2DFFrm5dXR2OHDnSsGxnZ2c1lbqBAwdqrldLbtbU1CiWn3rqKUX+/YYNGxTX/MMPP6CoqKhhedKkSXodIUNoPU9Lvh8tUlJSFMvGvo/hw4crlpOTk40e29yOikRUVBQ6duyouW3o0KGK5YyMDMWyuffh7e2Ne++91+i+asy5jw4dOgCgegeJiYn473//i9mzZyM8PBybNm1StBXNIILUlM+jsf83mNYHG/RWjnoUfP36dbP3VbfVGhHoEhkZqTDYajw8PDB+/PiG5cTERMyePRtHjhzBoUOHMG3aNJw7d65h+5gxY6wmKKN+OZlLp06dMGjQoIblrKws7N+/v2FZPWK3RLnN09MTTk5OinXXrl1r1HVK5OTkKJZDQ0MNtlVvM6UI2KVLF4uuRTKKWqi193V/a9XV1Xqjwea+j+TkZMycORM+Pj7o3bs35syZg5UrV+o93+agqZ9HY/9vMK0PNuitHLX7+/Tp02bvq5aJjY6ONtrew8PD5DE//vhjhe76p59+ir59+6J///5Yv359w/p27drh3XffNftaTXE7eudqI71u3ToAVEhl69atDevDwsL0Rp7GcHBw0HP5JyUlmbVvXl6epgtUPYoy1sFSPxNTIzBzvl9zz63eVldX1/B3bW2t3qi3Oe/j888/R+/evbF69WqFKl9AQACmT5+ORYsWGd3f2jT18+BaAHcPbNBbOf3791cs79u3Dzdv3jS53+HDh/VG6OpjqTFHGjYkJAQnTpxAjx49DLbp1asXdu3ahe7du5s8XnMwefJkRUGYb775BjU1Ndi0aZPCRT59+nSz55cl1O5OtTvXEAsWLEBERAT+/ve/K2IT1OVVjY341dtMVayzVPrXmC69+relW5zE1dUVnp6eiu3NdR+ZmZmYNWtWgxF0dnbG22+/jbS0NOTl5WHt2rXo1auX0eNbm6Z+HszdAxv0Vs7DDz+sCJKpqqrCkiVLTO731ltvKZa7dOmiFzjTGC5evIgnn3wSycnJ8PT0xNNPP40ZM2Zgzpw5WLRoEfbv34/ExMQ7qjSoh4cHJk6c2LBcUFCAHTt2NIzUJZ566imLjz1p0iTF8smTJ7Flyxaj++Tk5GDDhg24efMmFixYgO7duzeMcDt16qRoe+jQIYPHOXjwoGJZve/tkpKSgsLCQs1tR48eVSyrjY6591FVVYWTJ08a3dcSNm3apBjRPvvss3jllVcUxzSngI6606DW6beUlnoejG3BBr2V4+fnh2nTpinWLV682GBpxtraWvzf//0ftm3bplj/4osvWuV6xo4di507d0IIgZdeegmrVq3C6tWrsWLFCixYsAADBw5stiIwlqB2uy9YsAC//PJLw3JcXJzFc8wAMGrUKD1vxYwZMxTz9Lrk5+dj/PjxCi9L3759G1ywEyZMULT//PPPNedQT5w4gZ07dzYs29vbWxz0Zoqamhq8/fbbeuurq6vx0UcfKdaNHDlSsay+jyVLlqC2tlbvWJ988gmKi4sblqOiom5rBK021lpxAIa+G13U2QqXLl1q9DUBLfc8GBujJXPmGOuQm5urqeDWr18/8c4774ivv/5aJCQkiIULF+qJZgAki6ml+a0l9WmM/Px8Rftu3bqJhIQEsWfPHnH06FFx5swZcenSJb3cc10am4duCLV4zqFDhzTb1dXViZCQEL1zS59///vfRu/dGPv27VOo5AEkqfrII4+IFStWiM2bN4uVK1eKF154QXh4eCja2dvbKzTFb926JaKiohRtoqKixMaNG0V2drbIyMgQn376qZ5ISXx8vN51mStHKmFIWOb5558XZ8+eFdeuXRN79+7VlBlV5/dfvHhRODs7K9qMHj1a7N+/X1y7dk2kpqaKhQsX6j23d999V++6zP0tCCHE0qVLFW0HDBigyEX/+uuvhb29vaLNpEmTRFZWluJ3e/z4cb3v8+233xYHDx4Un332mZ7Ak6lnbc3nYe73unDhQkU7SzQsmDsTNug2ws6dOxuKY1jyCQwMFJcuXdI8pqUG3ZRR1P1ERESIv/3tb6K0tFRxjJYy6EII8fLLL2teq7OzsygoKDB676ZQC4eY+1ELsgghxOHDh/WU4Ix9fHx8NJ+htQy6qc+TTz6pebz33nvPouP069dPs9iLJQY9KSlJ77ihoaFi3Lhx4t577xUAKe+pjTqgFBSqra01WjvAwcFBoaFvzrO21vNgg373wi53G2H48OH45ZdfDOYFa3H//ffj4MGDiIiIsMo12NvbY926dfDx8THZNi0tDW+99RYGDRp027nZ1sJQStrYsWPNuidjPPfcc1i3bh28vLzMam9vb4/XX38dCxYs0NsWFxeH9evX6wVSadG+fXts3bpVkXlgLXr06IHRo0cbbRMbG4tly5Zpbps/fz7+8pe/mDUFM3DgQHz77be3HbHdq1cvTJkyRbHu6tWr2LJlCxITEwHINejVXL16teFvBwcHo1kadXV1eiJApmiJ58HYFmzQbYgBAwYgOTkZy5Ytw3333af5YnB0dMTQoUPxxRdf4PDhw1Yz5gBQVFSEgwcPWpT+dOrUKfz3v/+12jXcDt27d8f999+vt74xwXBaTJkyBefPn8eCBQsMqu25ubnh8ccfx9GjR/Hmm28aPNakSZNw8uRJzJkzR7OTEBISgpdffhmJiYno16+fVa5fja+vLzZu3IjnnntOT0/Ax8cHr7zyCvbu3WtQ38DOzg7/+Mc/sHv3bjzyyCN6OfsAEBMTg2XLlmH37t16Ef6N5bPPPsP8+fP15sFDQ0Oxfv16jBs3Dv/5z38QHx/fkNXg5OSkyIQA6Ptcv349wsPD9c7Rs2dP9OzZ06LraqnnwdgOdkI0gwwS0yIUFxcjNTUVRUVFsLe3h5+fH7p06aL3YrIGeXl5iI2NRWZmJgAKBnvrrbfg5+eH0tJSlJaWoqysDFlZWXj//fcV+fLjxo3D999/b/VrutPJy8vDpUuXUFxcjDZt2iAoKAjR0dFGc5C1qKmpQXp6Oq5evQpHR0e0b98eHTp0sDjFzhSHDx9WdA6GDBmCPXv2AADKyspw9uxZlJSUICQkBJGRkXB2drbo+KWlpUhPT0dubi7atWuHsLAwqykJalFeXo6zZ8/i5s2bCAwMRI8ePfSeWU1NDYqKiuDj42PwexFCIDU1FVlZWXBwcEDnzp01jbylNPfzYFo/bNAZq/Daa68pIp4TExMRExOj2Xb//v0YPHhww/LQoUOxe/fuJr9G5vYwZtAZhml52OXOWAV1gYjjx48bbHvs2DHFsiXz/gzDMIw2HFHBWAW16tvcuXORlJSEUaNGISgoCA4ODsjOzsaPP/6ITz75RNFWHaTEMAzDWA673BmrkJ+fj969eyMrK8ui/WbOnGlQBIe5s2CXO8Pc2bDLnbEKfn5+OHDgAMaMGWNWe19fX3zwwQdYuXJlE18ZwzDM3QGP0Bmrk5aWhl27duHcuXPIzc1FeXk5hBDw9PREx44dERsbixEjRjRJtD3TdFy7dg0bN25sWA4JCVGUy2UYpmVhg84wDMMwNgC73BmGYRjGBmCDzjAMwzA2ABt0hmEYhrEB2KAzDMMwjA3ABp1hGIZhbAA26AzDMAxjA7BBZxiGYRgbgA06wzAMw9gAbNAZhmEYxgZgg84wDMMwNgAbdIZhGIaxAdigMwzDMIwNwAadYRiGYWwANugMwzAMYwOwQWcYhmEYG4ANOsMwDMPYAGzQGYZhGMYGYIPOMAzDMDYAG3SGYRiGsQHYoDMMwzCMDcAGnWEYhmFsADboDMMwDGMDsEFnGIZhGBuADTrDMAzD2ABs0BmGYRjGBmCDzjAMwzA2ABt0hmEYhrEB2KAzDMMwjA3ABp1hGIZhbAA26AzDMAxjA7BBZxiGYRgbgA06wzAMw9gAbNAZhmEYxgZgg84wDMMwNsD/Bzcrhyt6NMaqAAAAAElFTkSuQmCC;" vertex="1" parent="1">
          <mxGeometry y="-430" width="130" height="130" as="geometry" />
        </mxCell>
        <mxCell id="B4nwFfJSqXU49VAbo7aI-192" value="&lt;b&gt;&lt;font style=&quot;font-size: 27px;&quot;&gt;OrgInv Corporation&lt;/font&gt;&lt;/b&gt;" style="text;html=1;strokeColor=none;fillColor=none;align=center;verticalAlign=middle;whiteSpace=wrap;rounded=0;" vertex="1" parent="1">
          <mxGeometry x="138.5" y="-430" width="341.5" height="30" as="geometry" />
        </mxCell>
      </root>
    </mxGraphModel>
  </diagram>
</mxfile>
